SplineFontDB: 3.2
FontName: WeblogmaYekan
FullName: WeblogmaYekan
FamilyName: WeblogmaYekan
Weight: Regular
ItalicAngle: 0
UnderlinePosition: -368
UnderlineWidth: 44
Ascent: 800
Descent: 200
InvalidEm: 0
LayerCount: 2
Layer: 0 1 "Back" 1
Layer: 1 1 "Fore" 0
XUID: [1021 929 -196887176 29435]
OS2Version: 0
OS2_WeightWidthSlopeOnly: 0
OS2_UseTypoMetrics: 0
CreationTime: 1586090509
ModificationTime: 1586940505
PfmFamily: 17
TTFWeight: 400
TTFWidth: 5
LineGap: 90
VLineGap: 90
Panose: 2 0 4 0 0 0 0 0 0 0
OS2TypoAscent: 0
OS2TypoAOffset: 1
OS2TypoDescent: 0
OS2TypoDOffset: 1
OS2TypoLinegap: 90
OS2WinAscent: 0
OS2WinAOffset: 1
OS2WinDescent: 0
OS2WinDOffset: 1
HheadAscent: 0
HheadAOffset: 1
HheadDescent: 0
HheadDOffset: 1
OS2Vendor: 'PfEd'
Lookup: 4 0 1 "'liga' Standard Ligatures in Arabic lookup 0" { "'liga' Standard Ligatures in Arabic lookup 0 subtable"  } ['liga' ('arab' <'dflt' > ) ]
DEI: 91125
Encoding: Original
UnicodeInterp: none
NameList: AGL For New Fonts
DisplaySize: -48
AntiAlias: 1
FitToEm: 0
WinInfo: 27 27 9
BeginChars: 257 256

StartChar: .notdef
Encoding: 0 0 0
Width: 444
Flags: W
LayerCount: 2
Fore
SplineSet
55 0 m 1
 55 590 l 1
 388 590 l 1
 388 0 l 1
 55 0 l 1
110 55 m 1
 333 55 l 1
 333 534 l 1
 110 534 l 1
 110 55 l 1
EndSplineSet
EndChar

StartChar: uFC60
Encoding: 1 64608 1
Width: 1000
LayerCount: 2
Fore
SplineSet
247 644 m 1
 247 618 247 618 232 599 c 0
 216 579 216 579 191 579 c 0
 171 579 171 579 142 603 c 1
 121 579 121 579 94 579 c 0
 70 579 70 579 55 600 c 0
 42 619 42 619 42 644 c 1
 61 644 l 1
 61 601 61 601 97 601 c 0
 132 601 132 601 133 644 c 1
 155 644 l 1
 155 601 155 601 192 601 c 0
 226 601 226 601 227 644 c 1
 247 644 l 1
210 762 m 1
 74 689 l 1
 62 709 l 1
 199 785 l 1
 210 762 l 1
EndSplineSet
Ligature2: "'liga' Standard Ligatures in Arabic lookup 0 subtable" u0651 u064E
EndChar

StartChar: uFC61
Encoding: 2 64609 2
Width: 1000
LayerCount: 2
Fore
SplineSet
256 648 m 1
 256 622 256 622 241 603 c 0
 225 583 225 583 200 583 c 0
 180 583 180 583 151 607 c 1
 130 583 130 583 103 583 c 0
 79 583 79 583 64 604 c 0
 51 623 51 623 51 648 c 1
 70 648 l 1
 70 605 70 605 106 605 c 0
 141 605 141 605 142 648 c 1
 164 648 l 1
 164 605 164 605 201 605 c 0
 235 605 235 605 236 648 c 1
 256 648 l 1
217 810 m 0
 217 771 217 771 194 759 c 2
 96 707 l 1
 84 727 l 1
 139 758 l 1
 104 777 104 777 104 806 c 0
 104 846 104 846 143 860 c 0
 155 865 155 865 158 865 c 0
 182 865 182 865 199.5 849.5 c 0
 217 834 217 834 217 810 c 0
196 811 m 0
 196 825 196 825 184.5 834.5 c 0
 173 844 173 844 158 844 c 0
 124 844 124 844 124 807 c 0
 124 773 124 773 161 773 c 0
 173 773 173 773 184.5 786 c 0
 196 799 196 799 196 811 c 0
EndSplineSet
Ligature2: "'liga' Standard Ligatures in Arabic lookup 0 subtable" u0651 u064F
EndChar

StartChar: uE818
Encoding: 3 59416 3
Width: 1000
LayerCount: 2
Fore
SplineSet
238 661 m 1
 238 635 238 635 223 616 c 0
 207 596 207 596 182 596 c 0
 162 596 162 596 133 620 c 1
 112 596 112 596 85 596 c 0
 61 596 61 596 46 617 c 0
 33 636 33 636 33 661 c 1
 52 661 l 1
 52 618 52 618 88 618 c 0
 123 618 123 618 124 661 c 1
 146 661 l 1
 146 618 146 618 183 618 c 0
 217 618 217 618 218 661 c 1
 238 661 l 1
210 836 m 1
 73 761 l 1
 61 784 l 1
 198 859 l 1
 210 836 l 1
209 786 m 1
 73 712 l 1
 61 733 l 1
 198 808 l 1
 209 786 l 1
EndSplineSet
Ligature2: "'liga' Standard Ligatures in Arabic lookup 0 subtable" u0651 u064B
EndChar

StartChar: uFC5E
Encoding: 4 64606 4
Width: 1000
LayerCount: 2
Fore
SplineSet
251 658 m 1
 251 632 251 632 236 613 c 0
 220 593 220 593 195 593 c 0
 175 593 175 593 146 617 c 1
 125 593 125 593 98 593 c 0
 74 593 74 593 59 614 c 0
 46 633 46 633 46 658 c 1
 65 658 l 1
 65 615 65 615 101 615 c 0
 136 615 136 615 137 658 c 1
 159 658 l 1
 159 615 159 615 196 615 c 0
 230 615 230 615 231 658 c 1
 251 658 l 1
238 841 m 0
 238 802 238 802 218 790 c 2
 94 725 l 1
 82 746 l 1
 104 760 104 760 108 768 c 1
 108 784 108 784 89 784 c 0
 77 784 77 784 68 779 c 1
 60 793 l 1
 84 803 84 803 97 803 c 0
 121 803 121 803 127 768 c 1
 161 787 l 1
 126 807 126 807 126 837 c 0
 126 876 126 876 164 891 c 0
 178 896 178 896 181 896 c 0
 203 896 203 896 220.5 880.5 c 0
 238 865 238 865 238 841 c 0
219 841 m 0
 219 856 219 856 207 865.5 c 0
 195 875 195 875 181 875 c 0
 145 875 145 875 145 838 c 0
 145 804 145 804 183 804 c 0
 195 804 195 804 207 816.5 c 0
 219 829 219 829 219 841 c 0
EndSplineSet
Ligature2: "'liga' Standard Ligatures in Arabic lookup 0 subtable" u0651 u064C
EndChar

StartChar: uFC62
Encoding: 5 64610 5
Width: 1000
LayerCount: 2
Fore
SplineSet
242 775 m 1
 242 749 242 749 227 730 c 0
 211 710 211 710 186 710 c 0
 166 710 166 710 137 734 c 1
 116 710 116 710 89 710 c 0
 65 710 65 710 50 731 c 0
 37 750 37 750 37 775 c 1
 56 775 l 1
 56 732 56 732 92 732 c 0
 127 732 127 732 128 775 c 1
 150 775 l 1
 150 732 150 732 187 732 c 0
 221 732 221 732 222 775 c 1
 242 775 l 1
206 665 m 1
 70 592 l 1
 58 613 l 1
 195 688 l 1
 206 665 l 1
EndSplineSet
Ligature2: "'liga' Standard Ligatures in Arabic lookup 0 subtable" u0651 u0650
EndChar

StartChar: uFC5F
Encoding: 6 64607 6
Width: 1000
LayerCount: 2
Fore
SplineSet
247 844 m 1
 247 818 247 818 232 799 c 0
 216 779 216 779 191 779 c 0
 171 779 171 779 142 803 c 1
 121 779 121 779 94 779 c 0
 70 779 70 779 55 800 c 0
 42 819 42 819 42 844 c 1
 61 844 l 1
 61 801 61 801 97 801 c 0
 132 801 132 801 133 844 c 1
 155 844 l 1
 155 801 155 801 192 801 c 0
 226 801 226 801 227 844 c 1
 247 844 l 1
204 724 m 1
 68 651 l 1
 56 671 l 1
 192 746 l 1
 204 724 l 1
204 662 m 1
 68 588 l 1
 56 609 l 1
 192 685 l 1
 204 662 l 1
EndSplineSet
Ligature2: "'liga' Standard Ligatures in Arabic lookup 0 subtable" u0651 u064D
EndChar

StartChar: uFEF5
Encoding: 7 65269 7
Width: 457
Flags: W
LayerCount: 2
Fore
SplineSet
406 119 m 2
 406 63 406 63 372.5 31.5 c 0
 339 0 339 0 281 0 c 2
 208 0 l 2
 56 0 56 0 56 119 c 2
 56 500 l 1
 134 500 l 1
 134 153 l 2
 134 105 134 105 147.5 91.5 c 0
 161 78 161 78 208 78 c 2
 277 78 l 2
 311 78 311 78 322 97 c 0
 329 107 329 107 329 153 c 2
 329 500 l 1
 406 500 l 1
 406 119 l 2
269 590 m 1
 73 590 l 2
 61 590 61 590 28 586 c 0
 10 584 10 584 2 577 c 0
 -10 569 -10 569 -25 533 c 1
 -96 562 l 1
 -67 622 -67 622 -46 640 c 0
 -19 661 -19 661 57 666 c 0
 80 668 80 668 168 668 c 0
 202 668 202 668 269 666 c 1
 269 590 l 1
EndSplineSet
Ligature2: "'liga' Standard Ligatures in Arabic lookup 0 subtable" uFEDF Hcircumflex
EndChar

StartChar: uFEF6
Encoding: 8 65270 8
Width: 457
Flags: W
LayerCount: 2
Fore
SplineSet
470 0 m 1
 402 0 402 0 363 51 c 1
 324 0 324 0 259 0 c 2
 187 0 l 2
 34 0 34 0 34 119 c 2
 34 500 l 1
 110 500 l 1
 110 153 l 2
 110 102 110 102 125 87 c 0
 134 78 134 78 187 78 c 2
 253 78 l 2
 287 78 287 78 299 97 c 0
 306 108 306 108 306 153 c 2
 306 500 l 1
 384 500 l 1
 384 146 l 2
 384 78 384 78 470 78 c 1
 470 0 l 1
241 618 m 1
 46 618 l 2
 31 618 31 618 0 614 c 0
 -19 612 -19 612 -28 606 c 0
 -37 598 -37 598 -54 562 c 1
 -125 591 l 1
 -96 650 -96 650 -73 668 c 0
 -48 689 -48 689 28 694 c 0
 50 696 50 696 140 696 c 0
 172 696 172 696 241 695 c 1
 241 618 l 1
EndSplineSet
Ligature2: "'liga' Standard Ligatures in Arabic lookup 0 subtable" uFEE0 Hcircumflex
EndChar

StartChar: uFEF7
Encoding: 9 65271 9
Width: 457
Flags: W
LayerCount: 2
Fore
SplineSet
406 119 m 2
 406 63 406 63 372.5 31.5 c 0
 339 0 339 0 281 0 c 2
 208 0 l 2
 56 0 56 0 56 119 c 2
 56 500 l 1
 134 500 l 1
 134 153 l 2
 134 105 134 105 147.5 91.5 c 0
 161 78 161 78 208 78 c 2
 277 78 l 2
 311 78 311 78 322 97 c 0
 329 107 329 107 329 153 c 2
 329 500 l 1
 406 500 l 1
 406 119 l 2
149 615 m 1
 44 562 l 1
 35 579 l 1
 71 600 l 1
 39 616 39 616 39 647 c 0
 39 669 39 669 54 684.5 c 0
 69 700 69 700 90 700 c 0
 101 700 101 700 120 691 c 1
 112 676 l 1
 104 682 104 682 89 682 c 0
 59 682 59 682 59 646 c 0
 59 616 59 616 88 616 c 0
 110 616 110 616 142 634 c 1
 149 615 l 1
EndSplineSet
Ligature2: "'liga' Standard Ligatures in Arabic lookup 0 subtable" uFEDF uFE84
EndChar

StartChar: uFEF8
Encoding: 10 65272 10
Width: 457
Flags: W
LayerCount: 2
Fore
SplineSet
470 0 m 1
 402 0 402 0 363 51 c 1
 324 0 324 0 259 0 c 2
 187 0 l 2
 34 0 34 0 34 119 c 2
 34 500 l 1
 110 500 l 1
 110 153 l 2
 110 102 110 102 125 87 c 0
 134 78 134 78 187 78 c 2
 253 78 l 2
 287 78 287 78 299 97 c 0
 306 108 306 108 306 153 c 2
 306 500 l 1
 384 500 l 1
 384 146 l 2
 384 78 384 78 470 78 c 1
 470 0 l 1
135 611 m 1
 28 559 l 1
 19 575 l 1
 55 597 l 1
 23 612 23 612 23 646 c 0
 23 666 23 666 38 681 c 0
 53 696 53 696 74 696 c 0
 85 696 85 696 104 688 c 1
 97 672 l 1
 88 679 88 679 73 679 c 0
 43 679 43 679 43 644 c 0
 43 612 43 612 72 612 c 0
 96 612 96 612 125 631 c 1
 135 611 l 1
EndSplineSet
Ligature2: "'liga' Standard Ligatures in Arabic lookup 0 subtable" uFEE0 uFE84
EndChar

StartChar: uFEF9
Encoding: 11 65273 11
Width: 457
Flags: W
LayerCount: 2
Fore
SplineSet
406 119 m 2
 406 63 406 63 372.5 31.5 c 0
 339 0 339 0 281 0 c 2
 208 0 l 2
 56 0 56 0 56 119 c 2
 56 500 l 1
 134 500 l 1
 134 153 l 2
 134 105 134 105 147.5 91.5 c 0
 161 78 161 78 208 78 c 2
 277 78 l 2
 311 78 311 78 322 97 c 0
 329 107 329 107 329 153 c 2
 329 500 l 1
 406 500 l 1
 406 119 l 2
191 -143 m 1
 85 -197 l 1
 76 -180 l 1
 112 -159 l 1
 81 -143 81 -143 81 -110 c 0
 81 -90 81 -90 95.5 -75 c 0
 110 -60 110 -60 131 -60 c 0
 143 -60 143 -60 162 -67 c 1
 154 -84 l 1
 145 -77 145 -77 130 -77 c 0
 101 -77 101 -77 101 -112 c 0
 101 -143 101 -143 129 -143 c 0
 152 -143 152 -143 183 -124 c 1
 191 -143 l 1
EndSplineSet
Ligature2: "'liga' Standard Ligatures in Arabic lookup 0 subtable" uFEDF uFE88
EndChar

StartChar: uFEFA
Encoding: 12 65274 12
Width: 457
Flags: W
LayerCount: 2
Fore
SplineSet
470 0 m 1
 402 0 402 0 363 51 c 1
 324 0 324 0 259 0 c 2
 187 0 l 2
 34 0 34 0 34 119 c 2
 34 500 l 1
 110 500 l 1
 110 153 l 2
 110 102 110 102 125 87 c 0
 134 78 134 78 187 78 c 2
 253 78 l 2
 287 78 287 78 299 97 c 0
 306 108 306 108 306 153 c 2
 306 500 l 1
 384 500 l 1
 384 146 l 2
 384 78 384 78 470 78 c 1
 470 0 l 1
160 -141 m 1
 53 -193 l 1
 45 -177 l 1
 81 -155 l 1
 49 -139 49 -139 49 -108 c 0
 49 -87 49 -87 64 -71.5 c 0
 79 -56 79 -56 101 -56 c 0
 109 -56 109 -56 129 -64 c 1
 123 -80 l 1
 112 -73 112 -73 99 -73 c 0
 68 -73 68 -73 68 -109 c 0
 68 -139 68 -139 98 -139 c 0
 121 -139 121 -139 149 -121 c 1
 160 -141 l 1
EndSplineSet
Ligature2: "'liga' Standard Ligatures in Arabic lookup 0 subtable" uFEE0 uFE88
EndChar

StartChar: uFEFB
Encoding: 13 65275 13
Width: 457
Flags: W
LayerCount: 2
Fore
SplineSet
406 119 m 2
 406 63 406 63 372.5 31.5 c 0
 339 0 339 0 281 0 c 2
 208 0 l 2
 56 0 56 0 56 119 c 2
 56 500 l 1
 134 500 l 1
 134 153 l 2
 134 105 134 105 147.5 91.5 c 0
 161 78 161 78 208 78 c 2
 277 78 l 2
 311 78 311 78 322 97 c 0
 329 107 329 107 329 153 c 2
 329 500 l 1
 406 500 l 1
 406 119 l 2
EndSplineSet
Ligature2: "'liga' Standard Ligatures in Arabic lookup 0 subtable" uFEDF uFE8E
EndChar

StartChar: uFEFC
Encoding: 14 65276 14
Width: 457
Flags: W
LayerCount: 2
Fore
SplineSet
470 0 m 1
 402 0 402 0 363 51 c 1
 324 0 324 0 259 0 c 2
 187 0 l 2
 34 0 34 0 34 119 c 2
 34 500 l 1
 110 500 l 1
 110 153 l 2
 110 102 110 102 125 87 c 0
 134 78 134 78 187 78 c 2
 253 78 l 2
 287 78 287 78 299 97 c 0
 306 108 306 108 306 153 c 2
 306 500 l 1
 384 500 l 1
 384 146 l 2
 384 78 384 78 470 78 c 1
 470 0 l 1
EndSplineSet
Ligature2: "'liga' Standard Ligatures in Arabic lookup 0 subtable" uFEE0 uFE8E
EndChar

StartChar: uFDF2
Encoding: 15 65010 15
Width: 977
Flags: W
LayerCount: 2
Fore
SplineSet
710 613 m 1
 710 587 710 587 695 568 c 0
 679 548 679 548 652 548 c 0
 633 548 633 548 605 572 c 1
 586 548 586 548 560 548 c 0
 509 548 509 548 506 613 c 1
 525 613 l 1
 525 570 525 570 560 570 c 0
 594 570 594 570 596 613 c 1
 617 613 l 1
 617 570 617 570 653 570 c 0
 689 570 689 570 689 613 c 1
 710 613 l 1
921 119 m 2
 921 63 921 63 887.5 31.5 c 0
 854 0 854 0 796 0 c 2
 722 0 l 2
 646 0 646 0 607 29 c 1
 579 8 579 8 557 3 c 0
 543 0 543 0 463 0 c 0
 412 0 412 0 388 13 c 0
 377 21 377 21 308 85 c 1
 263 -10 263 -10 164 -10 c 0
 100 -10 100 -10 58 32.5 c 0
 16 75 16 75 16 141 c 0
 16 208 16 208 106 299 c 1
 85 323 l 1
 137 377 l 1
 370 128 l 2
 399 97 399 97 410 90 c 0
 432 77 432 77 510 77 c 0
 548 77 548 77 560 98 c 0
 567 112 567 112 567 153 c 2
 567 500 l 1
 646 500 l 1
 646 138 l 2
 646 95 646 95 671 85 c 0
 688 78 688 78 791 78 c 0
 825 78 825 78 838 97 c 0
 844 107 844 107 844 153 c 2
 844 500 l 1
 921 500 l 1
 921 119 l 2
240 135 m 0
 240 163 240 163 225 178 c 2
 163 241 l 1
 126 206 126 206 116 194 c 0
 93 165 93 165 93 135 c 0
 93 104 93 104 113.5 85 c 0
 134 66 134 66 165 66 c 0
 195 66 195 66 217.5 85.5 c 0
 240 105 240 105 240 135 c 0
EndSplineSet
Ligature2: "'liga' Standard Ligatures in Arabic lookup 0 subtable" uFEDF uFEE0 uFEEA
EndChar

StartChar: u0622
Encoding: 16 65153 16
Width: 290
Flags: W
LayerCount: 2
Fore
SplineSet
293 544 m 1
 98 544 l 2
 85 544 85 544 52 539 c 0
 33 537 33 537 26 531 c 0
 15 522 15 522 -1 487 c 1
 -71 515 l 1
 -44 575 -44 575 -21 593 c 0
 5 613 5 613 81 620 c 0
 104 622 104 622 191 622 c 0
 225 622 225 622 293 620 c 1
 293 544 l 1
187 0 m 1
 110 0 l 1
 110 500 l 1
 187 500 l 1
 187 0 l 1
EndSplineSet
EndChar

StartChar: Hcircumflex
Encoding: 17 65154 17
Width: 249
Flags: W
LayerCount: 2
Fore
SplineSet
314 546 m 1
 119 546 l 2
 114 545 114 545 73 541 c 0
 55 539 55 539 48 533 c 0
 36 523 36 523 21 489 c 1
 -51 517 l 1
 -23 577 -23 577 -3 593 c 0
 29 617 29 617 95 620 c 0
 144 622 144 622 254 622 c 2
 314 622 l 1
 314 546 l 1
262 0 m 1
 183 0 183 0 146 20 c 0
 96 48 96 48 96 119 c 2
 96 488 l 1
 174 488 l 1
 174 153 l 2
 174 101 174 101 190 88 c 0
 205 78 205 78 262 78 c 1
 262 0 l 1
EndSplineSet
EndChar

StartChar: u0623
Encoding: 18 65155 18
Width: 249
Flags: W
LayerCount: 2
Fore
SplineSet
163 0 m 1
 86 0 l 1
 86 500 l 1
 163 500 l 1
 163 0 l 1
183 603 m 1
 74 549 l 1
 66 566 l 1
 103 587 l 1
 69 604 69 604 69 634 c 0
 69 655 69 655 85 671 c 0
 101 687 101 687 122 687 c 0
 131 687 131 687 150 679 c 1
 144 663 l 1
 134 669 134 669 121 669 c 0
 90 669 90 669 90 632 c 0
 90 604 90 604 119 604 c 0
 143 604 143 604 171 622 c 1
 183 603 l 1
EndSplineSet
EndChar

StartChar: uFE84
Encoding: 19 65156 19
Width: 203
Flags: W
LayerCount: 2
Fore
SplineSet
222 0 m 1
 122 0 122 0 82 38 c 0
 55 63 55 63 55 119 c 2
 55 488 l 1
 132 488 l 1
 132 153 l 2
 132 100 132 100 150 87 c 0
 163 80 163 80 222 78 c 1
 222 0 l 1
148 600 m 1
 43 546 l 1
 34 563 l 1
 70 584 l 1
 38 601 38 601 38 631 c 0
 38 652 38 652 53 668.5 c 0
 68 685 68 685 89 685 c 0
 100 685 100 685 119 675 c 1
 111 660 l 1
 103 666 103 666 89 666 c 0
 58 666 58 666 58 630 c 0
 58 601 58 601 87 601 c 0
 110 601 110 601 141 618 c 1
 148 600 l 1
EndSplineSet
EndChar

StartChar: u0624
Encoding: 20 65157 20
Width: 387
Flags: W
LayerCount: 2
Fore
SplineSet
196 387 m 1
 65 319 l 1
 54 341 l 1
 99 366 l 1
 59 387 59 387 59 423 c 0
 59 450 59 450 76.5 469.5 c 0
 94 489 94 489 122 489 c 0
 132 489 132 489 160 479 c 1
 148 459 l 1
 139 467 139 467 126 467 c 0
 107 467 107 467 95 454 c 0
 83 441 83 441 83 423 c 0
 83 388 83 388 117 388 c 0
 142 388 142 388 185 410 c 1
 196 387 l 1
348 -10 m 2
 348 -90 348 -90 289 -145 c 0
 231 -197 231 -197 150 -197 c 2
 50 -197 l 1
 40 -119 l 1
 139 -119 l 2
 192 -119 192 -119 229 -87 c 0
 269 -53 269 -53 269 0 c 1
 174 0 174 0 129 26 c 0
 68 60 68 60 68 146 c 0
 68 228 68 228 95 266 c 0
 127 312 127 312 204 312 c 0
 298 312 298 312 329 241 c 0
 348 197 348 197 348 88 c 2
 348 -10 l 2
269 78 m 1
 269 158 l 2
 269 234 269 234 208 234 c 0
 148 234 148 234 148 154 c 0
 148 102 148 102 186 86 c 0
 206 78 206 78 269 78 c 1
EndSplineSet
EndChar

StartChar: uFE86
Encoding: 21 65158 21
Width: 387
Flags: W
LayerCount: 2
Fore
SplineSet
209 387 m 1
 78 319 l 1
 67 341 l 1
 111 366 l 1
 73 387 73 387 73 423 c 0
 73 451 73 451 90 470 c 0
 107 489 107 489 136 489 c 0
 146 489 146 489 173 479 c 1
 163 459 l 1
 149 467 149 467 142 467 c 0
 123 467 123 467 110.5 454 c 0
 98 441 98 441 98 423 c 0
 98 387 98 387 131 387 c 0
 157 387 157 387 200 409 c 1
 209 387 l 1
398 0 m 1
 348 0 l 1
 348 -87 348 -87 289.5 -142 c 0
 231 -197 231 -197 145 -197 c 2
 44 -197 l 1
 34 -119 l 1
 132 -119 l 2
 187 -119 187 -119 224 -87 c 0
 264 -53 264 -53 264 0 c 1
 168 0 168 0 123 25 c 0
 62 59 62 59 62 146 c 0
 62 227 62 227 89 266 c 0
 122 312 122 312 199 312 c 0
 295 312 295 312 327 236 c 0
 348 188 348 188 348 78 c 1
 398 78 l 1
 398 0 l 1
267 78 m 1
 267 151 l 2
 267 201 267 201 241 220 c 0
 222 234 222 234 203 234 c 0
 143 234 143 234 143 154 c 0
 143 102 143 102 183 86 c 0
 203 78 203 78 267 78 c 1
EndSplineSet
EndChar

StartChar: u0625
Encoding: 22 65159 22
Width: 249
Flags: W
LayerCount: 2
Fore
SplineSet
163 0 m 1
 86 0 l 1
 86 500 l 1
 163 500 l 1
 163 0 l 1
194 -149 m 1
 88 -203 l 1
 79 -186 l 1
 115 -165 l 1
 83 -148 83 -148 83 -117 c 0
 83 -96 83 -96 97.5 -81 c 0
 112 -66 112 -66 134 -66 c 0
 145 -66 145 -66 164 -73 c 1
 156 -90 l 1
 147 -84 147 -84 133 -84 c 0
 104 -84 104 -84 104 -119 c 0
 104 -148 104 -148 132 -148 c 0
 155 -148 155 -148 185 -130 c 1
 194 -149 l 1
EndSplineSet
EndChar

StartChar: uFE88
Encoding: 23 65160 23
Width: 203
Flags: W
LayerCount: 2
Fore
SplineSet
222 0 m 1
 122 0 122 0 82 38 c 0
 55 63 55 63 55 119 c 2
 55 488 l 1
 132 488 l 1
 132 153 l 2
 132 100 132 100 150 87 c 0
 163 80 163 80 222 78 c 1
 222 0 l 1
188 -159 m 1
 81 -213 l 1
 72 -195 l 1
 109 -175 l 1
 76 -158 76 -158 76 -127 c 0
 76 -105 76 -105 91 -89.5 c 0
 106 -74 106 -74 128 -74 c 0
 139 -74 139 -74 158 -84 c 1
 149 -99 l 1
 142 -93 142 -93 127 -93 c 0
 96 -93 96 -93 96 -129 c 0
 96 -158 96 -158 126 -158 c 0
 148 -158 148 -158 179 -141 c 1
 188 -159 l 1
EndSplineSet
EndChar

StartChar: u0626
Encoding: 24 65161 24
Width: 559
Flags: W
LayerCount: 2
Fore
SplineSet
192 338 m 1
 61 271 l 1
 50 292 l 1
 95 316 l 1
 56 339 56 339 56 373 c 0
 56 401 56 401 72.5 420.5 c 0
 89 440 89 440 118 440 c 0
 129 440 129 440 155 431 c 1
 146 410 l 1
 132 417 132 417 122 417 c 0
 104 417 104 417 91.5 404.5 c 0
 79 392 79 392 79 373 c 0
 79 339 79 339 111 339 c 0
 140 339 140 339 183 360 c 1
 192 338 l 1
531 4 m 0
 531 -86 531 -86 480 -141 c 0
 427 -197 427 -197 340 -197 c 2
 220 -197 l 2
 138 -197 138 -197 85 -137 c 0
 34 -79 34 -79 34 4 c 2
 34 165 l 1
 107 165 l 1
 107 -5 l 2
 107 -58 107 -58 146 -90 c 0
 182 -121 182 -121 234 -121 c 2
 335 -121 l 2
 378 -121 378 -121 416 -90 c 0
 456 -59 456 -59 456 -17 c 0
 456 21 456 21 429 29 c 0
 405 37 405 37 275 38 c 1
 275 171 l 2
 275 230 275 230 314.5 271 c 0
 354 312 354 312 413 312 c 2
 507 312 l 1
 510 239 l 1
 417 239 l 2
 370 239 370 239 356 194 c 0
 349 171 349 171 349 111 c 1
 463 109 463 109 490 93 c 0
 531 70 531 70 531 4 c 0
EndSplineSet
EndChar

StartChar: uFE8A
Encoding: 25 65162 25
Width: 559
Flags: W
LayerCount: 2
Fore
SplineSet
195 339 m 1
 63 272 l 1
 52 294 l 1
 98 319 l 1
 58 340 58 340 58 375 c 0
 58 402 58 402 75.5 422 c 0
 93 442 93 442 121 442 c 0
 137 442 137 442 158 433 c 1
 148 412 l 1
 137 419 137 419 125 419 c 0
 106 419 106 419 94 406.5 c 0
 82 394 82 394 82 375 c 0
 82 340 82 340 116 340 c 0
 141 340 141 340 184 362 c 1
 195 339 l 1
572 0 m 1
 499 0 l 1
 503 -13 503 -13 503 -38 c 0
 503 -107 503 -107 452 -152 c 0
 402 -197 402 -197 332 -197 c 2
 212 -197 l 2
 118 -197 118 -197 66 -129 c 0
 19 -69 19 -69 19 28 c 2
 19 167 l 1
 97 167 l 1
 97 -3 l 2
 97 -59 97 -59 136 -90 c 0
 171 -119 171 -119 229 -119 c 2
 329 -119 l 2
 370 -119 370 -119 397 -97 c 0
 427 -72 427 -72 427 -31 c 0
 427 -12 427 -12 403 -8 c 0
 378 -2 378 -2 264 0 c 1
 258 78 l 1
 572 78 l 1
 572 0 l 1
EndSplineSet
EndChar

StartChar: uFE8B
Encoding: 26 65163 26
Width: 264
Flags: W
LayerCount: 2
Fore
SplineSet
193 335 m 1
 62 269 l 1
 51 290 l 1
 96 314 l 1
 56 337 56 337 56 372 c 0
 56 399 56 399 74 418.5 c 0
 92 438 92 438 119 438 c 0
 129 438 129 438 156 429 c 1
 146 407 l 1
 135 417 135 417 123 417 c 0
 80 417 80 417 80 372 c 0
 80 338 80 338 114 338 c 0
 140 338 140 338 183 359 c 1
 193 335 l 1
226 127 m 2
 226 76 226 76 194 39 c 0
 162 0 162 0 111 0 c 2
 -16 0 l 1
 -16 78 l 1
 107 78 107 78 121 83 c 0
 147 92 147 92 147 152 c 0
 147 168 147 168 146.5 198.5 c 0
 146 229 146 229 146 245 c 1
 226 245 l 1
 226 127 l 2
EndSplineSet
EndChar

StartChar: uFE8C
Encoding: 27 65164 27
Width: 305
Flags: W
LayerCount: 2
Fore
SplineSet
190 339 m 1
 60 271 l 1
 49 293 l 1
 93 318 l 1
 54 339 54 339 54 374 c 0
 54 401 54 401 71.5 421.5 c 0
 89 442 89 442 117 442 c 0
 128 442 128 442 154 432 c 1
 145 411 l 1
 132 418 132 418 122 418 c 0
 104 418 104 418 91 405.5 c 0
 78 393 78 393 78 374 c 0
 78 339 78 339 111 339 c 0
 137 339 137 339 181 361 c 1
 190 339 l 1
315 0 m 1
 303 0 l 2
 263 0 263 0 250 4 c 0
 231 9 231 9 206 29 c 1
 167 0 167 0 132 0 c 2
 -10 0 l 1
 -10 78 l 1
 4 78 4 78 45 77 c 2
 85 77 l 2
 135 76 135 76 150 92 c 0
 165 108 165 108 165 159 c 2
 165 238 l 2
 165 245 165 245 164 247 c 1
 164 245 l 1
 244 245 l 1
 244 138 l 2
 244 99 244 99 262 88 c 0
 273 80 273 80 315 78 c 1
 315 0 l 1
EndSplineSet
EndChar

StartChar: u0627
Encoding: 28 65165 28
Width: 249
Flags: W
LayerCount: 2
Fore
SplineSet
163 0 m 1
 86 0 l 1
 86 500 l 1
 163 500 l 1
 163 0 l 1
EndSplineSet
EndChar

StartChar: uFE8E
Encoding: 29 65166 29
Width: 203
Flags: W
LayerCount: 2
Fore
SplineSet
222 0 m 1
 122 0 122 0 82 38 c 0
 55 63 55 63 55 119 c 2
 55 488 l 1
 132 488 l 1
 132 153 l 2
 132 100 132 100 150 87 c 0
 163 80 163 80 222 78 c 1
 222 0 l 1
EndSplineSet
EndChar

StartChar: u0628
Encoding: 30 65167 30
Width: 696
Flags: W
LayerCount: 2
Fore
SplineSet
668 127 m 2
 668 77 668 77 637 40 c 0
 604 0 604 0 555 0 c 2
 144 0 l 2
 93 0 93 0 62 39 c 0
 31 75 31 75 31 127 c 2
 31 245 l 1
 109 245 l 1
 109 138 l 2
 109 104 109 104 121.5 91 c 0
 134 78 134 78 167 78 c 2
 531 78 l 2
 564 78 564 78 577 91 c 0
 590 104 590 104 590 138 c 2
 590 245 l 1
 668 245 l 1
 668 127 l 2
425 -142 m 0
 425 -164 425 -164 408.5 -180 c 0
 392 -196 392 -196 370 -196 c 0
 312 -196 312 -196 312 -142 c 0
 312 -96 312 -96 367 -96 c 0
 425 -96 425 -96 425 -142 c 0
EndSplineSet
EndChar

StartChar: uFE90
Encoding: 31 65168 31
Width: 743
Flags: W
LayerCount: 2
Fore
SplineSet
758 0 m 1
 665 0 665 0 633 29 c 1
 593 0 593 0 558 0 c 2
 146 0 l 2
 98 0 98 0 66 40 c 0
 35 77 35 77 35 127 c 2
 35 245 l 1
 112 245 l 1
 112 138 l 2
 112 104 112 104 126 91 c 0
 140 78 140 78 171 78 c 2
 534 78 l 2
 567 78 567 78 579.5 91 c 0
 592 104 592 104 592 138 c 2
 592 245 l 1
 671 245 l 1
 671 138 l 2
 671 78 671 78 758 78 c 1
 758 0 l 1
407 -145 m 0
 407 -168 407 -168 391 -183.5 c 0
 375 -199 375 -199 353 -199 c 0
 294 -199 294 -199 294 -145 c 0
 294 -98 294 -98 350 -98 c 0
 407 -98 407 -98 407 -145 c 0
EndSplineSet
EndChar

StartChar: uFE91
Encoding: 32 65169 32
Width: 254
Flags: W
LayerCount: 2
Fore
SplineSet
226 127 m 2
 226 76 226 76 194 39 c 0
 162 0 162 0 111 0 c 2
 -16 0 l 1
 -16 78 l 1
 107 78 107 78 121 83 c 0
 147 92 147 92 147 152 c 0
 147 168 147 168 146.5 198.5 c 0
 146 229 146 229 146 245 c 1
 226 245 l 1
 226 127 l 2
133 -146 m 0
 133 -169 133 -169 118 -184.5 c 0
 103 -200 103 -200 79 -200 c 0
 21 -200 21 -200 21 -146 c 0
 21 -99 21 -99 77 -99 c 0
 133 -99 133 -99 133 -146 c 0
EndSplineSet
EndChar

StartChar: uFE92
Encoding: 33 65170 33
Width: 305
Flags: W
LayerCount: 2
Fore
SplineSet
320 0 m 1
 296 0 l 2
 229 0 229 0 195 29 c 1
 156 0 156 0 121 0 c 2
 -9 0 l 1
 -9 78 l 1
 112 78 112 78 129 84 c 0
 154 92 154 92 154 153 c 0
 154 169 154 169 153.5 199 c 0
 153 229 153 229 153 245 c 1
 233 245 l 1
 233 138 l 2
 233 100 233 100 260 87 c 0
 275 80 275 80 320 78 c 1
 320 0 l 1
136 -142 m 0
 136 -164 136 -164 120 -179.5 c 0
 104 -195 104 -195 82 -195 c 0
 23 -195 23 -195 23 -142 c 0
 23 -95 23 -95 79 -95 c 0
 136 -95 136 -95 136 -142 c 0
EndSplineSet
EndChar

StartChar: u067E
Encoding: 34 64342 34
Width: 696
Flags: W
LayerCount: 2
Fore
SplineSet
668 127 m 2
 668 77 668 77 637 40 c 0
 604 0 604 0 555 0 c 2
 144 0 l 2
 93 0 93 0 62 39 c 0
 31 75 31 75 31 127 c 2
 31 245 l 1
 109 245 l 1
 109 138 l 2
 109 104 109 104 121.5 91 c 0
 134 78 134 78 167 78 c 2
 531 78 l 2
 564 78 564 78 577 91 c 0
 590 104 590 104 590 138 c 2
 590 245 l 1
 668 245 l 1
 668 127 l 2
490 -148 m 0
 490 -189 490 -189 440 -189 c 0
 387 -189 387 -189 387 -148 c 0
 387 -129 387 -129 401.5 -115.5 c 0
 416 -102 416 -102 436 -102 c 0
 458 -102 458 -102 474 -112 c 0
 490 -127 490 -127 490 -148 c 0
341 -148 m 0
 341 -189 341 -189 290 -189 c 0
 236 -189 236 -189 236 -148 c 0
 236 -129 236 -129 251 -115.5 c 0
 266 -102 266 -102 286 -102 c 0
 308 -102 308 -102 324 -112 c 0
 341 -127 341 -127 341 -148 c 0
412 -260 m 0
 412 -302 412 -302 362 -302 c 0
 308 -302 308 -302 308 -260 c 0
 308 -212 308 -212 357 -212 c 0
 380 -212 380 -212 396 -224 c 0
 412 -237 412 -237 412 -260 c 0
EndSplineSet
EndChar

StartChar: uFB57
Encoding: 35 64343 35
Width: 743
Flags: W
LayerCount: 2
Fore
SplineSet
758 0 m 1
 665 0 665 0 633 29 c 1
 593 0 593 0 558 0 c 2
 146 0 l 2
 98 0 98 0 66 40 c 0
 35 77 35 77 35 127 c 2
 35 245 l 1
 112 245 l 1
 112 138 l 2
 112 104 112 104 126 91 c 0
 140 78 140 78 171 78 c 2
 534 78 l 2
 567 78 567 78 579.5 91 c 0
 592 104 592 104 592 138 c 2
 592 245 l 1
 671 245 l 1
 671 138 l 2
 671 78 671 78 758 78 c 1
 758 0 l 1
494 -136 m 0
 494 -177 494 -177 440 -177 c 0
 390 -177 390 -177 390 -136 c 0
 390 -115 390 -115 403.5 -101.5 c 0
 417 -88 417 -88 437 -88 c 0
 494 -88 494 -88 494 -136 c 0
344 -136 m 0
 344 -177 344 -177 291 -177 c 0
 241 -177 241 -177 241 -136 c 0
 241 -115 241 -115 254.5 -101.5 c 0
 268 -88 268 -88 288 -88 c 0
 344 -88 344 -88 344 -136 c 0
416 -246 m 0
 416 -288 416 -288 366 -288 c 0
 312 -288 312 -288 312 -246 c 0
 312 -226 312 -226 326 -212.5 c 0
 340 -199 340 -199 360 -199 c 0
 383 -199 383 -199 398 -210 c 0
 416 -224 416 -224 416 -246 c 0
EndSplineSet
EndChar

StartChar: uFB58
Encoding: 36 64344 36
Width: 305
Flags: W
LayerCount: 2
Fore
SplineSet
269 127 m 2
 269 76 269 76 240 39 c 0
 208 0 208 0 158 0 c 2
 -10 0 l 1
 -10 78 l 1
 134 78 l 2
 166 78 166 78 178 91 c 0
 190 104 190 104 190 138 c 2
 190 245 l 1
 269 245 l 1
 269 127 l 2
260 -136 m 0
 260 -178 260 -178 209 -178 c 0
 155 -178 155 -178 155 -136 c 0
 155 -115 155 -115 169.5 -101.5 c 0
 184 -88 184 -88 204 -88 c 0
 260 -88 260 -88 260 -136 c 0
109 -136 m 0
 109 -178 109 -178 60 -178 c 0
 6 -178 6 -178 6 -136 c 0
 6 -115 6 -115 19.5 -101.5 c 0
 33 -88 33 -88 55 -88 c 0
 109 -88 109 -88 109 -136 c 0
183 -246 m 0
 183 -288 183 -288 131 -288 c 0
 77 -288 77 -288 77 -246 c 0
 77 -199 77 -199 126 -199 c 0
 148 -199 148 -199 164 -210 c 0
 183 -224 183 -224 183 -246 c 0
EndSplineSet
EndChar

StartChar: uFB59
Encoding: 37 64345 37
Width: 320
Flags: W
LayerCount: 2
Fore
SplineSet
338 0 m 1
 289 0 289 0 266 4 c 1
 246 12 246 12 226 29 c 1
 188 0 188 0 150 0 c 2
 -17 0 l 1
 -17 78 l 1
 128 78 l 2
 161 78 161 78 173.5 91 c 0
 186 104 186 104 186 138 c 2
 186 245 l 1
 264 245 l 1
 264 138 l 2
 264 100 264 100 281 87 c 0
 296 78 296 78 338 78 c 1
 338 0 l 1
247 -136 m 0
 247 -178 247 -178 196 -178 c 0
 143 -178 143 -178 143 -136 c 0
 143 -115 143 -115 156.5 -101.5 c 0
 170 -88 170 -88 190 -88 c 0
 247 -88 247 -88 247 -136 c 0
97 -136 m 0
 97 -178 97 -178 48 -178 c 0
 -9 -178 -9 -178 -9 -136 c 0
 -9 -115 -9 -115 6 -101.5 c 0
 21 -88 21 -88 42 -88 c 0
 97 -88 97 -88 97 -136 c 0
169 -246 m 0
 169 -288 169 -288 119 -288 c 0
 64 -288 64 -288 64 -246 c 0
 64 -199 64 -199 112 -199 c 0
 135 -199 135 -199 150 -210 c 0
 169 -224 169 -224 169 -246 c 0
EndSplineSet
EndChar

StartChar: u062A
Encoding: 38 65173 38
Width: 696
Flags: W
LayerCount: 2
Fore
SplineSet
462 375 m 0
 462 355 462 355 447.5 341 c 0
 433 327 433 327 412 327 c 0
 358 327 358 327 358 375 c 0
 358 417 358 417 407 417 c 0
 462 417 462 417 462 375 c 0
312 375 m 0
 312 355 312 355 297.5 341 c 0
 283 327 283 327 263 327 c 0
 208 327 208 327 208 375 c 0
 208 417 208 417 258 417 c 0
 312 417 312 417 312 375 c 0
668 127 m 2
 668 77 668 77 637 40 c 0
 604 0 604 0 555 0 c 2
 144 0 l 2
 93 0 93 0 62 39 c 0
 31 75 31 75 31 127 c 2
 31 245 l 1
 109 245 l 1
 109 138 l 2
 109 104 109 104 121.5 91 c 0
 134 78 134 78 167 78 c 2
 531 78 l 2
 564 78 564 78 577 91 c 0
 590 104 590 104 590 138 c 2
 590 245 l 1
 668 245 l 1
 668 127 l 2
EndSplineSet
EndChar

StartChar: uFE96
Encoding: 39 65174 39
Width: 743
Flags: W
LayerCount: 2
Fore
SplineSet
482 375 m 0
 482 355 482 355 468 342 c 0
 454 329 454 329 434 329 c 0
 378 329 378 329 378 375 c 0
 378 418 378 418 429 418 c 0
 482 418 482 418 482 375 c 0
332 375 m 0
 332 355 332 355 317.5 342 c 0
 303 329 303 329 283 329 c 0
 228 329 228 329 228 375 c 0
 228 418 228 418 278 418 c 0
 332 418 332 418 332 375 c 0
758 0 m 1
 665 0 665 0 633 29 c 1
 593 0 593 0 558 0 c 2
 146 0 l 2
 98 0 98 0 66 40 c 0
 35 77 35 77 35 127 c 2
 35 245 l 1
 112 245 l 1
 112 138 l 2
 112 104 112 104 126 91 c 0
 140 78 140 78 171 78 c 2
 534 78 l 2
 567 78 567 78 579.5 91 c 0
 592 104 592 104 592 138 c 2
 592 245 l 1
 671 245 l 1
 671 138 l 2
 671 78 671 78 758 78 c 1
 758 0 l 1
EndSplineSet
EndChar

StartChar: uFE97
Encoding: 40 65175 40
Width: 295
Flags: W
LayerCount: 2
Fore
SplineSet
308 371 m 0
 308 352 308 352 293 338 c 0
 278 324 278 324 259 324 c 0
 235 324 235 324 221 336 c 0
 203 350 203 350 203 371 c 0
 203 414 203 414 253 414 c 0
 308 414 308 414 308 371 c 0
158 371 m 0
 158 352 158 352 143.5 338 c 0
 129 324 129 324 108 324 c 0
 86 324 86 324 69 336 c 0
 53 350 53 350 53 371 c 0
 53 414 53 414 104 414 c 0
 158 414 158 414 158 371 c 0
263 127 m 2
 263 76 263 76 232 39 c 0
 201 0 201 0 150 0 c 2
 -16 0 l 1
 -16 78 l 1
 127 78 l 2
 160 78 160 78 172.5 91 c 0
 185 104 185 104 185 138 c 2
 185 245 l 1
 263 245 l 1
 263 127 l 2
EndSplineSet
EndChar

StartChar: uFE98
Encoding: 41 65176 41
Width: 320
Flags: W
LayerCount: 2
Fore
SplineSet
314 374 m 0
 314 354 314 354 300 340.5 c 0
 286 327 286 327 266 327 c 0
 210 327 210 327 210 374 c 0
 210 417 210 417 261 417 c 0
 314 417 314 417 314 374 c 0
165 374 m 0
 165 354 165 354 150.5 340.5 c 0
 136 327 136 327 116 327 c 0
 62 327 62 327 62 374 c 0
 62 417 62 417 110 417 c 0
 165 417 165 417 165 374 c 0
338 0 m 1
 289 0 289 0 266 4 c 1
 246 12 246 12 226 29 c 1
 188 0 188 0 150 0 c 2
 -17 0 l 1
 -17 78 l 1
 128 78 l 2
 161 78 161 78 173.5 91 c 0
 186 104 186 104 186 138 c 2
 186 245 l 1
 264 245 l 1
 264 138 l 2
 264 100 264 100 281 87 c 0
 296 78 296 78 338 78 c 1
 338 0 l 1
EndSplineSet
EndChar

StartChar: u062B
Encoding: 42 65177 42
Width: 696
Flags: W
LayerCount: 2
Fore
SplineSet
391 457 m 0
 391 437 391 437 375.5 423.5 c 0
 360 410 360 410 340 410 c 0
 319 410 319 410 303 423 c 0
 286 437 286 437 286 457 c 0
 286 500 286 500 336 500 c 0
 391 500 391 500 391 457 c 0
467 348 m 0
 467 327 467 327 452 313.5 c 0
 437 300 437 300 417 300 c 0
 396 300 396 300 379 312 c 0
 362 326 362 326 362 348 c 0
 362 390 362 390 412 390 c 0
 467 390 467 390 467 348 c 0
316 348 m 0
 316 327 316 327 301.5 313.5 c 0
 287 300 287 300 268 300 c 0
 245 300 245 300 229 312 c 0
 213 326 213 326 213 348 c 0
 213 390 213 390 262 390 c 0
 316 390 316 390 316 348 c 0
668 127 m 2
 668 77 668 77 637 40 c 0
 604 0 604 0 555 0 c 2
 144 0 l 2
 93 0 93 0 62 39 c 0
 31 75 31 75 31 127 c 2
 31 245 l 1
 109 245 l 1
 109 138 l 2
 109 104 109 104 121.5 91 c 0
 134 78 134 78 167 78 c 2
 531 78 l 2
 564 78 564 78 577 91 c 0
 590 104 590 104 590 138 c 2
 590 245 l 1
 668 245 l 1
 668 127 l 2
EndSplineSet
EndChar

StartChar: uFE9A
Encoding: 43 65178 43
Width: 743
Flags: W
LayerCount: 2
Fore
SplineSet
403 457 m 0
 403 437 403 437 388.5 423.5 c 0
 374 410 374 410 354 410 c 0
 299 410 299 410 299 457 c 0
 299 500 299 500 349 500 c 0
 403 500 403 500 403 457 c 0
479 348 m 0
 479 327 479 327 464 313.5 c 0
 449 300 449 300 429 300 c 0
 407 300 407 300 392 312 c 0
 375 326 375 326 375 348 c 0
 375 390 375 390 426 390 c 0
 479 390 479 390 479 348 c 0
329 348 m 0
 329 327 329 327 315 313.5 c 0
 301 300 301 300 280 300 c 0
 259 300 259 300 243 312 c 0
 226 326 226 326 226 348 c 0
 226 390 226 390 275 390 c 0
 329 390 329 390 329 348 c 0
758 0 m 1
 665 0 665 0 633 29 c 1
 593 0 593 0 558 0 c 2
 146 0 l 2
 98 0 98 0 66 40 c 0
 35 77 35 77 35 127 c 2
 35 245 l 1
 112 245 l 1
 112 138 l 2
 112 104 112 104 126 91 c 0
 140 78 140 78 171 78 c 2
 534 78 l 2
 567 78 567 78 579.5 91 c 0
 592 104 592 104 592 138 c 2
 592 245 l 1
 671 245 l 1
 671 138 l 2
 671 78 671 78 758 78 c 1
 758 0 l 1
EndSplineSet
EndChar

StartChar: uFE9B
Encoding: 44 65179 44
Width: 295
Flags: W
LayerCount: 2
Fore
SplineSet
229 457 m 0
 229 437 229 437 214.5 423 c 0
 200 409 200 409 180 409 c 0
 156 409 156 409 142 422 c 0
 123 436 123 436 123 457 c 0
 123 500 123 500 174 500 c 0
 229 500 229 500 229 457 c 0
306 348 m 0
 306 327 306 327 290.5 313 c 0
 275 299 275 299 256 299 c 0
 233 299 233 299 218 312 c 0
 200 326 200 326 200 348 c 0
 200 390 200 390 250 390 c 0
 306 390 306 390 306 348 c 0
155 348 m 0
 155 327 155 327 140.5 313 c 0
 126 299 126 299 105 299 c 0
 84 299 84 299 67 312 c 0
 50 326 50 326 50 348 c 0
 50 390 50 390 102 390 c 0
 155 390 155 390 155 348 c 0
263 127 m 2
 263 76 263 76 232 39 c 0
 201 0 201 0 150 0 c 2
 -16 0 l 1
 -16 78 l 1
 127 78 l 2
 160 78 160 78 172.5 91 c 0
 185 104 185 104 185 138 c 2
 185 245 l 1
 263 245 l 1
 263 127 l 2
EndSplineSet
EndChar

StartChar: uFE9C
Encoding: 45 65180 45
Width: 320
Flags: W
LayerCount: 2
Fore
SplineSet
260 457 m 0
 260 437 260 437 244.5 423 c 0
 229 409 229 409 209 409 c 0
 187 409 187 409 171 422 c 0
 153 436 153 436 153 457 c 0
 153 500 153 500 204 500 c 0
 260 500 260 500 260 457 c 0
336 348 m 0
 336 327 336 327 321 313 c 0
 306 299 306 299 286 299 c 0
 264 299 264 299 248 312 c 0
 229 326 229 326 229 348 c 0
 229 390 229 390 281 390 c 0
 336 390 336 390 336 348 c 0
186 348 m 0
 186 327 186 327 171 313 c 0
 156 299 156 299 136 299 c 0
 113 299 113 299 98 312 c 0
 81 326 81 326 81 348 c 0
 81 390 81 390 131 390 c 0
 186 390 186 390 186 348 c 0
338 0 m 1
 289 0 289 0 266 4 c 1
 246 12 246 12 226 29 c 1
 188 0 188 0 150 0 c 2
 -17 0 l 1
 -17 78 l 1
 128 78 l 2
 161 78 161 78 173.5 91 c 0
 186 104 186 104 186 138 c 2
 186 245 l 1
 264 245 l 1
 264 138 l 2
 264 100 264 100 281 87 c 0
 296 78 296 78 338 78 c 1
 338 0 l 1
EndSplineSet
EndChar

StartChar: u062C
Encoding: 46 65181 46
Width: 479
Flags: W
LayerCount: 2
Fore
SplineSet
489 -377 m 1
 275 -377 l 2
 166 -377 166 -377 93 -309 c 0
 19 -241 19 -241 19 -131 c 0
 19 -4 19 -4 132 60 c 2
 371 190 l 1
 354 224 354 224 319 229 c 0
 287 235 287 235 111 235 c 1
 103 312 l 1
 291 312 l 2
 454 312 454 312 455 150 c 1
 197 8 l 2
 92 -51 92 -51 92 -138 c 0
 92 -201 92 -201 141.5 -250.5 c 0
 191 -300 191 -300 255 -300 c 2
 482 -300 l 1
 489 -377 l 1
354 -146 m 0
 354 -169 354 -169 338 -185 c 0
 322 -201 322 -201 300 -201 c 0
 274 -201 274 -201 259 -187 c 0
 241 -172 241 -172 241 -147 c 0
 241 -99 241 -99 297 -99 c 0
 354 -99 354 -99 354 -146 c 0
EndSplineSet
EndChar

StartChar: uFE9E
Encoding: 47 65182 47
Width: 479
Flags: W
LayerCount: 2
Fore
SplineSet
498 0 m 1
 427 2 427 2 403 16 c 0
 369 34 369 34 363 55 c 0
 359 69 359 69 353 91 c 1
 200 8 l 2
 96 -50 96 -50 96 -138 c 0
 96 -202 96 -202 145 -251 c 0
 194 -300 194 -300 259 -300 c 2
 486 -300 l 1
 492 -377 l 1
 279 -377 l 2
 169 -377 169 -377 96 -309 c 0
 21 -241 21 -241 21 -131 c 0
 21 -4 21 -4 136 60 c 2
 375 190 l 1
 342 242 342 242 203 239 c 0
 66 235 66 235 115 235 c 1
 105 312 l 1
 294 312 l 2
 457 312 457 312 457 150 c 1
 387 110 l 1
 396 87 396 87 436 80 c 0
 448 78 448 78 498 78 c 1
 498 0 l 1
357 -142 m 0
 357 -164 357 -164 341 -180 c 0
 325 -196 325 -196 303 -196 c 0
 277 -196 277 -196 262 -184 c 0
 243 -168 243 -168 243 -144 c 0
 243 -96 243 -96 300 -96 c 0
 357 -96 357 -96 357 -142 c 0
EndSplineSet
EndChar

StartChar: uFE9F
Encoding: 48 65183 48
Width: 447
Flags: W
LayerCount: 2
Fore
SplineSet
432 150 m 1
 253 49 l 2
 189 13 189 13 122 5 c 0
 87 0 87 0 -19 0 c 1
 -19 78 l 1
 132 78 132 78 195 107 c 0
 200 109 200 109 251 137 c 0
 283 154 283 154 348 189 c 1
 332 223 332 223 297 230 c 0
 281 234 281 234 228 234 c 2
 91 235 l 1
 80 312 l 1
 272 312 l 2
 432 312 432 312 432 150 c 1
150 -141 m 0
 150 -163 150 -163 135.5 -178.5 c 0
 121 -194 121 -194 98 -194 c 0
 72 -194 72 -194 56 -182 c 0
 38 -166 38 -166 38 -142 c 0
 38 -92 38 -92 95 -92 c 0
 150 -92 150 -92 150 -141 c 0
EndSplineSet
EndChar

StartChar: uFEA0
Encoding: 49 65184 49
Width: 447
Flags: W
LayerCount: 2
Fore
SplineSet
459 0 m 1
 349 3 349 3 338 51 c 0
 332 70 332 70 327 91 c 1
 215 25 215 25 164 12 c 0
 118 0 118 0 -19 0 c 1
 -19 78 l 1
 132 78 132 78 195 107 c 0
 208 112 208 112 348 189 c 1
 332 223 332 223 297 230 c 0
 282 234 282 234 228 234 c 2
 91 235 l 1
 80 312 l 1
 272 312 l 2
 432 312 432 312 432 150 c 1
 359 110 l 1
 359 78 359 78 459 78 c 1
 459 0 l 1
225 -145 m 0
 225 -167 225 -167 209 -183.5 c 0
 193 -200 193 -200 171 -200 c 0
 146 -200 146 -200 129 -186 c 0
 111 -170 111 -170 111 -146 c 0
 111 -99 111 -99 169 -99 c 0
 225 -99 225 -99 225 -145 c 0
EndSplineSet
EndChar

StartChar: u0686
Encoding: 50 64378 50
Width: 479
Flags: W
LayerCount: 2
Fore
SplineSet
442 -97 m 0
 442 -138 442 -138 388 -138 c 0
 338 -138 338 -138 338 -97 c 0
 338 -75 338 -75 351.5 -62 c 0
 365 -49 365 -49 387 -49 c 0
 408 -49 408 -49 425 -62 c 0
 442 -74 442 -74 442 -97 c 0
487 -377 m 1
 273 -377 l 2
 164 -377 164 -377 91 -309 c 0
 17 -241 17 -241 17 -131 c 0
 17 -3 17 -3 130 60 c 2
 369 190 l 1
 352 224 352 224 316 229 c 0
 284 235 284 235 110 235 c 1
 102 312 l 1
 288 312 l 2
 452 312 452 312 452 150 c 1
 195 8 l 2
 91 -51 91 -51 91 -138 c 0
 91 -202 91 -202 139.5 -251 c 0
 188 -300 188 -300 253 -300 c 2
 481 -300 l 1
 487 -377 l 1
291 -97 m 0
 291 -138 291 -138 239 -138 c 0
 187 -138 187 -138 187 -97 c 0
 187 -75 187 -75 201 -62 c 0
 215 -49 215 -49 235 -49 c 0
 258 -49 258 -49 273 -62 c 0
 291 -74 291 -74 291 -97 c 0
361 -207 m 0
 361 -249 361 -249 312 -249 c 0
 258 -249 258 -249 258 -207 c 0
 258 -160 258 -160 306 -160 c 0
 328 -160 328 -160 345 -171 c 0
 361 -185 361 -185 361 -207 c 0
EndSplineSet
EndChar

StartChar: uFB7B
Encoding: 51 64379 51
Width: 479
Flags: W
LayerCount: 2
Fore
SplineSet
438 -97 m 0
 438 -138 438 -138 387 -138 c 0
 334 -138 334 -138 334 -97 c 0
 334 -75 334 -75 348 -62 c 0
 362 -49 362 -49 384 -49 c 0
 406 -49 406 -49 422 -62 c 0
 438 -74 438 -74 438 -97 c 0
503 0 m 1
 433 2 433 2 407 16 c 0
 374 34 374 34 368 55 c 0
 364 69 364 69 358 91 c 1
 205 8 l 2
 102 -50 102 -50 102 -138 c 0
 102 -202 102 -202 151 -251 c 0
 200 -300 200 -300 263 -300 c 2
 490 -300 l 1
 497 -377 l 1
 283 -377 l 2
 174 -377 174 -377 102 -309 c 0
 27 -241 27 -241 27 -131 c 0
 27 -4 27 -4 142 60 c 2
 380 190 l 1
 348 242 348 242 208 239 c 0
 69 235 69 235 121 235 c 1
 110 312 l 1
 299 312 l 2
 462 312 462 312 462 150 c 1
 391 110 l 1
 400 87 400 87 440 80 c 0
 453 78 453 78 503 78 c 1
 503 0 l 1
288 -97 m 0
 288 -138 288 -138 235 -138 c 0
 184 -138 184 -138 184 -97 c 0
 184 -75 184 -75 197.5 -62 c 0
 211 -49 211 -49 232 -49 c 0
 255 -49 255 -49 271 -62 c 0
 288 -74 288 -74 288 -97 c 0
358 -207 m 0
 358 -249 358 -249 309 -249 c 0
 254 -249 254 -249 254 -207 c 0
 254 -160 254 -160 303 -160 c 0
 325 -160 325 -160 341 -171 c 0
 358 -185 358 -185 358 -207 c 0
EndSplineSet
EndChar

StartChar: uFB7C
Encoding: 52 64380 52
Width: 447
Flags: W
LayerCount: 2
Fore
SplineSet
432 150 m 1
 253 49 l 2
 189 13 189 13 122 5 c 0
 87 0 87 0 -19 0 c 1
 -19 78 l 1
 132 78 132 78 195 107 c 0
 200 109 200 109 251 137 c 0
 283 154 283 154 348 189 c 1
 332 223 332 223 297 230 c 0
 281 234 281 234 228 234 c 2
 91 235 l 1
 80 312 l 1
 272 312 l 2
 432 312 432 312 432 150 c 1
296 -136 m 0
 296 -177 296 -177 243 -177 c 0
 191 -177 191 -177 191 -136 c 0
 191 -115 191 -115 206 -101.5 c 0
 221 -88 221 -88 241 -88 c 0
 296 -88 296 -88 296 -136 c 0
147 -136 m 0
 147 -177 147 -177 93 -177 c 0
 43 -177 43 -177 43 -136 c 0
 43 -115 43 -115 56 -101.5 c 0
 69 -88 69 -88 91 -88 c 0
 113 -88 113 -88 129 -101 c 0
 147 -113 147 -113 147 -136 c 0
219 -246 m 0
 219 -288 219 -288 169 -288 c 0
 112 -288 112 -288 112 -246 c 0
 112 -199 112 -199 163 -199 c 0
 185 -199 185 -199 201 -210 c 0
 219 -224 219 -224 219 -246 c 0
EndSplineSet
EndChar

StartChar: uFB7D
Encoding: 53 64381 53
Width: 447
Flags: W
LayerCount: 2
Fore
SplineSet
459 0 m 1
 349 3 349 3 338 51 c 0
 332 70 332 70 327 91 c 1
 215 25 215 25 164 12 c 0
 118 0 118 0 -19 0 c 1
 -19 78 l 1
 132 78 132 78 195 107 c 0
 208 112 208 112 348 189 c 1
 332 223 332 223 297 230 c 0
 282 234 282 234 228 234 c 2
 91 235 l 1
 80 312 l 1
 272 312 l 2
 432 312 432 312 432 150 c 1
 359 110 l 1
 359 78 359 78 459 78 c 1
 459 0 l 1
306 -136 m 0
 306 -178 306 -178 256 -178 c 0
 202 -178 202 -178 202 -136 c 0
 202 -116 202 -116 216 -102.5 c 0
 230 -89 230 -89 250 -89 c 0
 273 -89 273 -89 289.5 -101 c 0
 306 -113 306 -113 306 -136 c 0
156 -136 m 0
 156 -178 156 -178 105 -178 c 0
 52 -178 52 -178 52 -136 c 0
 52 -116 52 -116 67 -102.5 c 0
 82 -89 82 -89 102 -89 c 0
 156 -89 156 -89 156 -136 c 0
228 -246 m 0
 228 -288 228 -288 178 -288 c 0
 123 -288 123 -288 123 -246 c 0
 123 -200 123 -200 173 -200 c 0
 228 -200 228 -200 228 -246 c 0
EndSplineSet
EndChar

StartChar: u062D
Encoding: 54 65185 54
Width: 479
Flags: W
LayerCount: 2
Fore
SplineSet
490 -377 m 1
 277 -377 l 2
 151 -377 151 -377 77 -288 c 0
 20 -222 20 -222 20 -136 c 2
 20 -119 l 2
 20 -117 20 -117 21 -103 c 0
 35 6 35 6 134 60 c 2
 373 190 l 1
 347 239 347 239 224 239 c 2
 200 239 l 1
 114 237 l 1
 114 235 l 1
 99 236 l 1
 104 237 104 237 114 237 c 1
 104 312 l 1
 292 312 l 2
 453 312 453 312 456 150 c 1
 199 8 l 2
 93 -51 93 -51 93 -138 c 0
 93 -200 93 -200 143 -250 c 0
 193 -300 193 -300 256 -300 c 2
 483 -300 l 1
 490 -377 l 1
EndSplineSet
EndChar

StartChar: uFEA2
Encoding: 55 65186 55
Width: 479
Flags: W
LayerCount: 2
Fore
SplineSet
499 0 m 1
 381 0 381 0 364 55 c 0
 360 66 360 66 354 91 c 1
 202 8 l 2
 97 -51 97 -51 97 -138 c 0
 97 -201 97 -201 146.5 -250.5 c 0
 196 -300 196 -300 260 -300 c 2
 487 -300 l 1
 494 -377 l 1
 279 -377 l 2
 155 -377 155 -377 80 -288 c 0
 22 -221 22 -221 22 -136 c 2
 22 -119 l 1
 24 -103 l 2
 37 6 37 6 137 60 c 2
 378 190 l 1
 360 223 360 223 325 229 c 0
 312 232 312 232 257 234 c 0
 220 235 220 235 117 235 c 1
 106 312 l 1
 295 312 l 2
 456 312 456 312 458 150 c 1
 387 110 l 1
 392 78 392 78 499 78 c 1
 499 0 l 1
EndSplineSet
EndChar

StartChar: uFEA3
Encoding: 56 65187 56
Width: 447
Flags: W
LayerCount: 2
Fore
SplineSet
432 150 m 1
 253 49 l 2
 193 15 193 15 122 6 c 0
 92 2 92 2 -19 0 c 1
 -19 78 l 1
 44 78 l 2
 129 78 129 78 203 110 c 0
 216 117 216 117 348 189 c 1
 334 220 334 220 294 229 c 0
 283 232 283 232 91 235 c 1
 80 312 l 1
 272 312 l 2
 431 312 431 312 432 150 c 1
EndSplineSet
EndChar

StartChar: uFEA4
Encoding: 57 65188 57
Width: 447
Flags: W
LayerCount: 2
Fore
SplineSet
459 0 m 1
 352 0 352 0 338 51 c 0
 335 61 335 61 332 72 c 2
 327 91 l 1
 223 28 223 28 164 13 c 0
 118 2 118 2 -19 0 c 1
 -19 78 l 1
 44 78 l 2
 127 78 127 78 203 110 c 0
 225 121 225 121 348 189 c 1
 334 221 334 221 294 229 c 0
 288 231 288 231 246 233 c 0
 226 233 226 233 91 235 c 1
 80 312 l 1
 272 312 l 2
 429 312 429 312 432 148 c 1
 359 110 l 1
 359 78 359 78 459 78 c 1
 459 0 l 1
EndSplineSet
EndChar

StartChar: u062E
Encoding: 58 65189 58
Width: 479
Flags: W
LayerCount: 2
Fore
SplineSet
328 453 m 0
 328 430 328 430 312.5 414 c 0
 297 398 297 398 274 398 c 0
 215 398 215 398 215 453 c 0
 215 499 215 499 271 499 c 0
 328 499 328 499 328 453 c 0
489 -377 m 1
 275 -377 l 2
 166 -377 166 -377 93 -309 c 0
 19 -241 19 -241 19 -131 c 0
 19 -4 19 -4 132 60 c 2
 371 190 l 1
 354 224 354 224 319 229 c 0
 287 235 287 235 111 235 c 1
 103 312 l 1
 291 312 l 2
 454 312 454 312 455 150 c 1
 197 8 l 2
 92 -51 92 -51 92 -138 c 0
 92 -201 92 -201 141.5 -250.5 c 0
 191 -300 191 -300 255 -300 c 2
 482 -300 l 1
 489 -377 l 1
EndSplineSet
EndChar

StartChar: uFEA6
Encoding: 59 65190 59
Width: 479
Flags: W
LayerCount: 2
Fore
SplineSet
320 453 m 0
 320 430 320 430 304.5 414 c 0
 289 398 289 398 267 398 c 0
 207 398 207 398 207 453 c 0
 207 500 207 500 264 500 c 0
 320 500 320 500 320 453 c 0
498 0 m 1
 427 2 427 2 403 16 c 0
 369 34 369 34 363 55 c 0
 359 69 359 69 353 91 c 1
 200 8 l 2
 96 -50 96 -50 96 -138 c 0
 96 -202 96 -202 145 -251 c 0
 194 -300 194 -300 259 -300 c 2
 486 -300 l 1
 492 -377 l 1
 279 -377 l 2
 169 -377 169 -377 96 -309 c 0
 21 -241 21 -241 21 -131 c 0
 21 -4 21 -4 136 60 c 2
 375 190 l 1
 342 242 342 242 203 239 c 0
 66 235 66 235 115 235 c 1
 105 312 l 1
 294 312 l 2
 457 312 457 312 457 150 c 1
 387 110 l 1
 396 87 396 87 436 80 c 0
 448 78 448 78 498 78 c 1
 498 0 l 1
EndSplineSet
EndChar

StartChar: uFEA7
Encoding: 60 65191 60
Width: 447
Flags: W
LayerCount: 2
Fore
SplineSet
281 451 m 0
 281 429 281 429 265 413 c 0
 249 397 249 397 228 397 c 0
 168 397 168 397 168 451 c 0
 168 498 168 498 225 498 c 0
 281 498 281 498 281 451 c 0
432 150 m 1
 253 49 l 2
 189 13 189 13 122 5 c 0
 87 0 87 0 -19 0 c 1
 -19 78 l 1
 132 78 132 78 195 107 c 0
 200 109 200 109 251 137 c 0
 283 154 283 154 348 189 c 1
 332 223 332 223 297 230 c 0
 281 234 281 234 228 234 c 2
 91 235 l 1
 80 312 l 1
 272 312 l 2
 432 312 432 312 432 150 c 1
EndSplineSet
EndChar

StartChar: uFEA8
Encoding: 61 65192 61
Width: 447
Flags: W
LayerCount: 2
Fore
SplineSet
264 464 m 0
 264 441 264 441 248 425 c 0
 232 409 232 409 209 409 c 0
 185 409 185 409 167.5 424 c 0
 150 439 150 439 150 464 c 0
 150 510 150 510 207 510 c 0
 264 510 264 510 264 464 c 0
459 0 m 1
 349 3 349 3 338 51 c 0
 332 70 332 70 327 91 c 1
 215 25 215 25 164 12 c 0
 118 0 118 0 -19 0 c 1
 -19 78 l 1
 132 78 132 78 195 107 c 0
 208 112 208 112 348 189 c 1
 332 223 332 223 297 230 c 0
 282 234 282 234 228 234 c 2
 91 235 l 1
 80 312 l 1
 272 312 l 2
 432 312 432 312 432 150 c 1
 359 110 l 1
 359 78 359 78 459 78 c 1
 459 0 l 1
EndSplineSet
EndChar

StartChar: u062F
Encoding: 62 65193 62
Width: 427
Flags: W
LayerCount: 2
Fore
SplineSet
409 103 m 0
 409 55 409 55 374 27 c 0
 342 0 342 0 294 0 c 2
 52 0 l 1
 41 78 l 1
 288 78 l 2
 332 78 332 78 332 108 c 0
 332 124 332 124 320 137 c 2
 145 323 l 1
 197 377 l 1
 373 189 l 2
 409 151 409 151 409 103 c 0
EndSplineSet
EndChar

StartChar: uFEAA
Encoding: 63 65194 63
Width: 508
Flags: W
LayerCount: 2
Fore
SplineSet
531 0 m 1
 495 0 l 2
 451 0 451 0 397 54 c 1
 361 0 361 0 293 0 c 2
 51 0 l 1
 40 78 l 1
 288 78 l 2
 331 78 331 78 331 107 c 0
 331 124 331 124 319 137 c 2
 144 323 l 1
 196 377 l 1
 431 128 l 2
 462 95 462 95 474 89 c 0
 493 78 493 78 531 78 c 1
 531 0 l 1
EndSplineSet
EndChar

StartChar: u0630
Encoding: 64 65195 64
Width: 427
Flags: W
LayerCount: 2
Fore
SplineSet
256 507 m 0
 256 484 256 484 240.5 468 c 0
 225 452 225 452 202 452 c 0
 143 452 143 452 143 507 c 0
 143 553 143 553 200 553 c 0
 256 553 256 553 256 507 c 0
407 104 m 0
 407 55 407 55 375 27 c 0
 343 0 343 0 293 0 c 2
 51 0 l 1
 40 78 l 1
 288 78 l 2
 331 78 331 78 331 108 c 0
 331 124 331 124 319 137 c 2
 144 323 l 1
 196 377 l 1
 372 189 l 2
 407 152 407 152 407 104 c 0
EndSplineSet
EndChar

StartChar: uFEAC
Encoding: 65 65196 65
Width: 508
Flags: W
LayerCount: 2
Fore
SplineSet
206 467 m 0
 206 444 206 444 190 428.5 c 0
 174 413 174 413 151 413 c 0
 92 413 92 413 92 467 c 0
 92 514 92 514 148 514 c 0
 206 514 206 514 206 467 c 0
531 0 m 1
 494 0 l 2
 450 0 450 0 397 54 c 1
 375 22 375 22 353 11 c 0
 331 0 331 0 293 0 c 2
 50 0 l 1
 39 78 l 1
 288 78 l 2
 330 78 330 78 330 107 c 0
 330 124 330 124 319 137 c 2
 143 323 l 1
 195 377 l 1
 430 128 l 2
 459 97 459 97 473 89 c 0
 492 78 492 78 531 78 c 1
 531 0 l 1
EndSplineSet
EndChar

StartChar: u0631
Encoding: 66 65197 66
Width: 378
Flags: W
LayerCount: 2
Fore
SplineSet
331 13 m 2
 331 -72 331 -72 277 -134 c 0
 223 -197 223 -197 136 -197 c 2
 31 -197 l 1
 20 -117 l 1
 107 -117 l 2
 164 -117 164 -117 204 -90 c 0
 251 -59 251 -59 251 -5 c 2
 251 245 l 1
 331 245 l 1
 331 13 l 2
EndSplineSet
EndChar

StartChar: uFEAE
Encoding: 67 65198 67
Width: 397
Flags: W
LayerCount: 2
Fore
SplineSet
410 0 m 1
 352 0 352 0 327 37 c 1
 327 -62 327 -62 278 -126 c 0
 225 -197 225 -197 129 -197 c 2
 28 -197 l 1
 16 -119 l 1
 123 -119 l 2
 173 -119 173 -119 209 -88 c 0
 247 -55 247 -55 247 -5 c 2
 247 245 l 1
 325 245 l 1
 325 132 l 2
 325 80 325 80 410 78 c 1
 410 0 l 1
EndSplineSet
EndChar

StartChar: u0632
Encoding: 68 65199 68
Width: 378
Flags: W
LayerCount: 2
Fore
SplineSet
327 457 m 0
 327 435 327 435 311.5 418.5 c 0
 296 402 296 402 272 402 c 0
 213 402 213 402 213 457 c 0
 213 505 213 505 270 505 c 0
 327 505 327 505 327 457 c 0
330 13 m 2
 330 -72 330 -72 276 -133 c 0
 221 -197 221 -197 135 -197 c 2
 31 -197 l 1
 19 -117 l 1
 106 -117 l 2
 163 -117 163 -117 203 -90 c 0
 249 -59 249 -59 249 -5 c 2
 249 245 l 1
 330 245 l 1
 330 13 l 2
EndSplineSet
EndChar

StartChar: uFEB0
Encoding: 69 65200 69
Width: 397
Flags: W
LayerCount: 2
Fore
SplineSet
322 453 m 0
 322 430 322 430 306.5 414 c 0
 291 398 291 398 268 398 c 0
 208 398 208 398 208 453 c 0
 208 499 208 499 266 499 c 0
 322 499 322 499 322 453 c 0
410 0 m 1
 349 1 349 1 327 37 c 1
 327 -62 327 -62 278 -126 c 0
 225 -197 225 -197 129 -197 c 2
 28 -197 l 1
 16 -119 l 1
 123 -119 l 2
 171 -119 171 -119 208 -87 c 0
 247 -53 247 -53 247 -5 c 2
 247 245 l 1
 325 245 l 1
 325 132 l 2
 325 78 325 78 410 78 c 1
 410 0 l 1
EndSplineSet
EndChar

StartChar: u0698
Encoding: 70 64394 70
Width: 399
Flags: W
LayerCount: 2
Fore
SplineSet
288 409 m 0
 266 409 266 409 249 422 c 0
 232 436 232 436 232 457 c 0
 232 499 232 499 286 499 c 0
 339 499 339 499 339 459 c 0
 339 437 339 437 324.5 423 c 0
 310 409 310 409 288 409 c 0
414 348 m 0
 414 326 414 326 399.5 312.5 c 0
 385 299 385 299 364 299 c 0
 341 299 341 299 325 312 c 0
 308 325 308 325 308 348 c 0
 308 388 308 388 358 388 c 0
 414 388 414 388 414 348 c 0
262 348 m 0
 262 327 262 327 247.5 313 c 0
 233 299 233 299 213 299 c 0
 190 299 190 299 173.5 312.5 c 0
 157 326 157 326 157 348 c 0
 157 388 157 388 208 388 c 0
 262 388 262 388 262 348 c 0
332 13 m 2
 332 -72 332 -72 278 -134 c 0
 223 -197 223 -197 137 -197 c 2
 32 -197 l 1
 21 -117 l 1
 108 -117 l 2
 165 -117 165 -117 205 -90 c 0
 252 -59 252 -59 252 -5 c 2
 252 245 l 1
 332 245 l 1
 332 13 l 2
EndSplineSet
EndChar

StartChar: uFB8B
Encoding: 71 64395 71
Width: 397
Flags: W
LayerCount: 2
Fore
SplineSet
322 459 m 0
 322 438 322 438 308 424.5 c 0
 294 411 294 411 272 411 c 0
 251 411 251 411 235 424.5 c 0
 219 438 219 438 219 459 c 0
 219 501 219 501 268 501 c 0
 322 501 322 501 322 459 c 0
398 349 m 0
 398 327 398 327 384 314 c 0
 370 301 370 301 349 301 c 0
 327 301 327 301 312 314 c 0
 295 327 295 327 295 349 c 0
 295 391 295 391 344 391 c 0
 398 391 398 391 398 349 c 0
248 349 m 0
 248 328 248 328 234 314.5 c 0
 220 301 220 301 199 301 c 0
 177 301 177 301 161 314 c 0
 145 327 145 327 145 349 c 0
 145 391 145 391 194 391 c 0
 248 391 248 391 248 349 c 0
410 0 m 1
 349 1 349 1 327 37 c 1
 327 -62 327 -62 278 -126 c 0
 225 -197 225 -197 129 -197 c 2
 28 -197 l 1
 16 -119 l 1
 123 -119 l 2
 171 -119 171 -119 208 -87 c 0
 247 -53 247 -53 247 -5 c 2
 247 245 l 1
 325 245 l 1
 325 132 l 2
 325 78 325 78 410 78 c 1
 410 0 l 1
EndSplineSet
EndChar

StartChar: u0633
Encoding: 72 65201 72
Width: 977
Flags: W
LayerCount: 2
Fore
SplineSet
937 125 m 2
 937 70 937 70 912 34 c 0
 884 -9 884 -9 832 -9 c 0
 778 -9 778 -9 723 46 c 1
 686 -9 686 -9 630 -9 c 0
 588 -9 588 -9 542 23 c 1
 542 -69 542 -69 493 -130 c 0
 439 -197 439 -197 349 -197 c 2
 229 -197 l 2
 146 -197 146 -197 90 -138 c 0
 37 -80 37 -80 37 5 c 2
 37 167 l 1
 112 167 l 1
 112 1 l 2
 112 -53 112 -53 148 -87 c 0
 184 -119 184 -119 239 -119 c 2
 340 -119 l 2
 395 -119 395 -119 429 -86 c 0
 463 -53 463 -53 463 1 c 2
 463 245 l 1
 541 245 l 1
 541 129 l 2
 541 103 541 103 561.5 84.5 c 0
 582 66 582 66 609 66 c 0
 663 66 663 66 663 115 c 2
 663 245 l 1
 740 245 l 1
 740 129 l 2
 740 104 740 104 759.5 85 c 0
 779 66 779 66 806 66 c 0
 861 66 861 66 861 115 c 2
 861 245 l 1
 937 245 l 1
 937 125 l 2
EndSplineSet
EndChar

StartChar: uFEB2
Encoding: 73 65202 73
Width: 997
Flags: W
LayerCount: 2
Fore
SplineSet
1013 0 m 1
 966 1 966 1 951 6 c 0
 921 13 921 13 904 42 c 1
 869 -9 869 -9 807 -9 c 0
 748 -9 748 -9 704 46 c 1
 662 -10 662 -10 605 -10 c 0
 563 -10 563 -10 526 23 c 1
 526 -68 526 -68 477 -130 c 0
 423 -197 423 -197 333 -197 c 2
 212 -197 l 2
 128 -197 128 -197 72 -138 c 0
 20 -80 20 -80 20 5 c 2
 20 167 l 1
 98 167 l 1
 98 1 l 2
 98 -52 98 -52 133 -85.5 c 0
 168 -119 168 -119 223 -119 c 2
 323 -119 l 2
 378 -119 378 -119 413 -86 c 0
 448 -53 448 -53 448 1 c 2
 448 245 l 1
 526 245 l 1
 526 129 l 2
 526 102 526 102 546 84 c 0
 566 66 566 66 593 66 c 0
 646 66 646 66 646 115 c 2
 646 245 l 1
 725 245 l 1
 725 129 l 2
 725 104 725 104 744.5 85 c 0
 764 66 764 66 790 66 c 0
 844 66 844 66 844 115 c 2
 844 245 l 1
 921 245 l 1
 921 125 l 2
 921 99 921 99 949 85 c 0
 958 82 958 82 1013 78 c 1
 1013 0 l 1
EndSplineSet
EndChar

StartChar: uFEB3
Encoding: 74 65203 74
Width: 631
Flags: W
LayerCount: 2
Fore
SplineSet
604 125 m 2
 604 67 604 67 576 31 c 0
 547 -10 547 -10 490 -10 c 0
 436 -10 436 -10 386 44 c 1
 340 -9 340 -9 290 -9 c 0
 237 -9 237 -9 184 54 c 1
 137 0 137 0 82 0 c 2
 -18 0 l 1
 -18 78 l 1
 76 78 l 2
 130 78 130 78 130 136 c 2
 130 245 l 1
 207 245 l 1
 207 129 l 2
 207 103 207 103 227 84.5 c 0
 247 66 247 66 275 66 c 0
 328 66 328 66 328 115 c 2
 328 245 l 1
 405 245 l 1
 405 129 l 2
 405 104 405 104 424.5 85 c 0
 444 66 444 66 472 66 c 0
 526 66 526 66 526 115 c 2
 526 245 l 1
 604 245 l 1
 604 125 l 2
EndSplineSet
EndChar

StartChar: uFEB4
Encoding: 75 65204 75
Width: 677
Flags: W
LayerCount: 2
Fore
SplineSet
689 0 m 1
 645 1 645 1 629 6 c 0
 598 14 598 14 583 42 c 1
 547 -10 547 -10 492 -10 c 0
 437 -10 437 -10 386 43 c 1
 340 -10 340 -10 271 -10 c 0
 208 -10 208 -10 167 47 c 1
 142 12 142 12 80 4 c 0
 52 0 52 0 -21 0 c 1
 -21 78 l 1
 44 78 l 2
 87 78 87 78 104 89 c 0
 126 104 126 104 126 146 c 2
 126 245 l 1
 203 245 l 1
 203 129 l 2
 203 103 203 103 222.5 84.5 c 0
 242 66 242 66 269 66 c 0
 322 66 322 66 322 115 c 2
 322 245 l 1
 399 245 l 1
 399 129 l 2
 399 104 399 104 420 85 c 0
 438 66 438 66 467 66 c 0
 521 66 521 66 521 115 c 2
 521 245 l 1
 598 245 l 1
 598 125 l 2
 598 98 598 98 626 85 c 0
 634 81 634 81 689 78 c 1
 689 0 l 1
EndSplineSet
EndChar

StartChar: u0634
Encoding: 76 65205 76
Width: 977
Flags: W
LayerCount: 2
Fore
SplineSet
746 457 m 0
 746 437 746 437 731.5 423.5 c 0
 717 410 717 410 696 410 c 0
 674 410 674 410 659 423 c 0
 643 437 643 437 643 457 c 0
 643 500 643 500 691 500 c 0
 746 500 746 500 746 457 c 0
823 348 m 0
 823 327 823 327 808 313.5 c 0
 793 300 793 300 772 300 c 0
 750 300 750 300 735 312 c 0
 719 326 719 326 719 348 c 0
 719 390 719 390 767 390 c 0
 823 390 823 390 823 348 c 0
672 348 m 0
 672 327 672 327 658 313.5 c 0
 644 300 644 300 623 300 c 0
 602 300 602 300 586 312 c 0
 568 326 568 326 568 348 c 0
 568 390 568 390 618 390 c 0
 672 390 672 390 672 348 c 0
937 125 m 2
 937 70 937 70 912 34 c 0
 884 -9 884 -9 832 -9 c 0
 774 -9 774 -9 723 46 c 1
 681 -9 681 -9 630 -9 c 0
 590 -9 590 -9 542 23 c 1
 541 -68 541 -68 492 -129 c 0
 437 -197 437 -197 349 -197 c 2
 229 -197 l 2
 146 -197 146 -197 91 -138 c 0
 37 -79 37 -79 37 5 c 2
 37 167 l 1
 112 167 l 1
 112 1 l 2
 112 -54 112 -54 148 -87 c 0
 183 -119 183 -119 239 -119 c 2
 340 -119 l 2
 394 -119 394 -119 428.5 -85.5 c 0
 463 -52 463 -52 463 1 c 2
 463 245 l 1
 541 245 l 1
 541 129 l 2
 541 103 541 103 561.5 84.5 c 0
 582 66 582 66 609 66 c 0
 663 66 663 66 663 115 c 2
 663 245 l 1
 740 245 l 1
 740 129 l 2
 740 103 740 103 759 84.5 c 0
 778 66 778 66 806 66 c 0
 861 66 861 66 861 115 c 2
 861 245 l 1
 937 245 l 1
 937 125 l 2
EndSplineSet
EndChar

StartChar: uFEB6
Encoding: 77 65206 77
Width: 997
Flags: W
LayerCount: 2
Fore
SplineSet
681 407 m 0
 657 407 657 407 642 420 c 0
 625 434 625 434 625 456 c 0
 625 498 625 498 677 498 c 0
 696 498 696 498 712 487 c 0
 729 476 729 476 729 458 c 0
 729 437 729 437 715 422 c 0
 701 407 701 407 681 407 c 0
805 345 m 0
 805 325 805 325 790 312 c 0
 775 299 775 299 755 299 c 0
 732 299 732 299 717 310 c 0
 700 323 700 323 700 345 c 0
 700 388 700 388 750 388 c 0
 805 388 805 388 805 345 c 0
653 345 m 0
 653 325 653 325 639 312 c 0
 625 299 625 299 605 299 c 0
 582 299 582 299 566 310 c 0
 549 323 549 323 549 345 c 0
 549 388 549 388 600 388 c 0
 653 388 653 388 653 345 c 0
1010 0 m 1
 981 0 l 2
 927 0 927 0 900 43 c 1
 864 -8 864 -8 804 -8 c 0
 742 -8 742 -8 701 47 c 1
 659 -10 659 -10 604 -10 c 0
 561 -10 561 -10 524 23 c 1
 522 -68 522 -68 474 -129 c 0
 419 -197 419 -197 330 -197 c 2
 209 -197 l 2
 126 -197 126 -197 70 -138 c 0
 17 -79 17 -79 17 5 c 2
 17 167 l 1
 95 167 l 1
 95 1 l 2
 95 -53 95 -53 129.5 -86 c 0
 164 -119 164 -119 220 -119 c 2
 320 -119 l 2
 374 -119 374 -119 410 -85.5 c 0
 446 -52 446 -52 446 1 c 2
 446 245 l 1
 524 245 l 1
 524 129 l 2
 524 103 524 103 543 84.5 c 0
 562 66 562 66 588 66 c 0
 644 66 644 66 644 115 c 2
 644 245 l 1
 722 245 l 1
 722 129 l 2
 722 103 722 103 741 84.5 c 0
 760 66 760 66 787 66 c 0
 842 66 842 66 842 115 c 2
 842 245 l 1
 919 245 l 1
 919 125 l 2
 919 78 919 78 1010 78 c 1
 1010 0 l 1
EndSplineSet
EndChar

StartChar: uFEB7
Encoding: 78 65207 78
Width: 631
Flags: W
LayerCount: 2
Fore
SplineSet
405 457 m 0
 405 437 405 437 390 423 c 0
 375 409 375 409 354 409 c 0
 333 409 333 409 317 423 c 0
 300 437 300 437 300 457 c 0
 300 499 300 499 350 499 c 0
 405 499 405 499 405 457 c 0
481 348 m 0
 481 326 481 326 466.5 312.5 c 0
 452 299 452 299 431 299 c 0
 409 299 409 299 393 312.5 c 0
 377 326 377 326 377 348 c 0
 377 388 377 388 426 388 c 0
 481 388 481 388 481 348 c 0
330 348 m 0
 330 327 330 327 315.5 313 c 0
 301 299 301 299 281 299 c 0
 260 299 260 299 243.5 312.5 c 0
 227 326 227 326 227 348 c 0
 227 388 227 388 277 388 c 0
 330 388 330 388 330 348 c 0
604 125 m 2
 604 69 604 69 576 32 c 0
 548 -9 548 -9 494 -9 c 0
 432 -9 432 -9 387 46 c 1
 341 -8 341 -8 291 -8 c 0
 234 -8 234 -8 185 55 c 1
 132 0 132 0 82 0 c 2
 -18 0 l 1
 -18 78 l 1
 76 78 l 2
 130 78 130 78 130 135 c 2
 130 244 l 1
 207 245 l 1
 207 129 l 2
 207 103 207 103 226 84.5 c 0
 245 66 245 66 273 66 c 0
 328 66 328 66 328 115 c 2
 328 245 l 1
 405 245 l 1
 405 129 l 2
 405 103 405 103 424.5 84.5 c 0
 444 66 444 66 472 66 c 0
 526 66 526 66 526 115 c 2
 526 245 l 1
 604 245 l 1
 604 125 l 2
EndSplineSet
EndChar

StartChar: uFEB8
Encoding: 79 65208 79
Width: 677
Flags: W
LayerCount: 2
Fore
SplineSet
338 432 m 0
 314 432 314 432 299 444 c 0
 281 458 281 458 281 479 c 0
 281 521 281 521 334 521 c 0
 354 521 354 521 369 512 c 0
 387 500 387 500 387 481 c 0
 387 461 387 461 373 446.5 c 0
 359 432 359 432 338 432 c 0
462 369 m 0
 462 349 462 349 447.5 335 c 0
 433 321 433 321 412 321 c 0
 390 321 390 321 373.5 334.5 c 0
 357 348 357 348 357 369 c 0
 357 411 357 411 407 411 c 0
 462 411 462 411 462 369 c 0
311 369 m 0
 311 349 311 349 296 335 c 0
 281 321 281 321 262 321 c 0
 240 321 240 321 224 334 c 0
 206 348 206 348 206 369 c 0
 206 411 206 411 257 411 c 0
 311 411 311 411 311 369 c 0
689 0 m 1
 659 0 l 1
 631 5 l 2
 600 10 600 10 581 43 c 1
 545 -9 545 -9 492 -9 c 0
 437 -9 437 -9 384 46 c 1
 337 -9 337 -9 272 -9 c 0
 208 -9 208 -9 167 48 c 1
 137 13 137 13 79 5 c 0
 52 0 52 0 -21 0 c 1
 -21 78 l 1
 50 78 l 2
 90 78 90 78 104 88 c 0
 126 104 126 104 126 146 c 2
 126 245 l 1
 203 245 l 1
 203 129 l 2
 203 102 203 102 223 84 c 0
 242 66 242 66 269 66 c 0
 322 66 322 66 322 115 c 2
 322 245 l 1
 399 245 l 1
 399 129 l 2
 399 103 399 103 418.5 84.5 c 0
 438 66 438 66 467 66 c 0
 521 66 521 66 521 115 c 2
 521 245 l 1
 598 245 l 1
 598 125 l 2
 598 78 598 78 689 78 c 1
 689 0 l 1
EndSplineSet
EndChar

StartChar: u0635
Encoding: 80 65209 80
Width: 986
Flags: W
LayerCount: 2
Fore
SplineSet
964 138 m 0
 964 73 964 73 927 36.5 c 0
 890 0 890 0 826 0 c 2
 614 0 l 2
 548 0 548 0 533 41 c 1
 533 -54 533 -54 485 -122 c 0
 430 -197 430 -197 339 -197 c 2
 220 -197 l 2
 135 -197 135 -197 79 -133 c 0
 27 -71 27 -71 27 13 c 2
 27 167 l 1
 104 167 l 1
 104 -5 l 2
 104 -49 104 -49 144 -84 c 0
 182 -117 182 -117 226 -117 c 2
 334 -117 l 2
 380 -117 380 -117 417 -85 c 0
 455 -50 455 -50 455 -5 c 2
 455 245 l 1
 534 245 l 1
 534 129 l 2
 534 80 534 80 607 78 c 1
 643 166 643 166 689 228 c 0
 755 312 755 312 826 312 c 0
 889 312 889 312 928 254 c 0
 935 244 935 244 943 229 c 0
 945 222 945 222 958 185 c 0
 964 167 964 167 964 138 c 0
889 149 m 0
 889 173 889 173 876 202 c 0
 861 234 861 234 842 234 c 0
 804 234 804 234 752 175 c 0
 711 127 711 127 689 78 c 1
 840 78 l 2
 889 78 889 78 889 149 c 0
EndSplineSet
EndChar

StartChar: uFEBA
Encoding: 81 65210 81
Width: 977
Flags: W
LayerCount: 2
Fore
SplineSet
990 0 m 1
 636 0 l 2
 548 0 548 0 531 41 c 1
 531 -63 531 -63 486 -125 c 0
 435 -197 435 -197 335 -197 c 2
 215 -197 l 2
 128 -197 128 -197 75 -134 c 0
 27 -75 27 -75 27 13 c 2
 27 167 l 1
 103 167 l 1
 103 -5 l 2
 103 -52 103 -52 137.5 -85.5 c 0
 172 -119 172 -119 222 -119 c 2
 330 -119 l 2
 376 -119 376 -119 414 -84.5 c 0
 452 -50 452 -50 452 -5 c 2
 452 245 l 1
 531 245 l 1
 531 129 l 2
 531 78 531 78 605 78 c 1
 698 312 698 312 820 312 c 0
 900 312 900 312 940 234 c 0
 958 200 958 200 958 146 c 0
 958 116 958 116 946 78 c 1
 990 78 l 1
 990 0 l 1
879 156 m 0
 879 233 879 233 832 233 c 0
 765 233 765 233 686 78 c 1
 835 78 l 2
 879 78 879 78 879 156 c 0
EndSplineSet
EndChar

StartChar: uFEBB
Encoding: 82 65211 82
Width: 671
Flags: W
LayerCount: 2
Fore
SplineSet
629 150 m 0
 629 118 629 118 618 83 c 0
 604 29 604 29 572 13 c 0
 548 0 548 0 492 0 c 2
 294 0 l 2
 213 0 213 0 183 63 c 1
 136 0 136 0 77 0 c 2
 -18 0 l 1
 -18 78 l 1
 69 78 l 2
 124 78 124 78 124 136 c 2
 124 245 l 1
 202 245 l 1
 202 145 l 2
 202 78 202 78 277 78 c 1
 367 312 367 312 492 312 c 0
 521 312 521 312 553 294 c 0
 629 251 629 251 629 150 c 0
551 153 m 0
 551 206 551 206 526 226 c 0
 517 233 517 233 503 233 c 0
 435 233 435 233 354 78 c 1
 507 78 l 2
 551 78 551 78 551 153 c 0
EndSplineSet
EndChar

StartChar: uFEBC
Encoding: 83 65212 83
Width: 677
Flags: W
LayerCount: 2
Fore
SplineSet
689 0 m 1
 294 0 l 2
 213 0 213 0 183 63 c 1
 136 0 136 0 77 0 c 2
 -18 0 l 1
 -18 78 l 1
 69 78 l 2
 124 78 124 78 124 136 c 2
 124 245 l 1
 202 245 l 1
 202 145 l 2
 202 78 202 78 277 78 c 1
 367 312 367 312 492 312 c 0
 523 312 523 312 554 294 c 0
 629 250 629 250 629 150 c 0
 629 121 629 121 616 78 c 1
 689 78 l 1
 689 0 l 1
551 153 m 0
 551 206 551 206 526 226 c 0
 517 233 517 233 503 233 c 0
 435 233 435 233 354 78 c 1
 507 78 l 2
 551 78 551 78 551 153 c 0
EndSplineSet
EndChar

StartChar: u0636
Encoding: 84 65213 84
Width: 986
Flags: W
LayerCount: 2
Fore
SplineSet
814 456 m 0
 814 435 814 435 798.5 418.5 c 0
 783 402 783 402 761 402 c 0
 702 402 702 402 702 456 c 0
 702 503 702 503 759 503 c 0
 814 503 814 503 814 456 c 0
964 138 m 0
 964 73 964 73 927.5 36.5 c 0
 891 0 891 0 826 0 c 2
 614 0 l 2
 545 0 545 0 533 41 c 1
 533 -53 533 -53 483 -121 c 0
 428 -197 428 -197 339 -197 c 2
 220 -197 l 2
 134 -197 134 -197 79 -133 c 0
 27 -72 27 -72 27 13 c 2
 27 167 l 1
 104 167 l 1
 104 -5 l 2
 104 -50 104 -50 143 -84 c 0
 181 -117 181 -117 226 -117 c 2
 334 -117 l 2
 377 -117 377 -117 416 -82.5 c 0
 455 -48 455 -48 455 -5 c 2
 455 245 l 1
 534 245 l 1
 534 129 l 2
 534 78 534 78 609 78 c 1
 706 312 706 312 827 312 c 0
 889 312 889 312 929 254 c 0
 964 203 964 203 964 138 c 0
890 147 m 0
 890 173 890 173 879 201 c 0
 863 234 863 234 842 234 c 0
 804 234 804 234 752 175 c 0
 710 126 710 126 689 78 c 1
 841 78 l 2
 890 78 890 78 890 147 c 0
EndSplineSet
EndChar

StartChar: uFEBE
Encoding: 85 65214 85
Width: 977
Flags: W
LayerCount: 2
Fore
SplineSet
808 450 m 0
 808 428 808 428 792 412.5 c 0
 776 397 776 397 754 397 c 0
 694 397 694 397 694 450 c 0
 694 497 694 497 751 497 c 0
 808 497 808 497 808 450 c 0
990 0 m 1
 635 0 l 2
 543 0 543 0 531 41 c 1
 529 -63 529 -63 485 -125 c 0
 434 -197 434 -197 334 -197 c 2
 214 -197 l 2
 129 -197 129 -197 75 -133 c 0
 26 -73 26 -73 26 13 c 2
 26 167 l 1
 102 167 l 1
 102 -5 l 2
 102 -51 102 -51 137.5 -85 c 0
 173 -119 173 -119 220 -119 c 2
 329 -119 l 2
 373 -119 373 -119 412 -83.5 c 0
 451 -48 451 -48 451 -5 c 2
 451 245 l 1
 529 245 l 1
 529 129 l 2
 529 78 529 78 604 78 c 1
 701 312 701 312 819 312 c 0
 849 312 849 312 882 294 c 0
 957 251 957 251 957 148 c 0
 957 111 957 111 944 78 c 1
 990 78 l 1
 990 0 l 1
878 153 m 0
 878 233 878 233 830 233 c 0
 793 233 793 233 744 173 c 0
 706 128 706 128 686 78 c 1
 834 78 l 2
 878 78 878 78 878 153 c 0
EndSplineSet
EndChar

StartChar: uFEBF
Encoding: 86 65215 86
Width: 671
Flags: W
LayerCount: 2
Fore
SplineSet
444 462 m 0
 444 438 444 438 427.5 422.5 c 0
 411 407 411 407 389 407 c 0
 331 407 331 407 331 462 c 0
 331 508 331 508 387 508 c 0
 444 508 444 508 444 462 c 0
629 151 m 0
 629 118 629 118 618 83 c 0
 604 29 604 29 572 13 c 0
 549 0 549 0 492 0 c 2
 294 0 l 2
 216 0 216 0 183 63 c 1
 136 0 136 0 76 0 c 2
 -18 0 l 1
 -18 78 l 1
 69 78 l 2
 124 78 124 78 124 135 c 2
 124 244 l 1
 202 245 l 1
 202 145 l 2
 202 78 202 78 277 78 c 1
 374 312 374 312 494 312 c 0
 524 312 524 312 554 294 c 0
 629 249 629 249 629 151 c 0
503 233 m 0
 464 233 464 233 415 174 c 0
 378 129 378 129 354 78 c 1
 506 78 l 2
 549 78 549 78 549 150 c 0
 549 233 549 233 503 233 c 0
EndSplineSet
EndChar

StartChar: uFEC0
Encoding: 87 65216 87
Width: 677
Flags: W
LayerCount: 2
Fore
SplineSet
446 463 m 0
 446 440 446 440 429.5 424.5 c 0
 413 409 413 409 391 409 c 0
 332 409 332 409 332 463 c 0
 332 510 332 510 388 510 c 0
 446 510 446 510 446 463 c 0
689 0 m 1
 294 0 l 2
 216 0 216 0 183 63 c 1
 136 0 136 0 76 0 c 2
 -18 0 l 1
 -18 78 l 1
 69 78 l 2
 124 78 124 78 124 135 c 2
 124 244 l 1
 202 245 l 1
 202 145 l 2
 202 78 202 78 277 78 c 1
 374 312 374 312 494 312 c 0
 525 312 525 312 554 294 c 0
 627 248 627 248 627 150 c 0
 627 113 627 113 615 78 c 1
 689 78 l 1
 689 0 l 1
503 233 m 0
 464 233 464 233 415 174 c 0
 378 129 378 129 354 78 c 1
 506 78 l 2
 549 78 549 78 549 150 c 0
 549 233 549 233 503 233 c 0
EndSplineSet
EndChar

StartChar: u0637
Encoding: 88 65217 88
Width: 457
Flags: W
LayerCount: 2
Fore
SplineSet
431 139 m 0
 431 81 431 81 397 42 c 0
 363 0 363 0 306 0 c 2
 35 0 l 1
 20 78 l 1
 85 78 l 1
 85 500 l 1
 161 500 l 1
 161 223 l 1
 235 312 235 312 296 312 c 0
 356 312 356 312 396 254 c 0
 431 203 431 203 431 139 c 0
351 160 m 0
 351 233 351 233 304 233 c 0
 265 233 265 233 216 173 c 0
 180 129 180 129 155 78 c 1
 306 78 l 2
 325 78 325 78 340 103 c 0
 351 120 351 120 351 160 c 0
EndSplineSet
EndChar

StartChar: uFEC2
Encoding: 89 65218 89
Width: 452
Flags: W
LayerCount: 2
Fore
SplineSet
460 0 m 1
 32 0 l 1
 18 78 l 1
 85 78 l 1
 85 500 l 1
 161 500 l 1
 161 223 l 1
 234 312 234 312 296 312 c 0
 320 312 320 312 354 294 c 0
 429 252 429 252 429 135 c 0
 429 109 429 109 418 78 c 1
 460 78 l 1
 460 0 l 1
351 160 m 0
 351 233 351 233 304 233 c 0
 265 233 265 233 216 173 c 0
 180 129 180 129 155 78 c 1
 306 78 l 2
 325 78 325 78 340 103 c 0
 351 120 351 120 351 160 c 0
EndSplineSet
EndChar

StartChar: uFEC3
Encoding: 90 65219 90
Width: 427
Flags: W
LayerCount: 2
Fore
SplineSet
272 0 m 2
 -16 0 l 1
 -16 78 l 1
 51 78 l 1
 51 500 l 1
 129 500 l 1
 129 223 l 1
 204 311 204 311 263 311 c 0
 323 311 323 311 362 258 c 0
 397 208 397 208 397 146 c 0
 397 83 397 83 367 44 c 0
 334 0 334 0 272 0 c 2
269 232 m 0
 230 232 230 232 182 173 c 0
 142 126 142 126 121 77 c 1
 272 77 l 2
 318 77 318 77 318 148 c 0
 318 232 318 232 269 232 c 0
EndSplineSet
EndChar

StartChar: uFEC4
Encoding: 91 65220 91
Width: 411
Flags: W
LayerCount: 2
Fore
SplineSet
419 0 m 1
 -21 0 l 1
 -21 78 l 1
 35 78 l 1
 35 500 l 1
 110 500 l 1
 110 223 l 1
 186 312 186 312 247 312 c 0
 272 312 272 312 305 294 c 0
 378 253 378 253 378 147 c 0
 378 106 378 106 367 78 c 1
 419 78 l 1
 419 0 l 1
302 160 m 0
 302 233 302 233 255 233 c 0
 217 233 217 233 167 173 c 0
 129 129 129 129 106 78 c 1
 258 78 l 2
 276 78 276 78 291 103 c 0
 302 120 302 120 302 160 c 0
EndSplineSet
EndChar

StartChar: u0638
Encoding: 92 65221 92
Width: 457
Flags: W
LayerCount: 2
Fore
SplineSet
363 457 m 0
 363 435 363 435 347.5 418.5 c 0
 332 402 332 402 310 402 c 0
 249 402 249 402 249 457 c 0
 249 505 249 505 308 505 c 0
 363 505 363 505 363 457 c 0
305 0 m 2
 34 0 l 1
 19 78 l 1
 85 78 l 1
 85 500 l 1
 161 500 l 1
 161 223 l 1
 232 312 232 312 295 312 c 0
 354 312 354 312 394 257 c 0
 430 206 430 206 430 146 c 0
 430 84 430 84 398 44 c 0
 365 0 365 0 305 0 c 2
350 155 m 0
 350 233 350 233 303 233 c 0
 265 233 265 233 215 174 c 0
 175 127 175 127 154 78 c 1
 305 78 l 2
 350 78 350 78 350 155 c 0
EndSplineSet
EndChar

StartChar: uFEC6
Encoding: 93 65222 93
Width: 452
Flags: W
LayerCount: 2
Fore
SplineSet
359 456 m 0
 359 435 359 435 343 418.5 c 0
 327 402 327 402 306 402 c 0
 247 402 247 402 247 456 c 0
 247 503 247 503 303 503 c 0
 359 503 359 503 359 456 c 0
460 0 m 1
 31 0 l 1
 18 78 l 1
 85 78 l 1
 85 500 l 1
 161 500 l 1
 161 223 l 1
 232 312 232 312 295 312 c 0
 322 312 322 312 353 294 c 0
 429 248 429 248 429 163 c 0
 429 110 429 110 417 78 c 1
 460 78 l 1
 460 0 l 1
350 155 m 0
 350 233 350 233 303 233 c 0
 265 233 265 233 215 174 c 0
 175 127 175 127 154 78 c 1
 305 78 l 2
 350 78 350 78 350 155 c 0
EndSplineSet
EndChar

StartChar: uFEC7
Encoding: 94 65223 94
Width: 427
Flags: W
LayerCount: 2
Fore
SplineSet
322 449 m 0
 322 427 322 427 306.5 411 c 0
 291 395 291 395 268 395 c 0
 209 395 209 395 209 449 c 0
 209 495 209 495 266 495 c 0
 322 495 322 495 322 449 c 0
272 0 m 2
 -16 0 l 1
 -16 78 l 1
 51 78 l 1
 51 500 l 1
 129 500 l 1
 129 223 l 1
 204 311 204 311 263 311 c 0
 323 311 323 311 362 258 c 0
 397 208 397 208 397 146 c 0
 397 83 397 83 367 44 c 0
 334 0 334 0 272 0 c 2
269 232 m 0
 230 232 230 232 182 173 c 0
 142 126 142 126 121 77 c 1
 272 77 l 2
 318 77 318 77 318 148 c 0
 318 232 318 232 269 232 c 0
EndSplineSet
EndChar

StartChar: uFEC8
Encoding: 95 65224 95
Width: 411
Flags: W
LayerCount: 2
Fore
SplineSet
327 463 m 0
 327 440 327 440 311 423.5 c 0
 295 407 295 407 272 407 c 0
 213 407 213 407 213 463 c 0
 213 509 213 509 269 509 c 0
 327 509 327 509 327 463 c 0
419 0 m 1
 -22 0 l 1
 -21 78 l 1
 35 78 l 1
 35 500 l 1
 110 500 l 1
 110 223 l 1
 183 312 183 312 246 312 c 0
 275 312 275 312 304 294 c 0
 378 247 378 247 378 163 c 0
 378 111 378 111 367 78 c 1
 419 78 l 1
 419 0 l 1
301 155 m 0
 301 233 301 233 254 233 c 0
 216 233 216 233 166 174 c 0
 126 127 126 127 105 78 c 1
 256 78 l 2
 301 78 301 78 301 155 c 0
EndSplineSet
EndChar

StartChar: u0639
Encoding: 96 65225 96
Width: 473
Flags: W
LayerCount: 2
Fore
SplineSet
462 -377 m 1
 258 -377 l 2
 149 -377 149 -377 77 -311 c 0
 3 -243 3 -243 3 -137 c 0
 3 11 3 11 167 85 c 1
 142 130 142 130 142 178 c 0
 142 243 142 243 187 279 c 0
 228 312 228 312 295 312 c 0
 353 312 353 312 423 253 c 1
 387 193 l 1
 320 239 320 239 279 239 c 0
 235 239 235 239 224 196 c 0
 224 195 224 195 222.5 189.5 c 0
 221 184 221 184 220 180 c 2
 220 166 l 2
 220 134 220 134 235 108 c 0
 254 78 254 78 283 78 c 2
 438 78 l 1
 449 0 l 1
 190 0 l 2
 139 0 139 0 108 -44 c 0
 82 -83 82 -83 82 -138 c 0
 82 -209 82 -209 125.5 -254.5 c 0
 169 -300 169 -300 240 -300 c 2
 451 -300 l 1
 462 -377 l 1
EndSplineSet
EndChar

StartChar: uFECA
Encoding: 97 65226 97
Width: 483
Flags: W
LayerCount: 2
Fore
SplineSet
500 0 m 1
 421 0 421 0 386 7 c 0
 319 19 319 19 284 58 c 1
 97 -21 97 -21 97 -141 c 0
 97 -200 97 -200 148 -253 c 0
 196 -300 196 -300 255 -300 c 2
 482 -300 l 1
 490 -377 l 1
 275 -377 l 2
 171 -377 171 -377 96.5 -306 c 0
 22 -235 22 -235 22 -131 c 0
 22 23 22 23 227 110 c 1
 123 213 l 1
 148 259 148 259 176 312 c 1
 342 312 l 2
 423 312 423 312 445 255 c 0
 452 237 452 237 452 226 c 0
 452 178 452 178 425 145 c 0
 404 121 404 121 353 92 c 1
 388 78 388 78 500 78 c 1
 500 0 l 1
373 213 m 0
 373 224 373 224 359 230 c 0
 348 236 348 236 335 236 c 2
 212 236 l 1
 299 146 l 1
 373 187 373 187 373 213 c 0
EndSplineSet
EndChar

StartChar: uFECB
Encoding: 98 65227 98
Width: 392
Flags: W
LayerCount: 2
Fore
SplineSet
375 0 m 1
 -18 0 l 1
 -18 78 l 1
 93 78 l 1
 69 134 69 134 69 179 c 0
 69 223 69 223 95 257.5 c 0
 121 292 121 292 163 304 c 0
 191 312 191 312 229 312 c 0
 290 312 290 312 348 254 c 1
 310 193 l 1
 248 241 248 241 205 241 c 0
 144 241 144 241 144 165 c 0
 144 132 144 132 159 107 c 0
 177 78 177 78 207 78 c 2
 362 78 l 1
 375 0 l 1
EndSplineSet
EndChar

StartChar: uFECC
Encoding: 99 65228 99
Width: 360
Flags: W
LayerCount: 2
Fore
SplineSet
373 0 m 1
 301 0 301 0 271 9 c 0
 230 18 230 18 183 57 c 1
 133 17 133 17 85 5 c 0
 73 2 73 2 -19 0 c 1
 -19 78 l 1
 90 78 90 78 118 106 c 1
 10 213 l 1
 35 259 35 259 62 312 c 1
 229 312 l 2
 310 312 310 312 332 256 c 0
 339 237 339 237 339 226 c 0
 339 178 339 178 312 147 c 0
 296 128 296 128 245 96 c 1
 291 78 291 78 373 78 c 1
 373 0 l 1
254 212 m 0
 254 223 254 223 241 229 c 0
 229 236 229 236 219 236 c 2
 93 236 l 1
 180 146 l 1
 254 185 254 185 254 212 c 0
EndSplineSet
EndChar

StartChar: u063A
Encoding: 100 65229 100
Width: 473
Flags: W
LayerCount: 2
Fore
SplineSet
358 456 m 0
 358 433 358 433 342.5 416.5 c 0
 327 400 327 400 304 400 c 0
 245 400 245 400 245 456 c 0
 245 502 245 502 302 502 c 0
 358 502 358 502 358 456 c 0
462 -377 m 1
 258 -377 l 2
 150 -377 150 -377 78 -310 c 0
 3 -241 3 -241 3 -137 c 0
 3 10 3 10 167 85 c 1
 141 133 141 133 141 171 c 0
 141 235 141 235 180.5 273.5 c 0
 220 312 220 312 282 312 c 0
 354 312 354 312 423 253 c 1
 386 193 l 1
 321 239 321 239 279 239 c 0
 219 239 219 239 219 168 c 0
 219 133 219 133 232 108 c 0
 250 78 250 78 282 78 c 2
 437 78 l 1
 448 0 l 1
 189 0 l 2
 138 0 138 0 108 -45 c 0
 82 -84 82 -84 82 -138 c 0
 82 -209 82 -209 124 -254.5 c 0
 166 -300 166 -300 239 -300 c 2
 450 -300 l 1
 462 -377 l 1
EndSplineSet
EndChar

StartChar: uFECE
Encoding: 101 65230 101
Width: 483
Flags: W
LayerCount: 2
Fore
SplineSet
363 453 m 0
 363 430 363 430 347.5 414 c 0
 332 398 332 398 310 398 c 0
 249 398 249 398 249 453 c 0
 249 499 249 499 308 499 c 0
 363 499 363 499 363 453 c 0
501 78 m 1
 500 0 l 1
 430 2 l 2
 331 6 331 6 283 58 c 1
 96 -26 96 -26 96 -141 c 0
 96 -202 96 -202 144 -251 c 0
 192 -300 192 -300 254 -300 c 2
 482 -300 l 1
 490 -377 l 1
 275 -377 l 2
 170 -377 170 -377 97 -308 c 0
 22 -238 22 -238 22 -134 c 0
 22 29 22 29 227 110 c 1
 123 213 l 1
 148 259 148 259 176 312 c 1
 342 312 l 2
 426 312 426 312 446 255 c 0
 452 239 452 239 452 226 c 0
 452 213 452 213 448 187 c 0
 442 144 442 144 354 92 c 1
 392 78 392 78 501 78 c 1
373 214 m 1
 369 224 l 1
 355 236 355 236 335 236 c 2
 212 236 l 1
 299 146 l 1
 373 186 373 186 373 214 c 1
EndSplineSet
EndChar

StartChar: uFECF
Encoding: 102 65231 102
Width: 392
Flags: W
LayerCount: 2
Fore
SplineSet
260 451 m 0
 260 429 260 429 244 413 c 0
 228 397 228 397 205 397 c 0
 146 397 146 397 146 451 c 0
 146 498 146 498 203 498 c 0
 260 498 260 498 260 451 c 0
375 0 m 1
 -18 0 l 1
 -18 78 l 1
 93 78 l 1
 68 129 68 129 68 174 c 0
 68 236 68 236 108 274 c 0
 148 312 148 312 210 312 c 0
 287 312 287 312 348 254 c 1
 310 193 l 1
 245 241 245 241 206 241 c 0
 144 241 144 241 144 167 c 0
 144 133 144 133 158 108 c 0
 176 78 176 78 207 78 c 2
 362 78 l 1
 375 0 l 1
EndSplineSet
EndChar

StartChar: uFED0
Encoding: 103 65232 103
Width: 360
Flags: W
LayerCount: 2
Fore
SplineSet
219 463 m 0
 219 440 219 440 202.5 424.5 c 0
 186 409 186 409 164 409 c 0
 105 409 105 409 105 463 c 0
 105 510 105 510 161 510 c 0
 219 510 219 510 219 463 c 0
373 0 m 1
 307 0 307 0 272 9 c 0
 229 20 229 20 183 57 c 1
 120 6 120 6 62 1 c 0
 48 0 48 0 27 0 c 2
 -20 0 l 1
 -19 78 l 1
 91 80 91 80 118 106 c 1
 49 177 49 177 10 213 c 1
 38 263 38 263 62 312 c 1
 229 312 l 2
 312 312 312 312 334 256 c 0
 341 237 341 237 341 226 c 0
 341 219 341 219 338 187 c 0
 332 146 332 146 246 96 c 1
 296 78 296 78 373 78 c 1
 373 0 l 1
254 212 m 1
 249 224 l 2
 245 236 245 236 219 236 c 2
 93 236 l 1
 180 146 l 1
 254 186 254 186 254 212 c 1
EndSplineSet
EndChar

StartChar: u0641
Encoding: 104 65233 104
Width: 696
Flags: W
LayerCount: 2
Fore
SplineSet
578 467 m 0
 578 444 578 444 562.5 428.5 c 0
 547 413 547 413 524 413 c 0
 466 413 466 413 466 467 c 0
 466 514 466 514 521 514 c 0
 578 514 578 514 578 467 c 0
666 137 m 0
 666 81 666 81 634 42 c 0
 601 0 601 0 546 0 c 2
 139 0 l 2
 89 0 89 0 57 39 c 0
 28 75 28 75 28 127 c 2
 28 245 l 1
 105 245 l 1
 105 138 l 2
 105 104 105 104 117.5 91 c 0
 130 78 130 78 163 78 c 2
 536 78 l 2
 572 78 572 78 581 91 c 0
 586 98 586 98 592 137 c 1
 481 137 481 137 453 146 c 0
 390 169 390 169 390 254 c 0
 390 312 390 312 429 346 c 0
 466 377 466 377 524 377 c 0
 586 377 586 377 626 333 c 0
 664 292 664 292 665 229 c 0
 666 166 666 166 666 137 c 0
590 209 m 1
 590 247 590 247 570 271 c 0
 550 300 550 300 514 300 c 0
 456 300 456 300 456 248 c 0
 456 210 456 210 517 209 c 2
 590 209 l 1
EndSplineSet
EndChar

StartChar: uFED2
Encoding: 105 65234 105
Width: 702
Flags: W
LayerCount: 2
Fore
SplineSet
590 457 m 0
 590 435 590 435 574 418.5 c 0
 558 402 558 402 535 402 c 0
 476 402 476 402 476 457 c 0
 476 503 476 503 533 503 c 0
 590 503 590 503 590 457 c 0
712 0 m 1
 576 0 576 0 545 18 c 1
 533 1 533 1 396 1 c 0
 377 1 377 1 266 0 c 2
 136 0 l 2
 89 0 89 0 59 41 c 0
 31 78 31 78 31 127 c 2
 31 245 l 1
 110 245 l 1
 110 138 l 2
 110 78 110 78 168 78 c 2
 438 78 l 1
 395 127 395 127 395 185 c 0
 395 243 395 243 437 278 c 0
 477 312 477 312 535 312 c 0
 596 312 596 312 631 268 c 0
 666 229 666 229 666 167 c 0
 666 118 666 118 637 78 c 1
 712 78 l 1
 712 0 l 1
594 167 m 0
 594 195 594 195 575 215.5 c 0
 556 236 556 236 528 236 c 0
 505 236 505 236 486.5 219 c 0
 468 202 468 202 468 178 c 0
 468 132 468 132 547 95 c 1
 594 124 594 124 594 167 c 0
EndSplineSet
EndChar

StartChar: uFED3
Encoding: 106 65235 106
Width: 397
Flags: W
LayerCount: 2
Fore
SplineSet
248 476 m 0
 248 454 248 454 232 438 c 0
 216 422 216 422 193 422 c 0
 136 422 136 422 136 476 c 0
 136 522 136 522 190 522 c 0
 248 522 248 522 248 476 c 0
348 123 m 2
 350 72 350 72 310 35 c 0
 271 0 271 0 222 0 c 2
 -13 0 l 1
 -13 78 l 1
 223 78 l 2
 265 78 265 78 265 136 c 1
 203 137 203 137 127 144 c 1
 62 167 62 167 62 249 c 0
 62 307 62 307 97.5 342 c 0
 133 377 133 377 189 377 c 0
 237 377 237 377 275 352 c 0
 338 312 338 312 342 222 c 2
 348 123 l 2
260 209 m 1
 257 296 257 296 187 296 c 0
 135 296 135 296 135 255 c 0
 135 223 135 223 154 214 c 0
 163 210 163 210 203 210 c 2
 260 209 l 1
EndSplineSet
EndChar

StartChar: uFED4
Encoding: 107 65236 107
Width: 371
Flags: W
LayerCount: 2
Fore
SplineSet
241 451 m 0
 241 429 241 429 225 413 c 0
 209 397 209 397 187 397 c 0
 129 397 129 397 129 451 c 0
 129 498 129 498 185 498 c 0
 241 498 241 498 241 451 c 0
392 0 m 1
 384 2 384 2 347 2 c 2
 269 4 l 2
 229 4 229 4 194 21 c 1
 159 0 159 0 -28 0 c 1
 -28 78 l 1
 88 78 l 1
 46 126 46 126 46 182 c 0
 46 243 46 243 85 277 c 0
 123 312 123 312 186 312 c 0
 243 312 243 312 280 271 c 0
 315 231 315 231 315 172 c 0
 315 118 315 118 288 78 c 1
 392 78 l 1
 392 0 l 1
244 167 m 0
 244 192 244 192 225 214 c 0
 206 236 206 236 181 236 c 0
 154 236 154 236 136 219.5 c 0
 118 203 118 203 118 177 c 0
 118 129 118 129 197 95 c 1
 244 129 244 129 244 167 c 0
EndSplineSet
EndChar

StartChar: u0642
Encoding: 108 65237 108
Width: 581
Flags: W
LayerCount: 2
Fore
SplineSet
519 321 m 0
 519 301 519 301 504.5 288.5 c 0
 490 276 490 276 470 276 c 0
 414 276 414 276 414 321 c 0
 414 365 414 365 465 365 c 0
 519 365 519 365 519 321 c 0
368 321 m 0
 368 301 368 301 354 288.5 c 0
 340 276 340 276 319 276 c 0
 264 276 264 276 264 321 c 0
 264 365 264 365 314 365 c 0
 368 365 368 365 368 321 c 0
544 15 m 2
 544 -2 544 -2 539 -48 c 0
 533 -118 533 -118 477 -164 c 0
 423 -208 423 -208 350 -208 c 2
 231 -208 l 2
 145 -208 145 -208 92 -148 c 0
 42 -90 42 -90 42 -3 c 2
 42 152 l 1
 115 152 l 1
 115 -6 l 2
 115 -60 115 -60 149 -97 c 0
 183 -134 183 -134 236 -134 c 2
 345 -134 l 2
 399 -134 399 -134 436 -94 c 0
 468 -57 468 -57 469 0 c 1
 359 0 359 0 330 10 c 0
 267 30 267 30 267 116 c 0
 267 172 267 172 305 205 c 0
 341 237 341 237 398 237 c 0
 465 237 465 237 505 192 c 0
 544 149 544 149 544 84 c 2
 544 15 l 2
468 71 m 1
 468 108 468 108 447 133 c 0
 427 161 427 161 391 161 c 0
 336 161 336 161 336 116 c 0
 336 69 336 69 409 69 c 0
 448 69 448 69 468 71 c 1
EndSplineSet
EndChar

StartChar: uFED6
Encoding: 109 65238 109
Width: 586
Flags: W
LayerCount: 2
Fore
SplineSet
501 335 m 0
 501 314 501 314 487 301 c 0
 473 288 473 288 452 288 c 0
 397 288 397 288 397 335 c 0
 397 378 397 378 447 378 c 0
 501 378 501 378 501 335 c 0
351 335 m 0
 351 314 351 314 336 301 c 0
 321 288 321 288 301 288 c 0
 246 288 246 288 246 335 c 0
 246 378 246 378 297 378 c 0
 351 378 351 378 351 335 c 0
601 0 m 1
 536 0 l 1
 536 -82 536 -82 478 -139.5 c 0
 420 -197 420 -197 339 -197 c 2
 217 -197 l 2
 138 -197 138 -197 84 -136 c 0
 29 -76 29 -76 29 4 c 2
 29 167 l 1
 108 167 l 1
 108 -5 l 2
 108 -49 108 -49 153 -86 c 0
 190 -117 190 -117 232 -117 c 2
 334 -117 l 2
 385 -117 385 -117 419.5 -83.5 c 0
 454 -50 454 -50 458 0 c 1
 347 0 347 0 316 10 c 0
 247 36 247 36 247 123 c 0
 247 181 247 181 290 214 c 0
 329 245 329 245 388 245 c 0
 456 245 456 245 498 195 c 0
 537 148 537 148 538 78 c 1
 601 78 l 1
 601 0 l 1
460 78 m 1
 460 115 460 115 437.5 140 c 0
 415 165 415 165 378 165 c 0
 323 165 323 165 323 126 c 0
 323 95 323 95 350 85 c 0
 363 78 363 78 460 78 c 1
EndSplineSet
EndChar

StartChar: uFED7
Encoding: 110 65239 110
Width: 397
Flags: W
LayerCount: 2
Fore
SplineSet
318 460 m 0
 318 440 318 440 303 427 c 0
 288 414 288 414 268 414 c 0
 214 414 214 414 214 460 c 0
 214 503 214 503 264 503 c 0
 318 503 318 503 318 460 c 0
168 460 m 0
 168 440 168 440 154 427 c 0
 140 414 140 414 119 414 c 0
 65 414 65 414 65 460 c 0
 65 503 65 503 114 503 c 0
 168 503 168 503 168 460 c 0
348 123 m 2
 350 72 350 72 310 35 c 0
 271 0 271 0 222 0 c 2
 -13 0 l 1
 -13 78 l 1
 223 78 l 2
 265 78 265 78 265 136 c 1
 203 137 203 137 127 144 c 1
 62 167 62 167 62 249 c 0
 62 307 62 307 97.5 342 c 0
 133 377 133 377 189 377 c 0
 237 377 237 377 275 352 c 0
 338 312 338 312 342 222 c 2
 348 123 l 2
260 209 m 1
 257 296 257 296 187 296 c 0
 135 296 135 296 135 255 c 0
 135 223 135 223 154 214 c 0
 163 210 163 210 203 210 c 2
 260 209 l 1
EndSplineSet
EndChar

StartChar: uFED8
Encoding: 111 65240 111
Width: 371
Flags: W
LayerCount: 2
Fore
SplineSet
300 462 m 0
 300 441 300 441 285.5 428.5 c 0
 271 416 271 416 251 416 c 0
 196 416 196 416 196 462 c 0
 196 505 196 505 246 505 c 0
 300 505 300 505 300 462 c 0
150 462 m 0
 150 441 150 441 136 428.5 c 0
 122 416 122 416 102 416 c 0
 48 416 48 416 48 462 c 0
 48 505 48 505 97 505 c 0
 150 505 150 505 150 462 c 0
392 0 m 1
 384 2 384 2 347 2 c 2
 269 4 l 2
 229 4 229 4 194 21 c 1
 159 0 159 0 -28 0 c 1
 -28 78 l 1
 88 78 l 1
 46 126 46 126 46 182 c 0
 46 243 46 243 85 277 c 0
 123 312 123 312 186 312 c 0
 243 312 243 312 280 271 c 0
 315 231 315 231 315 172 c 0
 315 118 315 118 288 78 c 1
 392 78 l 1
 392 0 l 1
244 167 m 0
 244 192 244 192 225 214 c 0
 206 236 206 236 181 236 c 0
 154 236 154 236 136 219.5 c 0
 118 203 118 203 118 177 c 0
 118 129 118 129 197 95 c 1
 244 129 244 129 244 167 c 0
EndSplineSet
EndChar

StartChar: u0643
Encoding: 112 65241 112
Width: 696
Flags: W
LayerCount: 2
Fore
SplineSet
666 105 m 0
 666 57 666 57 628 28 c 0
 593 0 593 0 545 0 c 2
 143 0 l 2
 92 0 92 0 62 39 c 0
 31 76 31 76 31 127 c 2
 31 245 l 1
 109 245 l 1
 109 138 l 2
 109 104 109 104 121.5 91 c 0
 134 78 134 78 167 78 c 2
 541 78 l 2
 583 78 583 78 583 114 c 0
 583 130 583 130 570 144 c 2
 366 354 l 1
 354 444 l 1
 640 547 l 1
 649 468 l 1
 444 388 l 1
 627 195 l 2
 666 155 666 155 666 105 c 0
EndSplineSet
EndChar

StartChar: uFEDA
Encoding: 113 64399 113
Width: 764
Flags: W
LayerCount: 2
Fore
SplineSet
784 0 m 1
 695 0 695 0 654 56 c 1
 633 0 633 0 554 0 c 2
 145 0 l 2
 95 0 95 0 63 39 c 0
 32 76 32 76 32 127 c 2
 32 245 l 1
 110 245 l 1
 110 138 l 2
 110 104 110 104 123.5 91 c 0
 137 78 137 78 169 78 c 2
 551 78 l 2
 590 78 590 78 590 106 c 0
 590 122 590 122 570 142 c 2
 367 354 l 1
 353 442 l 1
 642 547 l 1
 651 468 l 1
 448 392 l 1
 666 150 l 1
 722 95 l 2
 735 80 735 80 784 78 c 1
 784 0 l 1
EndSplineSet
EndChar

StartChar: uFEDB
Encoding: 114 64400 114
Width: 366
Flags: W
LayerCount: 2
Fore
SplineSet
348 106 m 0
 348 0 348 0 229 0 c 2
 -15 0 l 1
 -15 78 l 1
 229 78 l 2
 260 78 260 78 260 114 c 0
 260 131 260 131 249 142 c 2
 48 354 l 1
 34 442 l 1
 320 547 l 1
 332 468 l 1
 129 392 l 1
 290 213 l 2
 308 193 308 193 333 150 c 0
 348 128 348 128 348 106 c 0
EndSplineSet
EndChar

StartChar: uFEDC
Encoding: 115 64401 115
Width: 437
Flags: W
LayerCount: 2
Fore
SplineSet
462 0 m 1
 361 0 361 0 320 57 c 1
 298 0 298 0 213 0 c 2
 -19 0 l 1
 -19 78 l 1
 214 78 l 2
 245 78 245 78 245 118 c 0
 245 132 245 132 236 142 c 2
 32 354 l 1
 19 442 l 1
 306 547 l 1
 316 468 l 1
 112 392 l 1
 328 153 l 2
 365 112 365 112 387 100 c 0
 417 79 417 79 462 78 c 1
 462 0 l 1
EndSplineSet
EndChar

StartChar: u06AF
Encoding: 116 64402 116
Width: 696
Flags: W
LayerCount: 2
Fore
SplineSet
627 591 m 1
 354 492 l 1
 351 521 l 1
 626 620 l 1
 627 591 l 1
674 104 m 0
 674 52 674 52 638 25 c 0
 606 0 606 0 553 0 c 2
 150 0 l 2
 102 0 102 0 69 39 c 0
 39 76 39 76 39 127 c 2
 39 245 l 1
 117 245 l 1
 117 138 l 2
 117 104 117 104 130 91 c 0
 143 78 143 78 177 78 c 2
 557 78 l 2
 572 78 572 78 584.5 88.5 c 0
 597 99 597 99 597 112 c 0
 597 124 597 124 590 131 c 2
 373 354 l 1
 358 442 l 1
 646 547 l 1
 657 468 l 1
 456 391 l 1
 636 190 l 2
 674 148 674 148 674 104 c 0
EndSplineSet
EndChar

StartChar: uFB93
Encoding: 117 64403 117
Width: 764
Flags: W
LayerCount: 2
Fore
SplineSet
615 591 m 1
 344 492 l 1
 340 521 l 1
 613 620 l 1
 615 591 l 1
778 0 m 1
 690 0 690 0 648 56 c 1
 629 0 629 0 548 0 c 2
 139 0 l 2
 89 0 89 0 57 39 c 0
 28 75 28 75 28 127 c 2
 28 245 l 1
 105 245 l 1
 105 138 l 2
 105 104 105 104 117.5 91 c 0
 130 78 130 78 163 78 c 2
 545 78 l 2
 584 78 584 78 584 107 c 0
 584 123 584 123 565 142 c 2
 360 354 l 1
 348 442 l 1
 635 547 l 1
 646 468 l 1
 442 392 l 1
 659 150 l 1
 714 95 l 2
 729 80 729 80 778 78 c 1
 778 0 l 1
EndSplineSet
EndChar

StartChar: uFB94
Encoding: 118 64404 118
Width: 371
Flags: W
LayerCount: 2
Fore
SplineSet
286 591 m 1
 13 492 l 1
 10 521 l 1
 284 620 l 1
 286 591 l 1
333 104 m 0
 333 54 333 54 295 26 c 0
 261 0 261 0 209 0 c 2
 -19 0 l 1
 -19 78 l 1
 209 78 l 2
 254 78 254 78 254 107 c 0
 254 123 254 123 240 139 c 2
 31 354 l 1
 18 442 l 1
 306 547 l 1
 316 468 l 1
 110 390 l 1
 312 168 l 2
 333 144 333 144 333 104 c 0
EndSplineSet
EndChar

StartChar: uFB95
Encoding: 119 64405 119
Width: 447
Flags: W
LayerCount: 2
Fore
SplineSet
295 591 m 1
 22 492 l 1
 19 521 l 1
 293 620 l 1
 295 591 l 1
457 0 m 1
 360 0 360 0 320 62 c 1
 294 0 294 0 223 0 c 2
 -10 0 l 1
 -10 78 l 1
 224 78 l 2
 263 78 263 78 263 107 c 0
 263 123 263 123 244 142 c 2
 40 354 l 1
 28 442 l 1
 314 547 l 1
 327 468 l 1
 118 390 l 1
 336 150 l 2
 359 126 359 126 405 86 c 1
 424 76 424 76 457 78 c 1
 457 0 l 1
EndSplineSet
EndChar

StartChar: u0644
Encoding: 120 65245 120
Width: 591
Flags: W
LayerCount: 2
Fore
SplineSet
548 10 m 2
 548 -78 548 -78 495 -137 c 0
 440 -197 440 -197 353 -197 c 2
 233 -197 l 2
 155 -197 155 -197 98 -135 c 0
 41 -74 41 -74 41 4 c 2
 41 167 l 1
 119 167 l 1
 119 -5 l 2
 119 -53 119 -53 160 -86 c 0
 198 -117 198 -117 247 -117 c 2
 348 -117 l 2
 396 -117 396 -117 432 -86 c 0
 470 -51 470 -51 470 -5 c 2
 470 500 l 1
 548 500 l 1
 548 10 l 2
EndSplineSet
EndChar

StartChar: uFEDE
Encoding: 121 65246 121
Width: 610
Flags: W
LayerCount: 2
Fore
SplineSet
627 0 m 1
 564 0 564 0 539 37 c 1
 539 -62 539 -62 491 -126 c 0
 437 -197 437 -197 342 -197 c 2
 223 -197 l 2
 142 -197 142 -197 87 -136 c 0
 34 -77 34 -77 34 4 c 2
 34 167 l 1
 110 167 l 1
 110 -5 l 2
 110 -55 110 -55 148 -88 c 0
 185 -119 185 -119 236 -119 c 2
 338 -119 l 2
 388 -119 388 -119 424 -88 c 0
 460 -55 460 -55 460 -5 c 2
 460 500 l 1
 538 500 l 1
 538 132 l 2
 538 79 538 79 627 78 c 1
 627 0 l 1
EndSplineSet
EndChar

StartChar: uFEDF
Encoding: 122 65247 122
Width: 224
Flags: W
LayerCount: 2
Fore
SplineSet
168 119 m 2
 168 63 168 63 135 31.5 c 0
 102 0 102 0 44 0 c 2
 -16 0 l 1
 -16 78 l 1
 46 78 46 78 37 77 c 1
 74 80 74 80 85 97 c 0
 91 106 91 106 91 153 c 2
 91 500 l 1
 168 500 l 1
 168 119 l 2
EndSplineSet
EndChar

StartChar: uFEE0
Encoding: 123 65248 123
Width: 260
Flags: W
LayerCount: 2
Fore
SplineSet
275 0 m 1
 252 0 l 2
 176 0 176 0 139 29 c 1
 110 8 110 8 88 3 c 0
 73 0 73 0 -15 0 c 1
 -15 78 l 1
 10 77 10 77 41 77 c 0
 78 77 78 77 90 98 c 0
 99 110 99 110 99 153 c 2
 99 500 l 1
 177 500 l 1
 177 138 l 2
 177 95 177 95 203 85 c 0
 214 80 214 80 275 78 c 1
 275 0 l 1
EndSplineSet
EndChar

StartChar: u0645
Encoding: 124 65249 124
Width: 498
Flags: W
LayerCount: 2
Fore
SplineSet
471 128 m 0
 471 69 471 69 431.5 33.5 c 0
 392 -2 392 -2 332 -2 c 0
 271 -2 271 -2 234 39 c 0
 197 79 197 79 197 141 c 2
 197 235 l 1
 184 236 184 236 182 236 c 0
 150 236 150 236 129.5 212 c 0
 109 188 109 188 109 158 c 2
 109 -197 l 1
 32 -197 l 1
 32 148 l 2
 32 224 32 224 72 267 c 0
 112 312 112 312 187 312 c 2
 347 312 l 2
 425 312 425 312 452 255 c 0
 471 217 471 217 471 128 c 0
395 145 m 0
 395 208 395 208 382 220 c 0
 367 232 367 232 272 235 c 1
 272 127 l 2
 272 104 272 104 295 89 c 0
 314 76 314 76 338 76 c 0
 395 76 395 76 395 145 c 0
EndSplineSet
EndChar

StartChar: uFEE2
Encoding: 125 65250 125
Width: 534
Flags: W
LayerCount: 2
Fore
SplineSet
555 0 m 1
 507 0 507 0 487 10 c 0
 462 20 462 20 437 57 c 1
 413 -5 413 -5 339 -5 c 0
 275 -5 275 -5 235 35 c 0
 195 75 195 75 195 141 c 2
 195 235 l 1
 160 235 160 235 135 215 c 0
 108 192 108 192 108 158 c 2
 108 -197 l 1
 31 -197 l 1
 31 148 l 2
 31 225 31 225 69 268 c 0
 110 312 110 312 186 312 c 2
 344 312 l 2
 469 312 469 312 469 129 c 0
 469 79 469 79 555 78 c 1
 555 0 l 1
393 144 m 0
 393 203 393 203 380 217 c 0
 363 234 363 234 271 235 c 1
 271 126 l 2
 271 102 271 102 290 86 c 0
 308 73 308 73 333 73 c 0
 393 73 393 73 393 144 c 0
EndSplineSet
EndChar

StartChar: uFEE3
Encoding: 126 65251 126
Width: 366
Flags: W
LayerCount: 2
Fore
SplineSet
339 146 m 0
 339 79 339 79 306 36 c 0
 269 -10 269 -10 203 -10 c 0
 153 -10 153 -10 115 19 c 1
 77 2 77 2 -17 0 c 1
 -17 78 l 1
 50 78 50 78 61 91 c 0
 64 95 64 95 66 150 c 0
 69 312 69 312 205 312 c 0
 271 312 271 312 308 260 c 0
 339 214 339 214 339 146 c 0
271 150 m 0
 271 235 271 235 203 235 c 0
 135 235 135 235 135 148 c 0
 135 66 135 66 203 66 c 0
 271 66 271 66 271 150 c 0
EndSplineSet
EndChar

StartChar: uFEE4
Encoding: 127 65252 127
Width: 392
Flags: W
LayerCount: 2
Fore
SplineSet
403 0 m 1
 365 0 365 0 348 8 c 0
 325 17 325 17 308 46 c 1
 273 -10 273 -10 200 -10 c 0
 172 -10 172 -10 142 6 c 0
 112 22 112 22 98 46 c 1
 89 1 89 1 -21 0 c 1
 -21 78 l 1
 45 78 45 78 56 91 c 0
 62 98 62 98 62 150 c 0
 62 223 62 223 95 265 c 0
 132 312 132 312 202 312 c 0
 265 312 265 312 301 262 c 0
 334 217 334 217 335 150 c 0
 336 126 336 126 336 119 c 0
 339 91 339 91 357 84 c 0
 366 80 366 80 403 78 c 1
 403 0 l 1
265 152 m 0
 265 235 265 235 199 235 c 0
 129 235 129 235 129 148 c 0
 129 66 129 66 199 66 c 0
 265 66 265 66 265 152 c 0
EndSplineSet
EndChar

StartChar: u0646
Encoding: 128 65253 128
Width: 581
Flags: W
LayerCount: 2
Fore
SplineSet
316 263 m 0
 316 241 316 241 300.5 225 c 0
 285 209 285 209 262 209 c 0
 204 209 204 209 204 263 c 0
 204 310 204 310 260 310 c 0
 316 310 316 310 316 263 c 0
537 12 m 2
 537 -79 537 -79 485 -137 c 0
 431 -197 431 -197 341 -197 c 2
 222 -197 l 2
 141 -197 141 -197 86 -136 c 0
 32 -77 32 -77 32 4 c 2
 32 167 l 1
 109 167 l 1
 109 -5 l 2
 109 -54 109 -54 148 -88 c 0
 185 -119 185 -119 235 -119 c 2
 336 -119 l 2
 387 -119 387 -119 423 -87 c 0
 459 -55 459 -55 459 -5 c 2
 459 245 l 1
 537 245 l 1
 537 12 l 2
EndSplineSet
EndChar

StartChar: uFEE6
Encoding: 129 65254 129
Width: 591
Flags: W
LayerCount: 2
Fore
SplineSet
319 263 m 0
 319 241 319 241 303.5 225 c 0
 288 209 288 209 265 209 c 0
 206 209 206 209 206 263 c 0
 206 310 206 310 263 310 c 0
 319 310 319 310 319 263 c 0
625 0 m 1
 561 0 561 0 538 37 c 1
 538 -62 538 -62 490 -126 c 0
 437 -197 437 -197 341 -197 c 2
 222 -197 l 2
 141 -197 141 -197 86 -136 c 0
 32 -77 32 -77 32 4 c 2
 32 167 l 1
 109 167 l 1
 109 -5 l 2
 109 -55 109 -55 148 -88 c 0
 185 -119 185 -119 235 -119 c 2
 336 -119 l 2
 387 -119 387 -119 423 -87 c 0
 459 -55 459 -55 459 -5 c 2
 459 245 l 1
 537 245 l 1
 537 132 l 2
 537 79 537 79 625 78 c 1
 625 0 l 1
EndSplineSet
EndChar

StartChar: uFEE7
Encoding: 130 65255 130
Width: 254
Flags: W
LayerCount: 2
Fore
SplineSet
148 367 m 0
 148 345 148 345 132.5 328.5 c 0
 117 312 117 312 94 312 c 0
 35 312 35 312 35 367 c 0
 35 414 35 414 91 414 c 0
 148 414 148 414 148 367 c 0
226 127 m 2
 226 76 226 76 194 39 c 0
 162 0 162 0 111 0 c 2
 -16 0 l 1
 -16 78 l 1
 107 78 107 78 121 83 c 0
 147 92 147 92 147 152 c 0
 147 168 147 168 146.5 198.5 c 0
 146 229 146 229 146 245 c 1
 226 245 l 1
 226 127 l 2
EndSplineSet
EndChar

StartChar: uFEE8
Encoding: 131 65256 131
Width: 305
Flags: W
LayerCount: 2
Fore
SplineSet
148 367 m 0
 148 345 148 345 132.5 328.5 c 0
 117 312 117 312 94 312 c 0
 35 312 35 312 35 367 c 0
 35 414 35 414 91 414 c 0
 148 414 148 414 148 367 c 0
319 0 m 1
 293 0 l 2
 220 0 220 0 185 29 c 1
 146 0 146 0 109 0 c 2
 -19 0 l 1
 -19 78 l 1
 103 78 103 78 117 84 c 0
 144 92 144 92 144 152 c 0
 144 168 144 168 143.5 198.5 c 0
 143 229 143 229 143 245 c 1
 223 245 l 1
 223 138 l 2
 223 80 223 80 319 78 c 1
 319 0 l 1
EndSplineSet
EndChar

StartChar: u0648
Encoding: 132 65261 132
Width: 387
Flags: W
LayerCount: 2
Fore
SplineSet
339 -10 m 2
 339 -88 339 -88 280.5 -142.5 c 0
 222 -197 222 -197 143 -197 c 2
 42 -197 l 1
 31 -119 l 1
 129 -119 l 2
 186 -119 186 -119 222.5 -87 c 0
 259 -55 259 -55 261 0 c 1
 163 0 163 0 119 26 c 0
 60 61 60 61 60 150 c 0
 60 248 60 248 106 288 c 0
 135 312 135 312 202 312 c 0
 290 312 290 312 320 238 c 0
 339 191 339 191 339 88 c 2
 339 -10 l 2
261 78 m 1
 261 158 l 2
 261 234 261 234 200 234 c 0
 163 234 163 234 148 209 c 0
 141 190 141 190 141 148 c 0
 141 100 141 100 180 86 c 0
 201 78 201 78 261 78 c 1
EndSplineSet
EndChar

StartChar: uFEEE
Encoding: 133 65262 133
Width: 387
Flags: W
LayerCount: 2
Fore
SplineSet
398 0 m 1
 348 0 l 1
 348 -86 348 -86 289.5 -141.5 c 0
 231 -197 231 -197 146 -197 c 2
 46 -197 l 1
 34 -119 l 1
 132 -119 l 2
 188 -119 188 -119 225 -87 c 0
 262 -55 262 -55 264 0 c 1
 167 0 167 0 122 27 c 0
 62 62 62 62 62 150 c 0
 62 248 62 248 109 288 c 0
 137 312 137 312 203 312 c 0
 296 312 296 312 327 234 c 0
 346 188 346 188 348 78 c 1
 398 78 l 1
 398 0 l 1
267 78 m 1
 267 151 l 2
 267 185 267 185 251 208 c 0
 233 234 233 234 203 234 c 0
 165 234 165 234 151 209 c 0
 143 190 143 190 143 148 c 0
 143 100 143 100 184 86 c 0
 206 78 206 78 267 78 c 1
EndSplineSet
EndChar

StartChar: u0647
Encoding: 134 65257 134
Width: 351
Flags: W
LayerCount: 2
Fore
SplineSet
328 132 m 0
 328 71 328 71 282 30 c 0
 238 -10 238 -10 176 -10 c 0
 111 -10 111 -10 70 34 c 0
 29 78 29 78 29 143 c 0
 29 209 29 209 119 299 c 1
 97 323 l 1
 148 377 l 1
 292 229 l 2
 328 190 328 190 328 132 c 0
251 137 m 0
 251 161 251 161 239 174 c 2
 176 241 l 1
 105 174 105 174 105 135 c 0
 105 104 105 104 127.5 85 c 0
 150 66 150 66 183 66 c 0
 212 66 212 66 231.5 86 c 0
 251 106 251 106 251 137 c 0
EndSplineSet
EndChar

StartChar: uFEEA
Encoding: 135 65258 135
Width: 447
Flags: W
LayerCount: 2
Fore
SplineSet
463 0 m 1
 412 0 412 0 388 13 c 0
 377 21 377 21 308 85 c 1
 263 -10 263 -10 164 -10 c 0
 100 -10 100 -10 58 32.5 c 0
 16 75 16 75 16 141 c 0
 16 208 16 208 106 299 c 1
 85 323 l 1
 137 377 l 1
 370 128 l 2
 401 95 401 95 409 90 c 0
 427 80 427 80 463 78 c 1
 463 0 l 1
240 135 m 0
 240 163 240 163 225 178 c 2
 163 241 l 1
 126 206 126 206 116 194 c 0
 93 165 93 165 93 135 c 0
 93 104 93 104 113.5 85 c 0
 134 66 134 66 165 66 c 0
 195 66 195 66 217.5 85.5 c 0
 240 105 240 105 240 135 c 0
EndSplineSet
EndChar

StartChar: uFEEB
Encoding: 136 65259 136
Width: 508
Flags: W
LayerCount: 2
Fore
SplineSet
475 104 m 0
 475 52 475 52 436 11 c 0
 397 -30 397 -30 347 -30 c 0
 284 -30 284 -30 186 28 c 1
 135 2 135 2 73 1 c 2
 -13 0 l 1
 -13 78 l 1
 95 78 l 1
 52 134 52 134 52 186 c 0
 52 241 52 241 87.5 276.5 c 0
 123 312 123 312 180 312 c 0
 229 312 229 312 272 271 c 1
 223 323 l 1
 280 377 l 1
 475 190 475 190 475 104 c 0
392 99 m 0
 392 146 392 146 288 249 c 1
 312 224 312 224 312 176 c 0
 312 102 312 102 265 76 c 1
 309 50 309 50 341 50 c 0
 392 50 392 50 392 99 c 0
238 181 m 0
 238 206 238 206 218.5 223.5 c 0
 199 241 199 241 171 241 c 0
 149 241 149 241 138 224 c 0
 125 207 125 207 125 186 c 0
 125 135 125 135 187 110 c 1
 238 132 238 132 238 181 c 0
EndSplineSet
EndChar

StartChar: uFEEC
Encoding: 137 65260 137
Width: 347
Flags: W
LayerCount: 2
Fore
SplineSet
360 0 m 1
 262 0 l 1
 319 -39 319 -39 319 -114 c 0
 319 -205 319 -205 204 -205 c 0
 65 -205 65 -205 52 -86 c 2
 44 0 l 1
 -23 0 l 1
 -23 78 l 1
 40 78 l 1
 34 158 34 158 34 165 c 0
 34 311 34 311 181 311 c 0
 239 311 239 311 274 278 c 0
 312 244 312 244 312 187 c 0
 312 121 312 121 260 78 c 1
 360 78 l 1
 360 0 l 1
239 187 m 0
 239 239 239 239 187 239 c 0
 111 239 111 239 111 140 c 0
 111 133 111 133 114 78 c 1
 164 78 164 78 200 107 c 0
 239 139 239 139 239 187 c 0
254 -90 m 0
 254 -46 254 -46 206 -18 c 0
 165 7 165 7 116 7 c 1
 116 -139 116 -139 195 -139 c 0
 254 -139 254 -139 254 -90 c 0
EndSplineSet
EndChar

StartChar: u0629
Encoding: 138 65171 138
Width: 351
Flags: W
LayerCount: 2
Fore
SplineSet
203 475 m 1
 70 407 l 1
 60 429 l 1
 104 453 l 1
 66 476 66 476 66 510 c 0
 66 539 66 539 83 558 c 0
 100 577 100 577 128 577 c 0
 139 577 139 577 165 567 c 1
 155 547 l 1
 143 554 143 554 131 554 c 0
 89 554 89 554 89 510 c 0
 89 476 89 476 122 476 c 0
 148 476 148 476 190 497 c 1
 203 475 l 1
328 132 m 0
 328 71 328 71 282 30 c 0
 238 -10 238 -10 176 -10 c 0
 111 -10 111 -10 70 34 c 0
 29 78 29 78 29 143 c 0
 29 209 29 209 119 299 c 1
 97 323 l 1
 148 377 l 1
 292 229 l 2
 328 190 328 190 328 132 c 0
251 137 m 0
 251 161 251 161 239 174 c 2
 176 241 l 1
 105 174 105 174 105 135 c 0
 105 104 105 104 127.5 85 c 0
 150 66 150 66 183 66 c 0
 212 66 212 66 231.5 86 c 0
 251 106 251 106 251 137 c 0
EndSplineSet
EndChar

StartChar: uFE94
Encoding: 139 64421 139
Width: 447
Flags: W
LayerCount: 2
Fore
SplineSet
195 495 m 1
 63 429 l 1
 52 450 l 1
 98 476 l 1
 58 496 58 496 58 531 c 0
 58 559 58 559 75.5 578.5 c 0
 93 598 93 598 121 598 c 0
 139 598 139 598 158 590 c 1
 148 568 l 1
 135 575 135 575 125 575 c 0
 106 575 106 575 94 562.5 c 0
 82 550 82 550 82 531 c 0
 82 496 82 496 116 496 c 0
 142 496 142 496 184 519 c 1
 195 495 l 1
463 0 m 1
 412 0 412 0 388 13 c 0
 377 21 377 21 308 85 c 1
 263 -10 263 -10 164 -10 c 0
 100 -10 100 -10 58 32.5 c 0
 16 75 16 75 16 141 c 0
 16 208 16 208 106 299 c 1
 85 323 l 1
 137 377 l 1
 370 128 l 2
 401 95 401 95 409 90 c 0
 427 80 427 80 463 78 c 1
 463 0 l 1
240 135 m 0
 240 163 240 163 225 178 c 2
 163 241 l 1
 126 206 126 206 116 194 c 0
 93 165 93 165 93 135 c 0
 93 104 93 104 113.5 85 c 0
 134 66 134 66 165 66 c 0
 195 66 195 66 217.5 85.5 c 0
 240 105 240 105 240 135 c 0
EndSplineSet
EndChar

StartChar: u064A
Encoding: 140 65265 140
Width: 559
Flags: W
LayerCount: 2
Fore
SplineSet
531 4 m 0
 531 -110 531 -110 448 -165 c 0
 399 -197 399 -197 340 -197 c 2
 220 -197 l 2
 139 -197 139 -197 85 -136 c 0
 34 -77 34 -77 34 4 c 2
 34 165 l 1
 107 165 l 1
 107 -5 l 2
 107 -57 107 -57 146 -90 c 0
 183 -121 183 -121 234 -121 c 2
 335 -121 l 2
 381 -121 381 -121 417 -91 c 0
 456 -60 456 -60 456 -15 c 0
 456 24 456 24 403 36 c 0
 389 39 389 39 384 39 c 2
 275 39 l 1
 275 173 l 2
 275 233 275 233 314 272.5 c 0
 353 312 353 312 413 312 c 2
 507 312 l 1
 510 239 l 1
 417 239 l 2
 374 239 374 239 358 202 c 0
 351 183 351 183 349 111 c 1
 441 111 441 111 472 102 c 0
 531 78 531 78 531 4 c 0
EndSplineSet
EndChar

StartChar: uFEF2
Encoding: 141 64509 141
Width: 559
Flags: W
LayerCount: 2
Fore
SplineSet
572 0 m 1
 499 0 l 1
 503 -38 l 1
 503 -106 503 -106 451 -152 c 0
 401 -197 401 -197 332 -197 c 2
 212 -197 l 2
 120 -197 120 -197 66 -129 c 0
 19 -67 19 -67 19 28 c 2
 19 167 l 1
 97 167 l 1
 97 -3 l 2
 97 -59 97 -59 136 -90 c 0
 171 -119 171 -119 229 -119 c 2
 329 -119 l 2
 370 -119 370 -119 397 -97 c 0
 427 -73 427 -73 427 -31 c 0
 427 -8 427 -8 354 -1 c 0
 342 0 342 0 264 0 c 1
 258 78 l 1
 572 78 l 1
 572 0 l 1
EndSplineSet
EndChar

StartChar: uFEF3
Encoding: 142 64510 142
Width: 295
Flags: W
LayerCount: 2
Fore
SplineSet
263 127 m 2
 263 76 263 76 232 39 c 0
 201 0 201 0 150 0 c 2
 -16 0 l 1
 -16 78 l 1
 127 78 l 2
 160 78 160 78 172.5 91 c 0
 185 104 185 104 185 138 c 2
 185 245 l 1
 263 245 l 1
 263 127 l 2
249 -149 m 0
 249 -169 249 -169 235 -182 c 0
 221 -195 221 -195 200 -195 c 0
 179 -195 179 -195 163 -184 c 0
 146 -170 146 -170 146 -149 c 0
 146 -106 146 -106 195 -106 c 0
 249 -106 249 -106 249 -149 c 0
100 -149 m 0
 100 -169 100 -169 85 -182 c 0
 70 -195 70 -195 50 -195 c 0
 28 -195 28 -195 13 -184 c 0
 -4 -170 -4 -170 -4 -149 c 0
 -4 -106 -4 -106 46 -106 c 0
 100 -106 100 -106 100 -149 c 0
EndSplineSet
EndChar

StartChar: uFEF4
Encoding: 143 64511 143
Width: 320
Flags: W
LayerCount: 2
Fore
SplineSet
336 0 m 1
 288 0 288 0 265 4 c 0
 246 11 246 11 225 29 c 1
 187 0 187 0 150 0 c 2
 -18 0 l 1
 -18 78 l 1
 127 78 l 2
 160 78 160 78 172.5 91 c 0
 185 104 185 104 185 138 c 2
 185 245 l 1
 263 245 l 1
 263 138 l 2
 263 100 263 100 281 87 c 0
 295 78 295 78 336 78 c 1
 336 0 l 1
267 -148 m 0
 267 -169 267 -169 252.5 -181.5 c 0
 238 -194 238 -194 219 -194 c 0
 196 -194 196 -194 181 -184 c 0
 163 -169 163 -169 163 -148 c 0
 163 -105 163 -105 213 -105 c 0
 267 -105 267 -105 267 -148 c 0
117 -148 m 0
 117 -169 117 -169 103 -181.5 c 0
 89 -194 89 -194 68 -194 c 0
 47 -194 47 -194 30 -184 c 0
 13 -169 13 -169 13 -148 c 0
 13 -105 13 -105 63 -105 c 0
 117 -105 117 -105 117 -148 c 0
EndSplineSet
EndChar

StartChar: u0649
Encoding: 144 65263 144
Width: 559
Flags: W
LayerCount: 2
Fore
SplineSet
531 4 m 0
 531 -110 531 -110 448 -165 c 0
 399 -197 399 -197 340 -197 c 2
 220 -197 l 2
 139 -197 139 -197 85 -136 c 0
 34 -77 34 -77 34 4 c 2
 34 165 l 1
 107 165 l 1
 107 -5 l 2
 107 -57 107 -57 146 -90 c 0
 183 -121 183 -121 234 -121 c 2
 335 -121 l 2
 381 -121 381 -121 417 -91 c 0
 456 -60 456 -60 456 -15 c 0
 456 24 456 24 403 36 c 0
 389 39 389 39 384 39 c 2
 275 39 l 1
 275 173 l 2
 275 233 275 233 314 272.5 c 0
 353 312 353 312 413 312 c 2
 507 312 l 1
 510 239 l 1
 417 239 l 2
 374 239 374 239 358 202 c 0
 351 183 351 183 349 111 c 1
 441 111 441 111 472 102 c 0
 531 78 531 78 531 4 c 0
EndSplineSet
EndChar

StartChar: uFEF0
Encoding: 145 65264 145
Width: 559
Flags: W
LayerCount: 2
Fore
SplineSet
572 0 m 1
 499 0 l 1
 503 -38 l 1
 503 -106 503 -106 451 -152 c 0
 401 -197 401 -197 332 -197 c 2
 212 -197 l 2
 120 -197 120 -197 66 -129 c 0
 19 -67 19 -67 19 28 c 2
 19 167 l 1
 97 167 l 1
 97 -3 l 2
 97 -59 97 -59 136 -90 c 0
 171 -119 171 -119 229 -119 c 2
 329 -119 l 2
 370 -119 370 -119 397 -97 c 0
 427 -73 427 -73 427 -31 c 0
 427 -8 427 -8 354 -1 c 0
 342 0 342 0 264 0 c 1
 258 78 l 1
 572 78 l 1
 572 0 l 1
EndSplineSet
EndChar

StartChar: .notdef
Encoding: 146 -1 146
Width: 444
Flags: W
LayerCount: 2
Fore
SplineSet
55 0 m 1
 55 590 l 1
 388 590 l 1
 388 0 l 1
 55 0 l 1
110 55 m 1
 333 55 l 1
 333 534 l 1
 110 534 l 1
 110 55 l 1
EndSplineSet
EndChar

StartChar: exclam.001
Encoding: 150 -1 149
Width: 203
Flags: W
LayerCount: 2
Fore
SplineSet
142 329 m 2
 142 324 142 324 136 270 c 2
 124 150 l 1
 83 150 l 1
 65 329 l 1
 65 500 l 1
 142 500 l 1
 142 329 l 2
161 52 m 0
 161 0 161 0 102 0 c 0
 48 0 48 0 48 52 c 0
 48 100 48 100 105 100 c 0
 161 100 161 100 161 52 c 0
EndSplineSet
EndChar

StartChar: percent.001
Encoding: 151 -1 150
Width: 638
Flags: W
LayerCount: 2
Fore
SplineSet
607 20 m 0
 607 -28 607 -28 567 -63 c 0
 530 -95 530 -95 481 -95 c 0
 436 -95 436 -95 397 -61 c 0
 358 -25 358 -25 358 21 c 0
 358 68 358 68 397.5 107 c 0
 437 146 437 146 485 146 c 0
 533 146 533 146 570 107.5 c 0
 607 69 607 69 607 20 c 0
554 24 m 0
 554 50 554 50 532.5 71 c 0
 511 92 511 92 485 92 c 0
 456 92 456 92 433.5 70 c 0
 411 48 411 48 411 20 c 0
 411 -12 411 -12 444 -32 c 0
 463 -46 463 -46 485 -46 c 0
 512 -46 512 -46 533 -24.5 c 0
 554 -3 554 -3 554 24 c 0
489 403 m 1
 209 -105 l 1
 134 -105 l 1
 411 403 l 1
 489 403 l 1
279 285 m 0
 279 238 279 238 238 203 c 0
 199 169 199 169 149 169 c 0
 103 169 103 169 66 204.5 c 0
 29 240 29 240 29 288 c 0
 29 336 29 336 67 371.5 c 0
 105 407 105 407 154 407 c 0
 202 407 202 407 240.5 369.5 c 0
 279 332 279 332 279 285 c 0
224 288 m 0
 224 314 224 314 201 334.5 c 0
 178 355 178 355 149 355 c 0
 122 355 122 355 102 333.5 c 0
 82 312 82 312 82 283 c 0
 82 256 82 256 105 237 c 0
 127 220 127 220 155 220 c 0
 183 220 183 220 203.5 240.5 c 0
 224 261 224 261 224 288 c 0
EndSplineSet
EndChar

StartChar: parenleft.001
Encoding: 152 -1 151
Width: 312
Flags: W
LayerCount: 2
Fore
SplineSet
279 606 m 1
 208 471 208 471 180 386 c 0
 139 265 139 265 139 146 c 0
 139 -4 139 -4 170 -122 c 0
 203 -237 203 -237 277 -370 c 1
 234 -370 l 1
 146 -243 146 -243 105 -137 c 0
 59 -12 59 -12 59 126 c 0
 59 256 59 256 110 379 c 0
 146 465 146 465 238 606 c 1
 279 606 l 1
EndSplineSet
EndChar

StartChar: parenright.001
Encoding: 153 -1 152
Width: 312
Flags: W
LayerCount: 2
Fore
SplineSet
253 115 m 0
 253 -18 253 -18 203 -142 c 0
 166 -228 166 -228 73 -370 c 1
 32 -370 l 1
 173 -110 173 -110 173 90 c 0
 173 251 173 251 142 359 c 0
 116 446 116 446 34 606 c 1
 77 606 l 1
 166 476 166 476 205 375 c 0
 253 250 253 250 253 115 c 0
EndSplineSet
EndChar

StartChar: asterisk.001
Encoding: 154 -1 153
Width: 295
Flags: W
LayerCount: 2
Fore
SplineSet
265 49 m 1
 256 31 l 1
 153 89 l 1
 153 -29 l 1
 134 -29 l 1
 134 89 l 1
 31 29 l 1
 21 48 l 1
 123 105 l 1
 21 165 l 1
 31 184 l 1
 134 126 l 1
 134 243 l 1
 153 243 l 1
 153 126 l 1
 255 185 l 1
 265 167 l 1
 163 107 l 1
 265 49 l 1
163 107 m 1
 153 126 l 1
 134 126 l 1
 123 105 l 1
 134 89 l 1
 153 89 l 1
 163 107 l 1
EndSplineSet
EndChar

StartChar: plus.001
Encoding: 155 -1 154
Width: 553
Flags: W
LayerCount: 2
Fore
SplineSet
517 104 m 1
 314 104 l 1
 314 -98 l 1
 241 -98 l 1
 241 104 l 1
 39 104 l 1
 39 181 l 1
 241 181 l 1
 241 381 l 1
 314 381 l 1
 314 181 l 1
 517 181 l 1
 517 104 l 1
EndSplineSet
EndChar

StartChar: comma.001
Encoding: 156 -1 155
Width: 114
Flags: W
LayerCount: 2
Fore
SplineSet
2 15 m 0
 2 62 2 62 61 62 c 0
 96 62 96 62 108 44 c 0
 116 30 116 30 116 -8 c 0
 116 -77 116 -77 105 -105 c 0
 87 -153 87 -153 28 -160 c 1
 28 -131 l 1
 63 -128 63 -128 74 -99 c 0
 81 -83 81 -83 83 -39 c 1
 2 -39 2 -39 2 15 c 0
EndSplineSet
EndChar

StartChar: hyphen.001
Encoding: 157 -1 156
Width: 498
Flags: W
LayerCount: 2
Fore
SplineSet
467 104 m 1
 41 104 l 1
 41 181 l 1
 467 181 l 1
 467 104 l 1
EndSplineSet
EndChar

StartChar: period.001
Encoding: 158 -1 157
Width: 244
Flags: W
LayerCount: 2
Fore
SplineSet
181 42 m 0
 181 -10 181 -10 121 -10 c 0
 66 -10 66 -10 66 42 c 0
 66 90 66 90 125 90 c 0
 181 90 181 90 181 42 c 0
EndSplineSet
EndChar

StartChar: slash.001
Encoding: 159 -1 158
Width: 421
Flags: W
LayerCount: 2
Fore
SplineSet
392 403 m 1
 110 -105 l 1
 36 -105 l 1
 314 403 l 1
 392 403 l 1
EndSplineSet
EndChar

StartChar: zero.001
Encoding: 160 1632 159
Width: 525
Flags: W
LayerCount: 2
Fore
SplineSet
401 138 m 0
 401 87 401 87 357.5 48.5 c 0
 314 10 314 10 263 10 c 0
 208 10 208 10 165.5 48.5 c 0
 123 87 123 87 123 141 c 0
 123 194 123 194 166.5 236.5 c 0
 210 279 210 279 265 279 c 0
 318 279 318 279 359.5 234.5 c 0
 401 190 401 190 401 138 c 0
339 141 m 0
 339 170 339 170 315.5 193.5 c 0
 292 217 292 217 261 217 c 0
 229 217 229 217 206.5 192.5 c 0
 184 168 184 168 184 137 c 0
 184 107 184 107 209 86 c 0
 234 66 234 66 265 66 c 0
 294 66 294 66 316.5 88 c 0
 339 110 339 110 339 141 c 0
EndSplineSet
EndChar

StartChar: zero.001
Encoding: 161 1776 160
Width: 525
Flags: W
LayerCount: 2
Fore
SplineSet
401 138 m 0
 401 87 401 87 357.5 48.5 c 0
 314 10 314 10 263 10 c 0
 208 10 208 10 165.5 48.5 c 0
 123 87 123 87 123 141 c 0
 123 194 123 194 166.5 236.5 c 0
 210 279 210 279 265 279 c 0
 318 279 318 279 359.5 234.5 c 0
 401 190 401 190 401 138 c 0
339 141 m 0
 339 170 339 170 315.5 193.5 c 0
 292 217 292 217 261 217 c 0
 229 217 229 217 206.5 192.5 c 0
 184 168 184 168 184 137 c 0
 184 107 184 107 209 86 c 0
 234 66 234 66 265 66 c 0
 294 66 294 66 316.5 88 c 0
 339 110 339 110 339 141 c 0
EndSplineSet
EndChar

StartChar: one.001
Encoding: 162 1633 161
Width: 525
Flags: W
LayerCount: 2
Fore
SplineSet
319 -87 m 1
 243 -87 l 1
 243 151 l 2
 243 271 243 271 206 396 c 1
 280 420 l 1
 308 315 l 2
 308 313 308 313 311 288 c 0
 319 218 319 218 319 151 c 2
 319 -87 l 1
EndSplineSet
EndChar

StartChar: one.001
Encoding: 163 1777 162
Width: 525
Flags: W
LayerCount: 2
Fore
SplineSet
319 -87 m 1
 243 -87 l 1
 243 151 l 2
 243 271 243 271 206 396 c 1
 280 420 l 1
 308 315 l 2
 308 313 308 313 311 288 c 0
 319 218 319 218 319 151 c 2
 319 -87 l 1
EndSplineSet
EndChar

StartChar: two.001
Encoding: 164 1634 163
Width: 525
Flags: W
LayerCount: 2
Fore
SplineSet
416 278 m 0
 416 234 416 234 377 204 c 0
 341 176 341 176 297 176 c 0
 263 176 263 176 224 202 c 1
 225 -87 l 1
 146 -87 l 1
 146 142 l 2
 146 296 146 296 109 396 c 1
 185 420 l 1
 216 292 l 2
 228 243 228 243 273 243 c 0
 306 243 306 243 323 269 c 0
 336 287 336 287 334 305 c 2
 321 397 l 1
 346 406 346 406 394 421 c 1
 416 314 416 314 416 278 c 0
EndSplineSet
EndChar

StartChar: two.001
Encoding: 165 1778 164
Width: 525
Flags: W
LayerCount: 2
Fore
SplineSet
416 278 m 0
 416 234 416 234 377 204 c 0
 341 176 341 176 297 176 c 0
 263 176 263 176 224 202 c 1
 225 -87 l 1
 146 -87 l 1
 146 142 l 2
 146 296 146 296 109 396 c 1
 185 420 l 1
 216 292 l 2
 228 243 228 243 273 243 c 0
 306 243 306 243 323 269 c 0
 336 287 336 287 334 305 c 2
 321 397 l 1
 346 406 346 406 394 421 c 1
 416 314 416 314 416 278 c 0
EndSplineSet
EndChar

StartChar: three.001
Encoding: 166 1635 165
Width: 525
Flags: W
LayerCount: 2
Fore
SplineSet
504 283 m 0
 504 241 504 241 468 211 c 0
 435 183 435 183 391 183 c 0
 343 183 343 183 295 236 c 1
 295 181 295 181 213 181 c 0
 172 181 172 181 136 200 c 1
 137 -87 l 1
 61 -87 l 1
 61 142 l 2
 61 286 61 286 21 396 c 1
 99 420 l 1
 128 292 l 2
 140 243 140 243 188 243 c 0
 214 243 214 243 229 260 c 0
 252 281 252 281 248 305 c 2
 233 397 l 1
 308 426 l 1
 325 333 325 333 325 293 c 0
 325 288 325 288 323 266 c 1
 344 241 344 241 373 241 c 0
 396 241 396 241 412.5 257 c 0
 429 273 429 273 429 296 c 2
 429 305 l 1
 417 397 l 1
 488 420 l 1
 503 294 l 2
 504 289 504 289 504 283 c 0
EndSplineSet
EndChar

StartChar: three.001
Encoding: 167 1779 166
Width: 525
Flags: W
LayerCount: 2
Fore
SplineSet
504 283 m 0
 504 241 504 241 468 211 c 0
 435 183 435 183 391 183 c 0
 343 183 343 183 295 236 c 1
 295 181 295 181 213 181 c 0
 172 181 172 181 136 200 c 1
 137 -87 l 1
 61 -87 l 1
 61 142 l 2
 61 286 61 286 21 396 c 1
 99 420 l 1
 128 292 l 2
 140 243 140 243 188 243 c 0
 214 243 214 243 229 260 c 0
 252 281 252 281 248 305 c 2
 233 397 l 1
 308 426 l 1
 325 333 325 333 325 293 c 0
 325 288 325 288 323 266 c 1
 344 241 344 241 373 241 c 0
 396 241 396 241 412.5 257 c 0
 429 273 429 273 429 296 c 2
 429 305 l 1
 417 397 l 1
 488 420 l 1
 503 294 l 2
 504 289 504 289 504 283 c 0
EndSplineSet
EndChar

StartChar: four.001
Encoding: 168 1636 167
Width: 525
Flags: W
LayerCount: 2
Fore
SplineSet
467 203 m 1
 382 163 382 163 306 163 c 0
 241 163 241 163 170 193 c 1
 171 -87 l 1
 96 -87 l 1
 96 146 l 2
 96 262 96 262 59 396 c 1
 131 420 l 1
 153 339 153 339 166 268 c 1
 206 249 l 1
 206 425 206 425 348 425 c 0
 393 425 393 425 442 399 c 1
 417 332 l 1
 385 355 385 355 351 355 c 0
 320 355 320 355 296 334 c 0
 272 313 272 313 272 282 c 0
 272 231 272 231 331 231 c 0
 376 231 376 231 442 265 c 1
 467 203 l 1
EndSplineSet
EndChar

StartChar: four.001
Encoding: 169 1780 168
Width: 525
Flags: W
LayerCount: 2
Fore
SplineSet
467 203 m 1
 382 163 382 163 306 163 c 0
 241 163 241 163 170 193 c 1
 171 -87 l 1
 96 -87 l 1
 96 146 l 2
 96 262 96 262 59 396 c 1
 131 420 l 1
 153 339 153 339 166 268 c 1
 206 249 l 1
 206 425 206 425 348 425 c 0
 393 425 393 425 442 399 c 1
 417 332 l 1
 385 355 385 355 351 355 c 0
 320 355 320 355 296 334 c 0
 272 313 272 313 272 282 c 0
 272 231 272 231 331 231 c 0
 376 231 376 231 442 265 c 1
 467 203 l 1
EndSplineSet
EndChar

StartChar: five.001
Encoding: 170 1637 169
Width: 525
Flags: W
LayerCount: 2
Fore
SplineSet
505 31 m 0
 505 -30 505 -30 458 -69 c 0
 416 -104 416 -104 352 -104 c 0
 294 -104 294 -104 254 -73 c 1
 200 -105 200 -105 148 -105 c 0
 89 -105 89 -105 53 -59 c 0
 21 -16 21 -16 21 46 c 0
 21 141 21 141 98 235 c 2
 183 340 l 1
 151 361 l 1
 203 421 l 1
 505 195 505 195 505 31 c 0
423 51 m 0
 423 143 423 143 241 294 c 1
 103 148 103 148 103 52 c 0
 103 -21 103 -21 168 -21 c 0
 229 -21 229 -21 229 48 c 0
 229 52 229 52 225 77 c 1
 302 77 l 1
 308 66 308 66 308 48 c 0
 308 10 308 10 299 -5 c 1
 321 -20 321 -20 350 -20 c 0
 423 -20 423 -20 423 51 c 0
EndSplineSet
EndChar

StartChar: five.001
Encoding: 171 1781 170
Width: 525
Flags: W
LayerCount: 2
Fore
SplineSet
505 31 m 0
 505 -30 505 -30 458 -69 c 0
 416 -104 416 -104 352 -104 c 0
 294 -104 294 -104 254 -73 c 1
 200 -105 200 -105 148 -105 c 0
 89 -105 89 -105 53 -59 c 0
 21 -16 21 -16 21 46 c 0
 21 141 21 141 98 235 c 2
 183 340 l 1
 151 361 l 1
 203 421 l 1
 505 195 505 195 505 31 c 0
423 51 m 0
 423 143 423 143 241 294 c 1
 103 148 103 148 103 52 c 0
 103 -21 103 -21 168 -21 c 0
 229 -21 229 -21 229 48 c 0
 229 52 229 52 225 77 c 1
 302 77 l 1
 308 66 308 66 308 48 c 0
 308 10 308 10 299 -5 c 1
 321 -20 321 -20 350 -20 c 0
 423 -20 423 -20 423 51 c 0
EndSplineSet
EndChar

StartChar: six.001
Encoding: 172 1638 171
Width: 525
Flags: W
LayerCount: 2
Fore
SplineSet
421 209 m 1
 390 183 390 183 360 146 c 2
 295 66 l 2
 244 4 244 4 183 -106 c 1
 112 -65 l 1
 149 7 149 7 255 144 c 1
 187 144 187 144 146 180 c 0
 104 217 104 217 104 284 c 0
 104 346 104 346 142.5 386.5 c 0
 181 427 181 427 241 427 c 0
 284 427 284 427 339 397 c 1
 314 328 l 1
 281 347 281 347 251 347 c 0
 223 347 223 347 203 328.5 c 0
 183 310 183 310 183 281 c 0
 183 220 183 220 253 220 c 0
 301 220 301 220 358 256 c 1
 421 209 l 1
EndSplineSet
EndChar

StartChar: six.001
Encoding: 173 1782 172
Width: 525
Flags: W
LayerCount: 2
Fore
SplineSet
421 209 m 1
 390 183 390 183 360 146 c 2
 295 66 l 2
 244 4 244 4 183 -106 c 1
 112 -65 l 1
 149 7 149 7 255 144 c 1
 187 144 187 144 146 180 c 0
 104 217 104 217 104 284 c 0
 104 346 104 346 142.5 386.5 c 0
 181 427 181 427 241 427 c 0
 284 427 284 427 339 397 c 1
 314 328 l 1
 281 347 281 347 251 347 c 0
 223 347 223 347 203 328.5 c 0
 183 310 183 310 183 281 c 0
 183 220 183 220 253 220 c 0
 301 220 301 220 358 256 c 1
 421 209 l 1
EndSplineSet
EndChar

StartChar: seven.001
Encoding: 174 1639 173
Width: 525
Flags: W
LayerCount: 2
Fore
SplineSet
481 387 m 1
 417 277 l 2
 386 224 386 224 360 163 c 0
 321 66 321 66 292 -87 c 1
 231 -87 l 1
 212 47 212 47 164 161 c 0
 128 248 128 248 46 387 c 1
 112 421 l 1
 185 299 185 299 214 222 c 0
 217 214 217 214 229 169 c 2
 260 57 l 1
 268 56 l 1
 300 213 300 213 352 308 c 2
 414 421 l 1
 444 405 444 405 481 387 c 1
EndSplineSet
EndChar

StartChar: seven.001
Encoding: 175 1783 174
Width: 525
Flags: W
LayerCount: 2
Fore
SplineSet
481 387 m 1
 417 277 l 2
 386 224 386 224 360 163 c 0
 321 66 321 66 292 -87 c 1
 231 -87 l 1
 212 47 212 47 164 161 c 0
 128 248 128 248 46 387 c 1
 112 421 l 1
 185 299 185 299 214 222 c 0
 217 214 217 214 229 169 c 2
 260 57 l 1
 268 56 l 1
 300 213 300 213 352 308 c 2
 414 421 l 1
 444 405 444 405 481 387 c 1
EndSplineSet
EndChar

StartChar: eight.001
Encoding: 176 1640 175
Width: 525
Flags: W
LayerCount: 2
Fore
SplineSet
481 -49 m 1
 445 -65 445 -65 413 -85 c 1
 342 38 342 38 312 117 c 0
 308 130 308 130 296 175 c 2
 268 281 l 1
 260 282 l 1
 243 211 243 211 214 118 c 0
 191 48 191 48 111 -85 c 1
 73 -63 73 -63 44 -48 c 1
 129 96 129 96 164 178 c 0
 208 283 208 283 232 426 c 1
 293 425 l 1
 325 230 325 230 407 80 c 0
 431 35 431 35 481 -49 c 1
EndSplineSet
EndChar

StartChar: eight.001
Encoding: 177 1784 176
Width: 525
Flags: W
LayerCount: 2
Fore
SplineSet
481 -49 m 1
 445 -65 445 -65 413 -85 c 1
 342 38 342 38 312 117 c 0
 308 130 308 130 296 175 c 2
 268 281 l 1
 260 282 l 1
 243 211 243 211 214 118 c 0
 191 48 191 48 111 -85 c 1
 73 -63 73 -63 44 -48 c 1
 129 96 129 96 164 178 c 0
 208 283 208 283 232 426 c 1
 293 425 l 1
 325 230 325 230 407 80 c 0
 431 35 431 35 481 -49 c 1
EndSplineSet
EndChar

StartChar: nine.001
Encoding: 178 1641 177
Width: 525
Flags: W
LayerCount: 2
Fore
SplineSet
405 -87 m 1
 328 -87 l 1
 328 181 l 1
 281 164 281 164 241 164 c 0
 185 164 185 164 153 195 c 0
 121 226 121 226 121 281 c 0
 121 342 121 342 158 384 c 0
 196 427 196 427 256 427 c 0
 293 427 293 427 336 400 c 0
 405 360 405 360 405 167 c 2
 405 -87 l 1
320 260 m 1
 317 280 317 280 309 318 c 1
 299 346 299 346 277 351 c 0
 276 352 276 352 252 355 c 0
 223 355 223 355 205 334.5 c 0
 187 314 187 314 187 284 c 0
 187 232 187 232 241 232 c 0
 273 232 273 232 320 260 c 1
EndSplineSet
EndChar

StartChar: nine.001
Encoding: 179 1785 178
Width: 525
Flags: W
LayerCount: 2
Fore
SplineSet
405 -87 m 1
 328 -87 l 1
 328 181 l 1
 281 164 281 164 241 164 c 0
 185 164 185 164 153 195 c 0
 121 226 121 226 121 281 c 0
 121 342 121 342 158 384 c 0
 196 427 196 427 256 427 c 0
 293 427 293 427 336 400 c 0
 405 360 405 360 405 167 c 2
 405 -87 l 1
320 260 m 1
 317 280 317 280 309 318 c 1
 299 346 299 346 277 351 c 0
 276 352 276 352 252 355 c 0
 223 355 223 355 205 334.5 c 0
 187 314 187 314 187 284 c 0
 187 232 187 232 241 232 c 0
 273 232 273 232 320 260 c 1
EndSplineSet
EndChar

StartChar: colon.001
Encoding: 180 -1 179
Width: 244
Flags: W
LayerCount: 2
Fore
SplineSet
185 235 m 0
 185 184 185 184 126 184 c 0
 69 184 69 184 69 235 c 0
 69 283 69 283 129 283 c 0
 185 283 185 283 185 235 c 0
186 52 m 0
 186 0 186 0 126 0 c 0
 103 0 103 0 86.5 14 c 0
 70 28 70 28 70 52 c 0
 70 100 70 100 131 100 c 0
 186 100 186 100 186 52 c 0
EndSplineSet
EndChar

StartChar: equal
Encoding: 181 61 180
Width: 531
Flags: W
LayerCount: 2
Fore
SplineSet
481 163 m 1
 52 163 l 1
 52 239 l 1
 481 239 l 1
 481 163 l 1
481 0 m 1
 52 0 l 1
 52 76 l 1
 481 76 l 1
 481 0 l 1
EndSplineSet
EndChar

StartChar: bracketleft
Encoding: 182 91 181
Width: 334
Flags: W
LayerCount: 2
Fore
SplineSet
302 -361 m 1
 69 -361 l 1
 69 767 l 1
 302 767 l 1
 302 693 l 1
 149 693 l 1
 148 -288 l 1
 302 -288 l 1
 302 -361 l 1
EndSplineSet
EndChar

StartChar: bracketright
Encoding: 183 93 182
Width: 340
Flags: W
LayerCount: 2
Fore
SplineSet
68 -293 m 1
 222 -293 l 1
 221 690 l 1
 68 690 l 1
 68 764 l 1
 300 764 l 1
 301 -367 l 1
 68 -367 l 1
 68 -293 l 1
EndSplineSet
EndChar

StartChar: braceleft
Encoding: 184 123 183
Width: 456
Flags: W
LayerCount: 2
Fore
SplineSet
367 -306 m 1
 275 -288 275 -288 218 -229 c 0
 156 -166 156 -166 156 -74 c 0
 156 -36 156 -36 172 30 c 0
 185 84 185 84 185 98 c 0
 185 155 185 155 142 195 c 0
 102 231 102 231 42 239 c 1
 42 261 l 1
 185 292 185 292 185 392 c 0
 185 417 185 417 174 464 c 0
 159 536 159 536 159 575 c 0
 159 667 159 667 219 729 c 0
 275 790 275 790 367 805 c 1
 367 782 l 1
 311 773 311 773 274 738 c 0
 234 700 234 700 234 646 c 0
 234 618 234 618 242 577 c 0
 260 482 260 482 260 451 c 0
 260 317 260 317 89 250 c 1
 258 183 258 183 258 42 c 0
 258 12 258 12 242 -65 c 0
 231 -113 231 -113 231 -145 c 0
 231 -252 231 -252 367 -283 c 1
 367 -306 l 1
EndSplineSet
EndChar

StartChar: braceright
Encoding: 185 125 184
Width: 421
Flags: W
LayerCount: 2
Fore
SplineSet
57 -282 m 1
 191 -251 191 -251 191 -144 c 0
 191 -109 191 -109 183 -63 c 0
 165 17 165 17 165 45 c 0
 165 183 165 183 334 253 c 1
 163 320 163 320 163 453 c 0
 163 477 163 477 183 578 c 0
 188 613 188 613 188 647 c 0
 188 703 188 703 149 739 c 0
 113 773 113 773 57 783 c 1
 57 807 l 1
 148 791 148 791 205 730 c 0
 266 669 266 669 266 577 c 0
 266 543 266 543 248 465 c 0
 240 424 240 424 240 393 c 0
 240 293 240 293 382 262 c 1
 382 240 l 1
 323 232 323 232 283 196 c 0
 240 156 240 156 240 99 c 0
 240 87 240 87 252 31 c 0
 267 -32 267 -32 267 -73 c 0
 267 -164 267 -164 206 -228 c 0
 148 -288 148 -288 57 -304 c 1
 57 -282 l 1
EndSplineSet
EndChar

StartChar: guillemotleft
Encoding: 186 171 185
Width: 401
Flags: W
LayerCount: 2
Fore
SplineSet
359 2 m 1
 222 110 l 1
 222 194 l 1
 359 303 l 1
 359 241 l 1
 247 153 l 1
 359 66 l 1
 359 2 l 1
183 2 m 1
 42 110 l 1
 42 194 l 1
 183 303 l 1
 183 241 l 1
 67 153 l 1
 183 66 l 1
 183 2 l 1
EndSplineSet
EndChar

StartChar: guillemotright
Encoding: 187 187 186
Width: 401
Flags: W
LayerCount: 2
Fore
SplineSet
358 110 m 1
 220 2 l 1
 220 65 l 1
 333 150 l 1
 220 240 l 1
 220 303 l 1
 358 194 l 1
 358 110 l 1
181 110 m 1
 41 2 l 1
 41 65 l 1
 153 150 l 1
 41 240 l 1
 41 303 l 1
 181 194 l 1
 181 110 l 1
EndSplineSet
EndChar

StartChar: multiply
Encoding: 188 215 187
Width: 553
Flags: W
LayerCount: 2
Fore
SplineSet
512 -39 m 1
 457 -93 l 1
 279 87 l 1
 98 -93 l 1
 44 -40 l 1
 226 142 l 1
 43 322 l 1
 97 377 l 1
 277 195 l 1
 459 378 l 1
 512 322 l 1
 332 142 l 1
 512 -39 l 1
EndSplineSet
EndChar

StartChar: divide
Encoding: 189 247 188
Width: 508
Flags: W
LayerCount: 2
Fore
SplineSet
308 322 m 0
 308 299 308 299 289.5 280.5 c 0
 271 262 271 262 248 262 c 0
 224 262 224 262 207 281 c 0
 192 300 192 300 192 325 c 0
 192 348 192 348 209.5 364 c 0
 227 380 227 380 249 380 c 0
 272 380 272 380 290 363 c 0
 308 346 308 346 308 322 c 0
476 98 m 1
 31 98 l 1
 31 175 l 1
 476 175 l 1
 476 98 l 1
304 -52 m 0
 304 -75 304 -75 286 -92 c 0
 268 -109 268 -109 243 -109 c 0
 221 -109 221 -109 203 -90 c 0
 188 -72 188 -72 188 -49 c 0
 188 -24 188 -24 206 -8 c 0
 224 8 224 8 248 8 c 0
 271 8 271 8 287.5 -10.5 c 0
 304 -29 304 -29 304 -52 c 0
EndSplineSet
EndChar

StartChar: lefttoright
Encoding: 192 8206 191
Width: 18
Flags: W
LayerCount: 2
Fore
SplineSet
117 626 m 1
 66 572 l 1
 52 585 l 1
 87 618 l 1
 18 618 l 1
 18 0 l 1
 0 0 l 1
 0 635 l 1
 85 635 l 1
 52 667 l 1
 66 680 l 1
 117 626 l 1
EndSplineSet
EndChar

StartChar: righttoleft
Encoding: 193 8207 192
Width: 18
Flags: W
LayerCount: 2
Fore
SplineSet
18 0 m 1
 0 0 l 1
 0 618 l 1
 -69 618 l 1
 -35 585 l 1
 -48 572 l 1
 -102 626 l 1
 -48 680 l 1
 -35 667 l 1
 -67 635 l 1
 18 635 l 1
 18 0 l 1
EndSplineSet
EndChar

StartChar: quoteleft
Encoding: 194 8216 193
Width: 287
Flags: W
LayerCount: 2
Fore
SplineSet
203 424 m 0
 203 376 203 376 143 376 c 0
 108 376 108 376 97 395 c 0
 88 407 88 407 88 445 c 0
 88 515 88 515 99 544 c 0
 117 592 117 592 175 598 c 1
 175 569 l 1
 143 566 143 566 129 536 c 0
 123 519 123 519 121 477 c 1
 203 477 203 477 203 424 c 0
EndSplineSet
EndChar

StartChar: quoteright
Encoding: 195 8217 194
Width: 247
Flags: W
LayerCount: 2
Fore
SplineSet
66 550 m 0
 66 598 66 598 125 598 c 0
 161 598 161 598 172 579 c 0
 181 566 181 566 181 528 c 0
 181 457 181 457 169 429 c 0
 150 381 150 381 93 376 c 1
 93 404 l 1
 128 407 128 407 140 437 c 0
 146 452 146 452 147 496 c 1
 66 496 66 496 66 550 c 0
EndSplineSet
EndChar

StartChar: quotedblleft
Encoding: 196 8220 195
Width: 268
Flags: W
LayerCount: 2
Fore
SplineSet
131 421 m 0
 131 373 131 373 71 373 c 0
 36 373 36 373 25 392 c 0
 17 405 17 405 17 443 c 0
 17 514 17 514 28 542 c 0
 47 591 47 591 104 595 c 1
 104 567 l 1
 69 564 69 564 58 534 c 0
 51 518 51 518 50 476 c 1
 131 476 131 476 131 421 c 0
262 424 m 0
 262 376 262 376 203 376 c 0
 167 376 167 376 156 395 c 0
 147 407 147 407 147 445 c 0
 147 515 147 515 158 544 c 0
 177 592 177 592 234 598 c 1
 234 569 l 1
 202 566 202 566 188 536 c 0
 183 519 183 519 181 477 c 1
 262 477 262 477 262 424 c 0
EndSplineSet
EndChar

StartChar: quotedblright
Encoding: 197 8221 196
Width: 268
Flags: W
LayerCount: 2
Fore
SplineSet
147 550 m 0
 147 598 147 598 206 598 c 0
 243 598 243 598 254 579 c 0
 262 566 262 566 262 528 c 0
 262 457 262 457 251 429 c 0
 232 381 232 381 175 376 c 1
 175 404 l 1
 208 407 208 407 222 437 c 0
 228 452 228 452 229 496 c 1
 147 496 147 496 147 550 c 0
17 548 m 0
 17 595 17 595 75 595 c 0
 110 595 110 595 123 576 c 0
 131 563 131 563 131 526 c 0
 131 456 131 456 121 427 c 0
 103 379 103 379 44 373 c 1
 44 401 l 1
 77 406 77 406 89 436 c 0
 96 452 96 452 98 494 c 1
 17 494 17 494 17 548 c 0
EndSplineSet
EndChar

StartChar: guilsinglleft
Encoding: 198 8249 197
Width: 273
Flags: W
LayerCount: 2
Fore
SplineSet
212 2 m 1
 73 110 l 1
 73 194 l 1
 212 303 l 1
 212 241 l 1
 101 153 l 1
 212 66 l 1
 212 2 l 1
EndSplineSet
EndChar

StartChar: guilsinglright
Encoding: 199 8250 198
Width: 248
Flags: W
LayerCount: 2
Fore
SplineSet
205 110 m 1
 66 2 l 1
 66 65 l 1
 181 150 l 1
 66 240 l 1
 66 303 l 1
 205 194 l 1
 205 110 l 1
EndSplineSet
EndChar

StartChar: u060C
Encoding: 200 1548 199
Width: 224
Flags: W
LayerCount: 2
Fore
SplineSet
168 48 m 0
 168 0 168 0 109 0 c 0
 73 0 73 0 62 19 c 0
 54 32 54 32 54 69 c 0
 54 140 54 140 65 168 c 0
 83 217 83 217 142 223 c 1
 142 193 l 1
 106 189 106 189 95 161 c 0
 89 145 89 145 87 102 c 1
 168 102 168 102 168 48 c 0
EndSplineSet
EndChar

StartChar: u061B
Encoding: 201 1563 200
Width: 244
Flags: W
LayerCount: 2
Fore
SplineSet
184 224 m 0
 184 176 184 176 125 176 c 0
 88 176 88 176 75 194 c 0
 67 208 67 208 67 245 c 0
 67 314 67 314 78 343 c 0
 96 388 96 388 154 396 c 1
 154 369 l 1
 120 361 120 361 109 336 c 0
 103 320 103 320 102 277 c 1
 184 277 184 277 184 224 c 0
185 48 m 0
 185 0 185 0 126 0 c 0
 69 0 69 0 69 48 c 0
 69 100 69 100 129 100 c 0
 185 100 185 100 185 48 c 0
EndSplineSet
EndChar

StartChar: u061F
Encoding: 202 1567 201
Width: 351
Flags: W
LayerCount: 2
Fore
SplineSet
321 336 m 1
 245 336 l 1
 245 433 245 433 177 433 c 0
 112 433 112 433 112 373 c 0
 112 351 112 351 123 340 c 2
 161 299 l 2
 197 259 197 259 205 239 c 0
 215 212 215 212 220 146 c 1
 145 146 l 1
 145 191 145 191 131 220 c 0
 123 238 123 238 91 267 c 0
 59 299 59 299 49 314 c 0
 32 340 32 340 32 376 c 0
 32 437 32 437 75 471 c 0
 114 501 114 501 178 501 c 0
 223 501 223 501 259 480 c 0
 298 457 298 457 312 418 c 0
 320 391 320 391 321 336 c 1
231 48 m 0
 231 26 231 26 214 12 c 0
 199 0 199 0 176 0 c 0
 156 0 156 0 141.5 14 c 0
 127 28 127 28 127 48 c 0
 127 91 127 91 180 91 c 0
 231 91 231 91 231 48 c 0
EndSplineSet
EndChar

StartChar: u0640
Encoding: 203 1600 202
Width: 203
Flags: W
LayerCount: 2
Fore
SplineSet
220 0 m 1
 -10 0 l 1
 -10 78 l 1
 220 78 l 1
 220 0 l 1
EndSplineSet
EndChar

StartChar: u064B
Encoding: 204 1611 203
Width: 1000
LayerCount: 2
Fore
SplineSet
236 771 m 1
 99 696 l 1
 87 719 l 1
 224 794 l 1
 236 771 l 1
235 721 m 1
 99 647 l 1
 87 668 l 1
 224 743 l 1
 235 721 l 1
EndSplineSet
EndChar

StartChar: u064C
Encoding: 205 1612 204
Width: 1000
LayerCount: 2
Fore
SplineSet
243 741 m 0
 243 702 243 702 223 690 c 2
 99 625 l 1
 87 646 l 1
 109 660 109 660 113 668 c 1
 113 684 113 684 94 684 c 0
 82 684 82 684 73 679 c 1
 65 693 l 1
 89 703 89 703 102 703 c 0
 126 703 126 703 132 668 c 1
 166 687 l 1
 131 707 131 707 131 737 c 0
 131 776 131 776 169 791 c 0
 183 796 183 796 186 796 c 0
 208 796 208 796 225.5 780.5 c 0
 243 765 243 765 243 741 c 0
224 741 m 0
 224 756 224 756 212 765.5 c 0
 200 775 200 775 186 775 c 0
 150 775 150 775 150 738 c 0
 150 704 150 704 188 704 c 0
 200 704 200 704 212 716.5 c 0
 224 729 224 729 224 741 c 0
EndSplineSet
EndChar

StartChar: u064D
Encoding: 206 1613 205
Width: 1000
LayerCount: 2
Fore
SplineSet
98 -317 m 1
 -38 -390 l 1
 -50 -370 l 1
 86 -295 l 1
 98 -317 l 1
98 -379 m 1
 -38 -453 l 1
 -50 -432 l 1
 86 -356 l 1
 98 -379 l 1
EndSplineSet
EndChar

StartChar: u064E
Encoding: 207 1614 206
Width: 1000
LayerCount: 2
Fore
SplineSet
235 719 m 1
 99 646 l 1
 87 666 l 1
 224 742 l 1
 235 719 l 1
EndSplineSet
EndChar

StartChar: u064F
Encoding: 208 1615 207
Width: 1000
LayerCount: 2
Fore
SplineSet
220 738 m 0
 220 699 220 699 197 687 c 2
 99 635 l 1
 87 655 l 1
 142 686 l 1
 107 705 107 705 107 734 c 0
 107 774 107 774 146 788 c 0
 158 793 158 793 161 793 c 0
 185 793 185 793 202.5 777.5 c 0
 220 762 220 762 220 738 c 0
199 739 m 0
 199 753 199 753 187.5 762.5 c 0
 176 772 176 772 161 772 c 0
 127 772 127 772 127 735 c 0
 127 701 127 701 164 701 c 0
 176 701 176 701 187.5 714 c 0
 199 727 199 727 199 739 c 0
EndSplineSet
EndChar

StartChar: u0650
Encoding: 209 1616 208
Width: 1000
LayerCount: 2
Fore
SplineSet
94 -327 m 1
 -42 -400 l 1
 -54 -379 l 1
 83 -304 l 1
 94 -327 l 1
EndSplineSet
EndChar

StartChar: u0651
Encoding: 210 1617 209
Width: 1000
LayerCount: 2
Fore
SplineSet
278 747 m 1
 278 721 278 721 263 702 c 0
 247 682 247 682 222 682 c 0
 202 682 202 682 173 706 c 1
 152 682 152 682 125 682 c 0
 101 682 101 682 86 703 c 0
 73 722 73 722 73 747 c 1
 92 747 l 1
 92 704 92 704 128 704 c 0
 163 704 163 704 164 747 c 1
 186 747 l 1
 186 704 186 704 223 704 c 0
 257 704 257 704 258 747 c 1
 278 747 l 1
EndSplineSet
EndChar

StartChar: u0652
Encoding: 211 1618 210
Width: 1000
LayerCount: 2
Fore
SplineSet
211 710 m 0
 211 687 211 687 194 671.5 c 0
 177 656 177 656 152 656 c 0
 130 656 130 656 115 673.5 c 0
 100 691 100 691 100 715 c 0
 100 738 100 738 117 752.5 c 0
 134 767 134 767 158 767 c 0
 182 767 182 767 196.5 750 c 0
 211 733 211 733 211 710 c 0
190 711 m 0
 190 738 190 738 165 746 c 0
 157 749 157 749 155 749 c 0
 142 749 142 749 130 738 c 0
 118 727 118 727 118 711 c 0
 118 697 118 697 130 686 c 0
 142 675 142 675 155 675 c 0
 169 675 169 675 179.5 687 c 0
 190 699 190 699 190 711 c 0
EndSplineSet
EndChar

StartChar: uE820
Encoding: 212 59424 211
Width: 1000
LayerCount: 2
Fore
SplineSet
240 498 m 1
 104 425 l 1
 92 445 l 1
 229 521 l 1
 240 498 l 1
EndSplineSet
EndChar

StartChar: uE821
Encoding: 213 59425 212
Width: 1000
LayerCount: 2
Fore
SplineSet
230 538 m 0
 230 499 230 499 207 487 c 2
 109 435 l 1
 97 455 l 1
 152 486 l 1
 117 505 117 505 117 534 c 0
 117 574 117 574 156 588 c 0
 168 593 168 593 171 593 c 0
 195 593 195 593 212.5 577.5 c 0
 230 562 230 562 230 538 c 0
209 539 m 0
 209 553 209 553 197.5 562.5 c 0
 186 572 186 572 171 572 c 0
 137 572 137 572 137 535 c 0
 137 501 137 501 174 501 c 0
 186 501 186 501 197.5 514 c 0
 209 527 209 527 209 539 c 0
EndSplineSet
EndChar

StartChar: uE822
Encoding: 214 59426 213
Width: 1000
LayerCount: 2
Fore
SplineSet
199 502 m 0
 199 479 199 479 182 463.5 c 0
 165 448 165 448 140 448 c 0
 118 448 118 448 103 465.5 c 0
 88 483 88 483 88 507 c 0
 88 530 88 530 105 544.5 c 0
 122 559 122 559 146 559 c 0
 170 559 170 559 184.5 542 c 0
 199 525 199 525 199 502 c 0
178 503 m 0
 178 530 178 530 153 538 c 0
 145 541 145 541 143 541 c 0
 130 541 130 541 118 530 c 0
 106 519 106 519 106 503 c 0
 106 489 106 489 118 478 c 0
 130 467 130 467 143 467 c 0
 157 467 157 467 167.5 479 c 0
 178 491 178 491 178 503 c 0
EndSplineSet
EndChar

StartChar: uE823
Encoding: 215 59427 214
Width: 1000
LayerCount: 2
Fore
SplineSet
232 560 m 1
 95 485 l 1
 83 508 l 1
 220 583 l 1
 232 560 l 1
231 510 m 1
 95 436 l 1
 83 457 l 1
 220 532 l 1
 231 510 l 1
EndSplineSet
EndChar

StartChar: uE824
Encoding: 216 59428 215
Width: 1000
LayerCount: 2
Fore
SplineSet
270 539 m 0
 270 500 270 500 250 488 c 2
 126 423 l 1
 114 444 l 1
 136 458 136 458 140 466 c 1
 140 482 140 482 121 482 c 0
 109 482 109 482 100 477 c 1
 92 491 l 1
 116 501 116 501 129 501 c 0
 153 501 153 501 159 466 c 1
 193 485 l 1
 158 505 158 505 158 535 c 0
 158 574 158 574 196 589 c 0
 210 594 210 594 213 594 c 0
 235 594 235 594 252.5 578.5 c 0
 270 563 270 563 270 539 c 0
251 539 m 0
 251 554 251 554 239 563.5 c 0
 227 573 227 573 213 573 c 0
 177 573 177 573 177 536 c 0
 177 502 177 502 215 502 c 0
 227 502 227 502 239 514.5 c 0
 251 527 251 527 251 539 c 0
EndSplineSet
EndChar

StartChar: uE825
Encoding: 217 59429 216
Width: 1000
LayerCount: 2
Fore
SplineSet
278 529 m 1
 278 503 278 503 263 484 c 0
 247 464 247 464 222 464 c 0
 202 464 202 464 173 488 c 1
 152 464 152 464 125 464 c 0
 101 464 101 464 86 485 c 0
 73 504 73 504 73 529 c 1
 92 529 l 1
 92 486 92 486 128 486 c 0
 163 486 163 486 164 529 c 1
 186 529 l 1
 186 486 186 486 223 486 c 0
 257 486 257 486 258 529 c 1
 278 529 l 1
EndSplineSet
EndChar

StartChar: uE826
Encoding: 218 59430 217
Width: 1000
LayerCount: 2
Fore
SplineSet
61 -159 m 1
 -75 -232 l 1
 -87 -211 l 1
 50 -136 l 1
 61 -159 l 1
EndSplineSet
EndChar

StartChar: uE827
Encoding: 219 59431 218
Width: 1000
LayerCount: 2
Fore
SplineSet
45 -200 m 1
 -91 -273 l 1
 -103 -253 l 1
 33 -178 l 1
 45 -200 l 1
45 -262 m 1
 -91 -336 l 1
 -103 -315 l 1
 33 -239 l 1
 45 -262 l 1
EndSplineSet
EndChar

StartChar: uE828
Encoding: 220 59432 219
Width: 1000
LayerCount: 2
Fore
SplineSet
285 539 m 1
 285 513 285 513 270 494 c 0
 254 474 254 474 229 474 c 0
 209 474 209 474 180 498 c 1
 159 474 159 474 132 474 c 0
 108 474 108 474 93 495 c 0
 80 514 80 514 80 539 c 1
 99 539 l 1
 99 496 99 496 135 496 c 0
 170 496 170 496 171 539 c 1
 193 539 l 1
 193 496 193 496 230 496 c 0
 264 496 264 496 265 539 c 1
 285 539 l 1
248 658 m 1
 112 585 l 1
 100 605 l 1
 237 681 l 1
 248 658 l 1
EndSplineSet
EndChar

StartChar: uE829
Encoding: 221 59433 220
Width: 1000
LayerCount: 2
Fore
SplineSet
285 539 m 1
 285 513 285 513 270 494 c 0
 254 474 254 474 229 474 c 0
 209 474 209 474 180 498 c 1
 159 474 159 474 132 474 c 0
 108 474 108 474 93 495 c 0
 80 514 80 514 80 539 c 1
 99 539 l 1
 99 496 99 496 135 496 c 0
 170 496 170 496 171 539 c 1
 193 539 l 1
 193 496 193 496 230 496 c 0
 264 496 264 496 265 539 c 1
 285 539 l 1
246 703 m 0
 246 664 246 664 223 652 c 2
 125 600 l 1
 113 620 l 1
 168 651 l 1
 133 670 133 670 133 699 c 0
 133 739 133 739 172 753 c 0
 184 758 184 758 187 758 c 0
 211 758 211 758 228.5 742.5 c 0
 246 727 246 727 246 703 c 0
225 704 m 0
 225 718 225 718 213.5 727.5 c 0
 202 737 202 737 187 737 c 0
 153 737 153 737 153 700 c 0
 153 666 153 666 190 666 c 0
 202 666 202 666 213.5 679 c 0
 225 692 225 692 225 704 c 0
EndSplineSet
EndChar

StartChar: uE82A
Encoding: 222 59434 221
Width: 1000
LayerCount: 2
Fore
SplineSet
285 539 m 1
 285 513 285 513 270 494 c 0
 254 474 254 474 229 474 c 0
 209 474 209 474 180 498 c 1
 159 474 159 474 132 474 c 0
 108 474 108 474 93 495 c 0
 80 514 80 514 80 539 c 1
 99 539 l 1
 99 496 99 496 135 496 c 0
 170 496 170 496 171 539 c 1
 193 539 l 1
 193 496 193 496 230 496 c 0
 264 496 264 496 265 539 c 1
 285 539 l 1
257 715 m 1
 120 640 l 1
 108 663 l 1
 245 738 l 1
 257 715 l 1
256 665 m 1
 120 591 l 1
 108 612 l 1
 245 687 l 1
 256 665 l 1
EndSplineSet
EndChar

StartChar: uE82B
Encoding: 223 59435 222
Width: 1000
LayerCount: 2
Fore
SplineSet
294 531 m 1
 294 505 294 505 279 486 c 0
 263 466 263 466 238 466 c 0
 218 466 218 466 189 490 c 1
 168 466 168 466 141 466 c 0
 117 466 117 466 102 487 c 0
 89 506 89 506 89 531 c 1
 108 531 l 1
 108 488 108 488 144 488 c 0
 179 488 179 488 180 531 c 1
 202 531 l 1
 202 488 202 488 239 488 c 0
 273 488 273 488 274 531 c 1
 294 531 l 1
281 714 m 0
 281 675 281 675 261 663 c 2
 137 598 l 1
 125 619 l 1
 147 633 147 633 151 641 c 1
 151 657 151 657 132 657 c 0
 120 657 120 657 111 652 c 1
 103 666 l 1
 127 676 127 676 140 676 c 0
 164 676 164 676 170 641 c 1
 204 660 l 1
 169 680 169 680 169 710 c 0
 169 749 169 749 207 764 c 0
 221 769 221 769 224 769 c 0
 246 769 246 769 263.5 753.5 c 0
 281 738 281 738 281 714 c 0
262 714 m 0
 262 729 262 729 250 738.5 c 0
 238 748 238 748 224 748 c 0
 188 748 188 748 188 711 c 0
 188 677 188 677 226 677 c 0
 238 677 238 677 250 689.5 c 0
 262 702 262 702 262 714 c 0
EndSplineSet
EndChar

StartChar: uE82C
Encoding: 224 59436 223
Width: 1000
LayerCount: 2
Fore
SplineSet
285 645 m 1
 285 619 285 619 270 600 c 0
 254 580 254 580 229 580 c 0
 209 580 209 580 180 604 c 1
 159 580 159 580 132 580 c 0
 108 580 108 580 93 601 c 0
 80 620 80 620 80 645 c 1
 99 645 l 1
 99 602 99 602 135 602 c 0
 170 602 170 602 171 645 c 1
 193 645 l 1
 193 602 193 602 230 602 c 0
 264 602 264 602 265 645 c 1
 285 645 l 1
250 535 m 1
 114 462 l 1
 102 483 l 1
 239 558 l 1
 250 535 l 1
EndSplineSet
EndChar

StartChar: uE82D
Encoding: 225 59437 224
Width: 1000
LayerCount: 2
Fore
SplineSet
285 738 m 1
 285 712 285 712 270 693 c 0
 254 673 254 673 229 673 c 0
 209 673 209 673 180 697 c 1
 159 673 159 673 132 673 c 0
 108 673 108 673 93 694 c 0
 80 713 80 713 80 738 c 1
 99 738 l 1
 99 695 99 695 135 695 c 0
 170 695 170 695 171 738 c 1
 193 738 l 1
 193 695 193 695 230 695 c 0
 264 695 264 695 265 738 c 1
 285 738 l 1
244 620 m 1
 108 547 l 1
 96 567 l 1
 232 642 l 1
 244 620 l 1
244 558 m 1
 108 484 l 1
 96 505 l 1
 232 581 l 1
 244 558 l 1
EndSplineSet
EndChar

StartChar: u0621
Encoding: 226 1569 225
Width: 229
Flags: W
LayerCount: 2
Fore
SplineSet
204 85 m 1
 41 0 l 1
 28 27 l 1
 85 57 l 1
 34 84 34 84 34 129 c 0
 34 165 34 165 56 187.5 c 0
 78 210 78 210 112 210 c 0
 136 210 136 210 158 202 c 1
 146 176 l 1
 130 185 130 185 114 185 c 0
 62 185 62 185 62 129 c 0
 62 85 62 85 106 85 c 0
 141 85 141 85 189 110 c 1
 204 85 l 1
EndSplineSet
EndChar

StartChar: periodcentered
Encoding: 227 183 226
Width: 223
Flags: W
LayerCount: 2
Fore
SplineSet
109 283 m 0
 67 283 67 283 67 328 c 0
 67 375 67 375 109 375 c 0
 150 375 150 375 150 328 c 0
 150 310 150 310 139.5 296.5 c 0
 129 283 129 283 109 283 c 0
EndSplineSet
EndChar

StartChar: periodcentered
Encoding: 228 8729 227
Width: 223
Flags: W
LayerCount: 2
Fore
SplineSet
109 283 m 0
 67 283 67 283 67 328 c 0
 67 375 67 375 109 375 c 0
 150 375 150 375 150 328 c 0
 150 310 150 310 139.5 296.5 c 0
 129 283 129 283 109 283 c 0
EndSplineSet
EndChar

StartChar: periodcentered
Encoding: 229 729 228
Width: 223
Flags: W
LayerCount: 2
Fore
SplineSet
109 283 m 0
 67 283 67 283 67 328 c 0
 67 375 67 375 109 375 c 0
 150 375 150 375 150 328 c 0
 150 310 150 310 139.5 296.5 c 0
 129 283 129 283 109 283 c 0
EndSplineSet
EndChar

StartChar: exclam
Encoding: 231 33 230
Width: 240
Flags: W
LayerCount: 2
Fore
SplineSet
78 622 m 1
 162 622 l 1
 162 417 l 1
 143 147 l 1
 98 147 l 1
 78 417 l 1
 78 622 l 1
78 0 m 1
 78 89 l 1
 162 89 l 1
 162 0 l 1
 78 0 l 1
EndSplineSet
EndChar

StartChar: quotedbl
Encoding: 232 34 231
Width: 308
Flags: W
LayerCount: 2
Fore
SplineSet
43 622 m 1
 119 622 l 1
 106 373 l 1
 55 373 l 1
 43 622 l 1
187 622 m 1
 265 622 l 1
 252 373 l 1
 201 373 l 1
 187 622 l 1
EndSplineSet
EndChar

StartChar: numbersign
Encoding: 233 35 232
Width: 481
Flags: W
LayerCount: 2
Fore
SplineSet
0 188 m 1
 14 238 l 1
 111 238 l 1
 150 384 l 1
 53 384 l 1
 66 432 l 1
 165 432 l 1
 215 622 l 1
 277 622 l 1
 228 432 l 1
 320 432 l 1
 373 622 l 1
 434 622 l 1
 384 432 l 1
 481 432 l 1
 469 384 l 1
 371 384 l 1
 330 238 l 1
 428 238 l 1
 416 188 l 1
 318 188 l 1
 267 0 l 1
 203 0 l 1
 254 188 l 1
 162 188 l 1
 109 0 l 1
 48 0 l 1
 98 188 l 1
 0 188 l 1
174 238 m 1
 268 238 l 1
 308 384 l 1
 213 384 l 1
 174 238 l 1
EndSplineSet
EndChar

StartChar: dollar
Encoding: 234 36 233
Width: 481
Flags: W
LayerCount: 2
Fore
SplineSet
221 275 m 1
 163 288 163 288 124 306.5 c 0
 85 325 85 325 63 357 c 0
 41 389 41 389 41 437 c 0
 41 479 41 479 56.5 511.5 c 0
 72 544 72 544 97.5 564.5 c 0
 123 585 123 585 152.5 595.5 c 0
 182 606 182 606 221 609 c 1
 221 671 l 1
 263 671 l 1
 263 609 l 1
 320 604 320 604 360.5 582 c 0
 401 560 401 560 423 519 c 0
 437 488 437 488 438 446 c 1
 364 446 l 1
 357 492 357 492 334 515 c 0
 311 538 311 538 263 546 c 1
 263 343 l 1
 320 328 320 328 345 318 c 0
 386 304 386 304 408 283 c 0
 430 262 430 262 442.5 232.5 c 0
 455 203 455 203 455 167 c 0
 455 121 455 121 433.5 79 c 0
 412 37 412 37 370 13.5 c 0
 328 -10 328 -10 263 -14 c 1
 263 -84 l 1
 221 -84 l 1
 221 -14 l 1
 150 -10 150 -10 106 16.5 c 0
 62 43 62 43 43 90 c 0
 27 126 27 126 28 185 c 1
 106 185 l 1
 106 141 106 141 117.5 114 c 0
 129 87 129 87 153.5 71 c 0
 178 55 178 55 221 48 c 1
 221 275 l 1
221 546 m 1
 172 544 172 544 145.5 517 c 0
 119 490 119 490 119 447 c 0
 119 412 119 412 143 386 c 0
 167 360 167 360 221 352 c 1
 221 546 l 1
263 48 m 1
 288 50 288 50 305.5 55.5 c 0
 323 61 323 61 338.5 73 c 0
 354 85 354 85 365.5 106.5 c 0
 377 128 377 128 377 158 c 0
 377 197 377 197 352.5 222.5 c 0
 328 248 328 248 263 267 c 1
 263 48 l 1
EndSplineSet
EndChar

StartChar: percent
Encoding: 235 37 234
Width: 771
Flags: W
LayerCount: 2
Fore
SplineSet
531 634 m 1
 588 634 l 1
 206 -35 l 1
 150 -35 l 1
 531 634 l 1
31 456 m 0
 31 531 31 531 70 570 c 0
 109 609 109 609 176 609 c 0
 240 609 240 609 277 570 c 0
 314 531 314 531 314 458 c 0
 314 410 314 410 297.5 373 c 0
 281 336 281 336 247 318.5 c 0
 213 301 213 301 172 301 c 0
 109 301 109 301 70 341.5 c 0
 31 382 31 382 31 456 c 0
100 456 m 0
 100 399 100 399 121.5 375.5 c 0
 143 352 143 352 174 352 c 0
 206 352 206 352 226.5 375.5 c 0
 247 399 247 399 247 455 c 0
 247 510 247 510 226.5 535 c 0
 206 560 206 560 174 560 c 0
 143 560 143 560 121.5 534 c 0
 100 508 100 508 100 456 c 0
434 144 m 0
 434 219 434 219 472 259 c 0
 510 299 510 299 575 299 c 0
 642 299 642 299 679 259 c 0
 716 219 716 219 716 146 c 0
 716 98 716 98 699.5 60.5 c 0
 683 23 683 23 647.5 5.5 c 0
 612 -12 612 -12 573 -12 c 0
 510 -12 510 -12 472 28.5 c 0
 434 69 434 69 434 144 c 0
499 144 m 0
 499 89 499 89 520.5 64 c 0
 542 39 542 39 575 39 c 0
 607 39 607 39 627.5 64 c 0
 648 89 648 89 648 143 c 0
 648 199 648 199 627.5 223 c 0
 607 247 607 247 575 247 c 0
 542 247 542 247 520.5 222 c 0
 499 197 499 197 499 144 c 0
EndSplineSet
EndChar

StartChar: ampersand
Encoding: 236 38 235
Width: 577
Flags: W
LayerCount: 2
Fore
SplineSet
476 0 m 1
 419 70 l 1
 391 41 391 41 372.5 27.5 c 0
 354 14 354 14 332.5 4 c 0
 311 -6 311 -6 287 -10 c 0
 263 -14 263 -14 234 -14 c 0
 150 -14 150 -14 101.5 33 c 0
 53 80 53 80 53 156 c 0
 53 201 53 201 68.5 233 c 0
 84 265 84 265 110.5 288 c 0
 137 311 137 311 195 347 c 1
 160 386 160 386 144.5 418.5 c 0
 129 451 129 451 129 485 c 0
 129 544 129 544 169 583 c 0
 209 622 209 622 277 622 c 0
 343 622 343 622 379.5 586.5 c 0
 416 551 416 551 416 495 c 0
 416 460 416 460 402.5 430.5 c 0
 389 401 389 401 368 380.5 c 0
 347 360 347 360 304 330 c 1
 417 195 l 1
 432 230 432 230 442 293 c 1
 515 293 l 1
 508 240 508 240 496.5 203.5 c 0
 485 167 485 167 464 133 c 1
 575 0 l 1
 476 0 l 1
265 380 m 1
 308 408 308 408 325.5 435 c 0
 343 462 343 462 343 490 c 0
 343 522 343 522 324.5 541 c 0
 306 560 306 560 273 560 c 0
 240 560 240 560 221.5 541 c 0
 203 522 203 522 203 492 c 0
 203 469 203 469 215.5 444 c 0
 228 419 228 419 265 380 c 1
236 293 m 1
 197 270 197 270 174.5 249.5 c 0
 152 229 152 229 140.5 207 c 0
 129 185 129 185 129 158 c 0
 129 111 129 111 162 79.5 c 0
 195 48 195 48 245 48 c 0
 286 48 286 48 319 67.5 c 0
 352 87 352 87 378 123 c 1
 236 293 l 1
EndSplineSet
EndChar

StartChar: quotesingle
Encoding: 237 39 236
Width: 165
Flags: W
LayerCount: 2
Fore
SplineSet
45 622 m 1
 121 622 l 1
 106 373 l 1
 57 373 l 1
 45 622 l 1
EndSplineSet
EndChar

StartChar: parenleft
Encoding: 238 40 237
Width: 288
Flags: W
LayerCount: 2
Fore
SplineSet
203 631 m 1
 254 631 l 1
 206 540 206 540 184.5 484 c 0
 163 428 163 428 150 367 c 0
 141 308 141 308 141 226 c 0
 141 160 141 160 147.5 112 c 0
 154 64 154 64 168 18.5 c 0
 182 -27 182 -27 201.5 -71 c 0
 221 -115 221 -115 254 -180 c 1
 203 -180 l 1
 160 -113 160 -113 133 -64 c 0
 100 4 100 4 81 75 c 0
 62 146 62 146 62 226 c 0
 62 308 62 308 84 386 c 0
 102 451 102 451 135 519 c 0
 162 568 162 568 203 631 c 1
EndSplineSet
EndChar

StartChar: parenright
Encoding: 239 41 238
Width: 288
Flags: W
LayerCount: 2
Fore
SplineSet
85 -180 m 1
 33 -180 l 1
 82 -89 82 -89 104 -32 c 0
 126 25 126 25 137 85 c 0
 147 146 147 146 147 226 c 0
 147 291 147 291 140 339 c 0
 133 387 133 387 119.5 432.5 c 0
 106 478 106 478 86.5 522 c 0
 67 566 67 566 33 631 c 1
 85 631 l 1
 129 565 129 565 154 515 c 0
 188 447 188 447 207 376.5 c 0
 226 306 226 306 226 226 c 0
 226 144 226 144 206.5 72 c 0
 187 0 187 0 152 -66 c 0
 128 -117 128 -117 85 -180 c 1
EndSplineSet
EndChar

StartChar: asterisk
Encoding: 240 42 239
Width: 338
Flags: W
LayerCount: 2
Fore
SplineSet
143 527 m 1
 143 622 l 1
 195 622 l 1
 195 527 l 1
 284 556 l 1
 302 512 l 1
 209 483 l 1
 267 401 l 1
 224 373 l 1
 167 453 l 1
 111 373 l 1
 70 401 l 1
 128 483 l 1
 35 512 l 1
 53 556 l 1
 143 527 l 1
EndSplineSet
EndChar

StartChar: plus
Encoding: 241 43 240
Width: 507
Flags: W
LayerCount: 2
Fore
SplineSet
217 0 m 1
 217 183 l 1
 33 183 l 1
 33 256 l 1
 217 256 l 1
 217 438 l 1
 289 438 l 1
 289 256 l 1
 473 256 l 1
 473 183 l 1
 289 183 l 1
 289 0 l 1
 217 0 l 1
EndSplineSet
EndChar

StartChar: comma
Encoding: 242 44 241
Width: 240
Flags: W
LayerCount: 2
Fore
SplineSet
76 0 m 1
 76 92 l 1
 165 92 l 1
 165 8 l 2
 165 -53 165 -53 144.5 -81 c 0
 124 -109 124 -109 76 -126 c 1
 76 -86 l 1
 90 -82 90 -82 99 -73 c 0
 108 -64 108 -64 113.5 -48.5 c 0
 119 -33 119 -33 121 0 c 1
 76 0 l 1
EndSplineSet
EndChar

StartChar: hyphen
Encoding: 243 45 242
Width: 288
Flags: W
LayerCount: 2
Fore
SplineSet
37 203 m 1
 37 281 l 1
 250 281 l 1
 250 203 l 1
 37 203 l 1
EndSplineSet
EndChar

StartChar: period
Encoding: 244 46 243
Width: 240
Flags: W
LayerCount: 2
Fore
SplineSet
76 0 m 1
 76 92 l 1
 165 92 l 1
 165 0 l 1
 76 0 l 1
EndSplineSet
EndChar

StartChar: slash
Encoding: 245 47 244
Width: 240
Flags: W
LayerCount: 2
Fore
SplineSet
197 622 m 1
 262 622 l 1
 64 0 l 1
 0 0 l 1
 197 622 l 1
EndSplineSet
EndChar

StartChar: zero
Encoding: 246 48 245
Width: 525
Flags: W
LayerCount: 2
Fore
SplineSet
401 138 m 0,0,1
 401 87 401 87 357.5 48.5 c 128,-1,2
 314 10 314 10 263 10 c 0,3,4
 208 10 208 10 165.5 48.5 c 128,-1,5
 123 87 123 87 123 141 c 0,6,7
 123 194 123 194 166.5 236.5 c 128,-1,8
 210 279 210 279 265 279 c 0,9,10
 318 279 318 279 359.5 234.5 c 128,-1,11
 401 190 401 190 401 138 c 0,0,1
339 141 m 0,12,13
 339 170 339 170 315.5 193.5 c 128,-1,14
 292 217 292 217 261 217 c 0,15,16
 229 217 229 217 206.5 192.5 c 128,-1,17
 184 168 184 168 184 137 c 0,18,19
 184 107 184 107 209 86 c 0,20,21
 234 66 234 66 265 66 c 0,22,23
 294 66 294 66 316.5 88 c 128,-1,24
 339 110 339 110 339 141 c 0,12,13
EndSplineSet
EndChar

StartChar: one
Encoding: 247 49 246
Width: 525
Flags: W
LayerCount: 2
Fore
SplineSet
319 -87 m 1,0,-1
 243 -87 l 1,1,-1
 243 151 l 2,2,3
 243 271 243 271 206 396 c 1,4,-1
 280 420 l 1,5,-1
 308 315 l 2,6,7
 308 313 308 313 311 288 c 0,8,9
 319 218 319 218 319 151 c 2,10,-1
 319 -87 l 1,0,-1
EndSplineSet
EndChar

StartChar: two
Encoding: 248 50 247
Width: 525
Flags: W
LayerCount: 2
Fore
SplineSet
416 278 m 0,0,1
 416 234 416 234 377 204 c 0,2,3
 341 176 341 176 297 176 c 0,4,5
 263 176 263 176 224 202 c 1,6,-1
 225 -87 l 1,7,-1
 146 -87 l 1,8,-1
 146 142 l 2,9,10
 146 296 146 296 109 396 c 1,11,-1
 185 420 l 1,12,-1
 216 292 l 2,13,14
 228 243 228 243 273 243 c 0,15,16
 306 243 306 243 323 269 c 0,17,18
 336 287 336 287 334 305 c 2,19,-1
 321 397 l 1,20,21
 346 406 346 406 394 421 c 1,22,23
 416 314 416 314 416 278 c 0,0,1
EndSplineSet
EndChar

StartChar: three
Encoding: 249 51 248
Width: 525
Flags: W
LayerCount: 2
Fore
SplineSet
504 283 m 0,0,1
 504 241 504 241 468 211 c 0,2,3
 435 183 435 183 391 183 c 0,4,5
 343 183 343 183 295 236 c 1,6,7
 295 181 295 181 213 181 c 0,8,9
 172 181 172 181 136 200 c 1,10,-1
 137 -87 l 1,11,-1
 61 -87 l 1,12,-1
 61 142 l 2,13,14
 61 286 61 286 21 396 c 1,15,-1
 99 420 l 1,16,-1
 128 292 l 2,17,18
 140 243 140 243 188 243 c 0,19,20
 214 243 214 243 229 260 c 0,21,22
 252 281 252 281 248 305 c 2,23,-1
 233 397 l 1,24,-1
 308 426 l 1,25,26
 325 333 325 333 325 293 c 0,27,28
 325 288 325 288 323 266 c 1,29,30
 344 241 344 241 373 241 c 0,31,32
 396 241 396 241 412.5 257 c 128,-1,33
 429 273 429 273 429 296 c 2,34,-1
 429 305 l 1,35,-1
 417 397 l 1,36,-1
 488 420 l 1,37,-1
 503 294 l 2,38,39
 504 289 504 289 504 283 c 0,0,1
EndSplineSet
EndChar

StartChar: four
Encoding: 250 52 249
Width: 525
Flags: W
LayerCount: 2
Fore
SplineSet
467 203 m 1,0,1
 382 163 382 163 306 163 c 0,2,3
 241 163 241 163 170 193 c 1,4,-1
 171 -87 l 1,5,-1
 96 -87 l 1,6,-1
 96 146 l 2,7,8
 96 262 96 262 59 396 c 1,9,-1
 131 420 l 1,10,11
 153 339 153 339 166 268 c 1,12,-1
 206 249 l 1,13,14
 206 425 206 425 348 425 c 0,15,16
 393 425 393 425 442 399 c 1,17,-1
 417 332 l 1,18,19
 385 355 385 355 351 355 c 0,20,21
 320 355 320 355 296 334 c 128,-1,22
 272 313 272 313 272 282 c 0,23,24
 272 231 272 231 331 231 c 0,25,26
 376 231 376 231 442 265 c 1,27,-1
 467 203 l 1,0,1
EndSplineSet
EndChar

StartChar: five
Encoding: 251 53 250
Width: 525
Flags: W
LayerCount: 2
Fore
SplineSet
505 31 m 0,0,1
 505 -30 505 -30 458 -69 c 0,2,3
 416 -104 416 -104 352 -104 c 0,4,5
 294 -104 294 -104 254 -73 c 1,6,7
 200 -105 200 -105 148 -105 c 0,8,9
 89 -105 89 -105 53 -59 c 0,10,11
 21 -16 21 -16 21 46 c 0,12,13
 21 141 21 141 98 235 c 2,14,-1
 183 340 l 1,15,-1
 151 361 l 1,16,-1
 203 421 l 1,17,18
 505 195 505 195 505 31 c 0,0,1
423 51 m 0,19,20
 423 143 423 143 241 294 c 1,21,22
 103 148 103 148 103 52 c 0,23,24
 103 -21 103 -21 168 -21 c 0,25,26
 229 -21 229 -21 229 48 c 0,27,28
 229 52 229 52 225 77 c 1,29,-1
 302 77 l 1,30,31
 308 66 308 66 308 48 c 0,32,33
 308 10 308 10 299 -5 c 1,34,35
 321 -20 321 -20 350 -20 c 0,36,37
 423 -20 423 -20 423 51 c 0,19,20
EndSplineSet
EndChar

StartChar: six
Encoding: 252 54 251
Width: 525
Flags: W
LayerCount: 2
Fore
SplineSet
421 209 m 1,0,1
 390 183 390 183 360 146 c 2,2,-1
 295 66 l 2,3,4
 244 4 244 4 183 -106 c 1,5,-1
 112 -65 l 1,6,7
 149 7 149 7 255 144 c 1,8,9
 187 144 187 144 146 180 c 0,10,11
 104 217 104 217 104 284 c 0,12,13
 104 346 104 346 142.5 386.5 c 128,-1,14
 181 427 181 427 241 427 c 0,15,16
 284 427 284 427 339 397 c 1,17,-1
 314 328 l 1,18,19
 281 347 281 347 251 347 c 0,20,21
 223 347 223 347 203 328.5 c 128,-1,22
 183 310 183 310 183 281 c 0,23,24
 183 220 183 220 253 220 c 0,25,26
 301 220 301 220 358 256 c 1,27,-1
 421 209 l 1,0,1
EndSplineSet
EndChar

StartChar: seven
Encoding: 253 55 252
Width: 525
Flags: W
LayerCount: 2
Fore
SplineSet
481 387 m 1,0,-1
 417 277 l 2,1,2
 386 224 386 224 360 163 c 0,3,4
 321 66 321 66 292 -87 c 1,5,-1
 231 -87 l 1,6,7
 212 47 212 47 164 161 c 0,8,9
 128 248 128 248 46 387 c 1,10,-1
 112 421 l 1,11,12
 185 299 185 299 214 222 c 0,13,14
 217 214 217 214 229 169 c 2,15,-1
 260 57 l 1,16,-1
 268 56 l 1,17,18
 300 213 300 213 352 308 c 2,19,-1
 414 421 l 1,20,21
 444 405 444 405 481 387 c 1,0,-1
EndSplineSet
EndChar

StartChar: eight
Encoding: 254 56 253
Width: 525
Flags: W
LayerCount: 2
Fore
SplineSet
481 -49 m 1,0,1
 445 -65 445 -65 413 -85 c 1,2,3
 342 38 342 38 312 117 c 0,4,5
 308 130 308 130 296 175 c 2,6,-1
 268 281 l 1,7,-1
 260 282 l 1,8,9
 243 211 243 211 214 118 c 0,10,11
 191 48 191 48 111 -85 c 1,12,13
 73 -63 73 -63 44 -48 c 1,14,15
 129 96 129 96 164 178 c 0,16,17
 208 283 208 283 232 426 c 1,18,-1
 293 425 l 1,19,20
 325 230 325 230 407 80 c 0,21,22
 431 35 431 35 481 -49 c 1,0,1
EndSplineSet
EndChar

StartChar: nine
Encoding: 255 57 254
Width: 525
Flags: W
LayerCount: 2
Fore
SplineSet
405 -87 m 1,0,-1
 328 -87 l 1,1,-1
 328 181 l 1,2,3
 281 164 281 164 241 164 c 0,4,5
 185 164 185 164 153 195 c 128,-1,6
 121 226 121 226 121 281 c 0,7,8
 121 342 121 342 158 384 c 0,9,10
 196 427 196 427 256 427 c 0,11,12
 293 427 293 427 336 400 c 0,13,14
 405 360 405 360 405 167 c 2,15,-1
 405 -87 l 1,0,-1
320 260 m 1,16,17
 317 280 317 280 309 318 c 1,18,19
 299 346 299 346 277 351 c 0,20,21
 276 352 276 352 252 355 c 0,22,23
 223 355 223 355 205 334.5 c 128,-1,24
 187 314 187 314 187 284 c 0,25,26
 187 232 187 232 241 232 c 0,27,28
 273 232 273 232 320 260 c 1,16,17
EndSplineSet
EndChar

StartChar: colon
Encoding: 256 58 255
Width: 240
Flags: W
LayerCount: 2
Fore
SplineSet
76 359 m 1
 76 453 l 1
 165 453 l 1
 165 359 l 1
 76 359 l 1
76 0 m 1
 76 92 l 1
 165 92 l 1
 165 0 l 1
 76 0 l 1
EndSplineSet
EndChar
